<?xml version="1.0" encoding="UTF-8"?>
<svg width="150px" height="50px" viewBox="0 0 150 50" version="1.1" xmlns="http://www.w3.org/2000/svg" xmlns:xlink="http://www.w3.org/1999/xlink">
    <!-- Generator: Sketch 51.2 (57519) - http://www.bohemiancoding.com/sketch -->
    <title>Group 24</title>
    <desc>Created with Sketch.</desc>
    <defs>
        <polygon id="path-1" points="0 0.098126615 149.252012 0.098126615 149.252012 48.9201513 0 48.9201513"></polygon>
    </defs>
    <g id="Page-1" stroke="none" stroke-width="1" fill="none" fill-rule="evenodd">
        <g id="Desktop-HD-Copy-11" transform="translate(-804.000000, -2389.000000)">
            <g id="Group-24" transform="translate(804.000000, 2389.000000)">
                <g id="Group-42">
                    <g id="Group-3" transform="translate(0.000000, 0.187957)">
                        <mask id="mask-2" fill="white">
                            <use xlink:href="#path-1"></use>
                        </mask>
                        <g id="Clip-2"></g>
                        <path d="M149.252155,42.3219232 C149.252155,45.9654817 146.299202,48.9201513 142.655929,48.9201513 L6.597799,48.9201513 C2.95452658,48.9201513 -0.000143041713,45.9654817 -0.000143041713,42.3219232 L-0.000143041713,6.69566814 C-0.000143041713,3.05239572 2.95452658,0.0980121816 6.597799,0.0980121816 L142.655929,0.0980121816 C146.299202,0.0980121816 149.252155,3.05239572 149.252155,6.69566814 L149.252155,42.3219232 Z" id="Fill-1" fill="#038CFF" mask="url(#mask-2)"></path>
                    </g>
                    <path d="M56.4779765,17.5130657 C56.7021674,17.5496865 57.0284054,17.5496865 57.3751868,17.5496865 C59.2709846,17.5586185 60.3001638,16.5957586 60.3001638,14.9261614 C60.3104355,13.4492702 59.3931284,12.540895 57.5176507,12.540895 C57.0594438,12.540895 56.7124391,12.5779624 56.4779765,12.6235151 L56.4779765,17.5130657 Z M55.5807662,12.0364654 C56.1314184,11.9632237 56.7736227,11.9080692 57.4767872,11.9080692 C58.7511474,11.9080692 59.6581829,12.1650849 60.259747,12.6697378 C60.8814079,13.1739441 61.2382376,13.8985452 61.2382376,14.8986958 C61.2382376,15.9077783 60.8814079,16.7330867 60.2496986,17.3020494 C59.5972226,17.8799439 58.5370049,18.1918908 57.2016844,18.1918908 C56.5594801,18.1918908 56.039643,18.1735804 55.5807662,18.1184259 L55.5807662,12.0364654 Z" id="Fill-24" fill="#FFFFFF"></path>
                    <path d="M64.4477854,17.6321281 C65.3039089,17.6321281 65.9463365,16.9075269 65.9463365,15.8982211 C65.9463365,15.1461544 65.5283231,14.2013816 64.4683287,14.2013816 C63.4181595,14.2013816 62.9595059,15.0820679 62.9595059,15.9259101 C62.9595059,16.8983717 63.5711184,17.6321281 64.4375137,17.6321281 L64.4477854,17.6321281 Z M64.4171936,18.2377115 C63.0919215,18.2377115 62.0524705,17.3572486 62.0524705,15.953599 C62.0524705,14.4675525 63.1430567,13.5960215 64.4986972,13.5960215 C65.9157447,13.5960215 66.8734687,14.5222605 66.8734687,15.8709788 C66.8734687,17.5222656 65.5995551,18.2377115 64.4276886,18.2377115 L64.4171936,18.2377115 Z" id="Fill-26" fill="#FFFFFF"></path>
                    <path d="M68.2927044,13.6967287 L68.9552288,15.9444438 C69.0876444,16.4397182 69.2202833,16.9075269 69.3118353,17.3664038 L69.3424271,17.3664038 C69.4545226,16.9166821 69.6177532,16.4397182 69.7807606,15.953599 L70.5861955,13.6967287 L71.3404953,13.6967287 L72.1050667,15.9165315 C72.2883942,16.4397182 72.4310814,16.9166821 72.5431769,17.3664038 L72.5737687,17.3664038 C72.6552724,16.9166821 72.7881345,16.4488734 72.9509186,15.9259101 L73.6540831,13.6967287 L74.5410218,13.6967287 L72.9509186,18.136781 L72.1354352,18.136781 L71.3813588,16.0179087 C71.208303,15.5132558 71.0651692,15.0729127 70.9425787,14.5499494 L70.9224819,14.5499494 C70.8001147,15.0820679 70.6473791,15.5498767 70.4738768,16.0270639 L69.6789368,18.136781 L68.8636768,18.136781 L67.375174,13.6967287 L68.2927044,13.6967287 Z" id="Fill-28" fill="#FFFFFF"></path>
                    <path d="M75.4386563,14.8986958 C75.4386563,14.4306637 75.4283846,14.0640089 75.3975696,13.6966841 L76.1929561,13.6966841 L76.2436447,14.4217318 L76.2641881,14.4217318 C76.5089224,14.0088543 77.0796714,13.5959768 77.8949315,13.5959768 C78.5779992,13.5959768 79.6379936,13.962855 79.6379936,15.4857456 L79.6379936,18.1367363 L78.7414532,18.1367363 L78.7414532,15.5772976 C78.7414532,14.8618517 78.4453604,14.2567148 77.5995085,14.2567148 C77.0184878,14.2567148 76.559611,14.6327482 76.3968269,15.0820232 C76.3559634,15.1829538 76.3356433,15.3296604 76.3356433,15.4582799 L76.3356433,18.1367363 L75.4386563,18.1367363 L75.4386563,14.8986958 Z" id="Fill-30" fill="#FFFFFF"></path>
                    <polygon id="Fill-32" fill="#FFFFFF" points="81.0957706 18.1367363 81.9929809 18.1367363 81.9929809 11.6238112 81.0957706 11.6238112"></polygon>
                    <path d="M85.5193211,17.6321281 C86.3756679,17.6321281 87.0180955,16.9075269 87.0180955,15.8982211 C87.0180955,15.1461544 86.6000821,14.2013816 85.5403111,14.2013816 C84.4901418,14.2013816 84.0312649,15.0820679 84.0312649,15.9259101 C84.0312649,16.8983717 84.6428775,17.6321281 85.509496,17.6321281 L85.5193211,17.6321281 Z M85.4891759,18.2377115 C84.1643504,18.2377115 83.1244528,17.3572486 83.1244528,15.953599 C83.1244528,14.4675525 84.2145924,13.5960215 85.5706796,13.5960215 C86.9872804,13.5960215 87.945451,14.5222605 87.945451,15.8709788 C87.945451,17.5222656 86.6713141,18.2377115 85.4992243,18.2377115 L85.4891759,18.2377115 Z" id="Fill-34" fill="#FFFFFF"></path>
                    <path d="M91.6770242,15.8710458 C90.6983102,15.8527354 89.5874039,16.0085972 89.5874039,16.8709731 C89.5874039,17.4028683 89.9746022,17.6415736 90.4232074,17.6415736 C91.0754601,17.6415736 91.4934734,17.2744721 91.6357141,16.8984387 C91.6669758,16.8158185 91.6770242,16.7238199 91.6770242,16.641423 L91.6770242,15.8710458 Z M92.5532445,17.0728342 C92.5532445,17.4577995 92.5737879,17.8338329 92.6246998,18.1366247 L91.8192648,18.1366247 L91.7375378,17.5774871 L91.7076159,17.5774871 C91.4423382,17.9258316 90.9017344,18.2377785 90.1990164,18.2377785 C89.2002056,18.2377785 88.6904169,17.6049527 88.6904169,16.9625251 C88.6904169,15.8893562 89.750188,15.3020832 91.6560342,15.3112384 L91.6560342,15.2196863 C91.6560342,14.8528081 91.5443853,14.1831382 90.5353028,14.1922934 C90.065931,14.1922934 89.5874039,14.3113111 89.2408458,14.5223275 L89.0367517,13.981277 C89.4444934,13.7521736 90.0456109,13.5960884 90.6677184,13.5960884 C92.1863663,13.5960884 92.5532445,14.5223275 92.5532445,15.4123922 L92.5532445,17.0728342 Z" id="Fill-35" fill="#FFFFFF"></path>
                    <path d="M97.3545478,15.504056 C97.3545478,15.3939702 97.3444994,15.265574 97.313461,15.1554882 C97.181492,14.6510586 96.6920234,14.2290259 96.0194506,14.2290259 C95.0916485,14.2290259 94.5409963,14.9627823 94.5409963,15.9354672 C94.5409963,16.8433958 95.0409599,17.5860841 95.9989072,17.5860841 C96.6004713,17.5860841 97.1509003,17.2194292 97.313461,16.6232242 C97.3444994,16.5133617 97.3545478,16.4028294 97.3545478,16.2746565 L97.3545478,15.504056 Z M98.2513115,11.6238112 L98.2513115,16.9898791 C98.2513115,17.3844462 98.2620298,17.8339446 98.292175,18.1367363 L97.4871866,18.1367363 L97.4465465,17.3663591 L97.4260031,17.3663591 C97.1509003,17.8616335 96.5593845,18.2376669 95.7543962,18.2376669 C94.5615397,18.2376669 93.6339609,17.3297383 93.6339609,15.9810199 C93.6236892,14.4947502 94.6535383,13.5959768 95.845725,13.5959768 C96.610743,13.5959768 97.1203085,13.9175255 97.334451,14.2656467 L97.3545478,14.2656467 L97.3545478,11.6238112 L98.2513115,11.6238112 Z" id="Fill-36" fill="#FFFFFF"></path>
                    <path d="M104.396352,12.6330053 L104.396352,13.6967957 L105.680314,13.6967957 L105.680314,14.3113111 L104.396352,14.3113111 L104.396352,16.7057327 C104.396352,17.2559384 104.569854,17.5681086 105.069371,17.5681086 C105.313436,17.5681086 105.456569,17.5497982 105.589208,17.5129541 L105.629625,18.1274694 C105.456569,18.182624 105.181467,18.2377785 104.834685,18.2377785 C104.416895,18.2377785 104.080162,18.109159 103.86602,17.898366 C103.621285,17.6507288 103.519685,17.2559384 103.519685,16.7329751 L103.519685,14.3113111 L102.755113,14.3113111 L102.755113,13.6967957 L103.519685,13.6967957 L103.519685,12.8804192 L104.396352,12.6330053 Z" id="Fill-39" fill="#FFFFFF"></path>
                    <path d="M106.689954,11.6238112 L107.586718,11.6238112 L107.586718,14.3940429 L107.607485,14.3940429 C107.749726,14.1647161 107.973916,13.9539231 108.249912,13.8253036 C108.514744,13.6788203 108.83004,13.5959768 109.16722,13.5959768 C109.829297,13.5959768 110.889515,13.962855 110.889515,15.4949008 L110.889515,18.1367363 L109.992751,18.1367363 L109.992751,15.5866761 C109.992751,14.8618517 109.697105,14.2656467 108.85103,14.2656467 C108.270009,14.2656467 107.821627,14.6327482 107.648125,15.072868 C107.59699,15.1829538 107.586718,15.3021948 107.586718,15.4582799 L107.586718,18.1367363 L106.689954,18.1367363 L106.689954,11.6238112 Z" id="Fill-40" fill="#FFFFFF"></path>
                    <path d="M115.477055,15.476568 C115.486657,14.9719151 115.242369,14.1646938 114.243335,14.1646938 C113.325582,14.1646938 112.938383,14.9169839 112.867151,15.476568 L115.477055,15.476568 Z M112.85688,16.0544626 C112.877646,17.1461652 113.642218,17.5956636 114.538982,17.5956636 C115.180963,17.5956636 115.578656,17.4945097 115.90534,17.3752687 L116.068348,17.944008 C115.751712,18.0724042 115.201506,18.2284893 114.416838,18.2284893 C112.907792,18.2284893 111.990708,17.3201141 111.990708,15.9903761 C111.990708,14.6418811 112.877646,13.5867993 114.314344,13.5867993 C115.925437,13.5867993 116.342781,14.8618293 116.342781,15.6784292 C116.342781,15.8436695 116.333179,15.9720657 116.312636,16.0636178 L112.85688,16.0544626 Z" id="Fill-41" fill="#FFFFFF"></path>
                </g>
                <g id="174836" transform="translate(16.000000, 5.000000)" fill="#FFFFFF" fill-rule="nonzero">
                    <path d="M22.329,12 L5.67092051,12 C5.30036827,12 5,12.2867617 5,12.640528 L5,25.976881 C5,26.3306473 5.30036827,26.617409 5.67092051,26.617409 L8.64066378,26.617409 L8.64066378,31.1118045 C8.64066378,32.154588 9.52611034,33 10.6184525,33 C11.7107153,33 12.5962413,32.1546639 12.5962413,31.1118045 L12.5962413,26.617409 L15.3625067,26.617409 L15.3625067,31.1118045 C15.3625067,32.154588 16.2479533,33 17.3402955,33 C18.4325582,33 19.3180843,32.1546639 19.3180843,31.1118045 L19.3180843,26.617409 L22.3290795,26.617409 C22.6996317,26.617409 23,26.3306473 23,25.976881 L23,12.640528 C22.9999205,12.2867617 22.6995522,12 22.329,12 Z" id="Shape"></path>
                    <path d="M2,12 C0.895470803,12 0,12.88629 0,13.9796726 L0,22.0203274 C0,23.1136305 0.895390427,24 2,24 C3.1045292,24 4,23.11371 4,22.0203274 L4,13.9796726 C3.99991962,12.8863695 3.1045292,12 2,12 Z" id="Shape"></path>
                    <path d="M26,12 C24.8954708,12 24,12.88629 24,13.9796726 L24,22.0203274 C24,23.1136305 24.8953904,24 26,24 C27.1045292,24 28,23.11371 28,22.0203274 L28,13.9796726 C28,12.8863695 27.1046096,12 26,12 Z" id="Shape"></path>
                    <path d="M5.67190751,10.4117647 L22.0281163,10.4117647 C22.4548097,10.4117647 22.7730406,9.99695324 22.6854118,9.55621081 C22.1443716,6.83488648 20.5026437,4.54154888 18.274948,3.21672011 L19.6731919,0.554222975 C19.7678182,0.373965029 19.7061123,0.146796379 19.5353077,0.0469328053 C19.3641055,-0.0531825251 19.1491685,0.012190352 19.0545421,0.192448298 L17.6457224,2.87500207 C16.4918372,2.30989173 15.2058727,1.99427249 13.8500119,1.99427249 C12.4940716,1.99427249 11.2081071,2.30989173 10.054222,2.87500207 L8.64540222,0.192364379 C8.55069632,0.0120225141 8.3354412,-0.0530146871 8.16471613,0.0468488864 C7.99391155,0.14671246 7.93220561,0.37388111 8.02683198,0.554139056 L9.42507584,3.2166362 C7.19738011,4.54154888 5.55565225,6.83480256 5.01461203,9.55621081 C4.92690372,9.99695324 5.24513461,10.4117647 5.67190751,10.4117647 Z M18.7305064,6.44382408 C18.7305064,6.88708408 18.3900105,7.24650902 17.9699171,7.24650902 C17.5499032,7.24650902 17.2093278,6.88716799 17.2093278,6.44382408 C17.2093278,6.00056408 17.5498237,5.64113914 17.9699171,5.64113914 C18.3900105,5.64113914 18.7305064,6.00056408 18.7305064,6.44382408 Z M9.72994771,5.64113914 C10.1499616,5.64113914 10.490537,6.00048016 10.490537,6.44382408 C10.490537,6.88708408 10.1500411,7.24650902 9.72994771,7.24650902 C9.30993383,7.24650902 8.9693584,6.88716799 8.9693584,6.44382408 C8.9693584,6.00056408 9.30985431,5.64113914 9.72994771,5.64113914 Z" id="Shape"></path>
                </g>
                <text id="Android-app" font-family="Lato-Bold, Lato" font-size="14" font-weight="bold" fill="#FFFFFF">
                    <tspan x="54" y="36">Android app</tspan>
                </text>
            </g>
        </g>
    </g>
</svg>