<?xml version="1.0" encoding="UTF-8"?>
<svg width="150px" height="50px" viewBox="0 0 150 50" version="1.1" xmlns="http://www.w3.org/2000/svg" xmlns:xlink="http://www.w3.org/1999/xlink">
    <!-- Generator: Sketch 51.2 (57519) - http://www.bohemiancoding.com/sketch -->
    <title>Group 42 Copy</title>
    <desc>Created with Sketch.</desc>
    <defs>
        <polygon id="path-1" points="0 0.098126615 149.252012 0.098126615 149.252012 48.9201513 0 48.9201513"></polygon>
    </defs>
    <g id="Page-1" stroke="none" stroke-width="1" fill="none" fill-rule="evenodd">
        <g id="Desktop-HD-Copy-10" transform="translate(-876.000000, -2446.000000)">
            <g id="Group-42-Copy" transform="translate(876.000000, 2446.000000)">
                <g id="Group-3" transform="translate(0.000000, 0.187957)">
                    <mask id="mask-2" fill="white">
                        <use xlink:href="#path-1"></use>
                    </mask>
                    <g id="Clip-2"></g>
                    <path d="M149.252155,42.3219232 C149.252155,45.9654817 146.299202,48.9201513 142.655929,48.9201513 L6.597799,48.9201513 C2.95452658,48.9201513 -0.000143041713,45.9654817 -0.000143041713,42.3219232 L-0.000143041713,6.69566814 C-0.000143041713,3.05239572 2.95452658,0.0980121816 6.597799,0.0980121816 L142.655929,0.0980121816 C146.299202,0.0980121816 149.252155,3.05239572 149.252155,6.69566814 L149.252155,42.3219232 Z" id="Fill-1" fill="#038CFF" mask="url(#mask-2)"></path>
                </g>
                <path d="M31.9156239,31.9472025 C31.0535469,33.2593382 29.839031,34.8933416 28.334261,34.9070639 C26.9964176,34.9193967 26.6530111,34.0364756 24.8380116,34.0465502 C23.0231857,34.0562775 22.6439969,34.9225233 21.3061535,34.9101905 C19.8012098,34.8962945 18.6502684,33.42088 17.7883651,32.1089179 C15.3782667,28.4401836 15.1264005,24.1346621 16.6125845,21.8458069 C17.6692064,20.219099 19.3351706,19.267045 20.9021254,19.267045 C22.4973935,19.267045 23.5001681,20.1419758 24.8190782,20.1419758 C26.0985582,20.1419758 26.878301,19.2656554 28.722656,19.2656554 C30.1167785,19.2656554 31.5937563,20.0245541 32.6463831,21.3375584 C29.1979014,23.2270755 29.7579127,28.1528825 33.2426979,29.4695344 C32.7629363,30.5329307 32.5331302,31.0074812 31.9156239,31.9472025 Z" id="Fill-4" fill="#FFFFFF"></path>
                <path d="M28.3178984,14.4837422 C27.2234098,14.5591283 25.9427138,15.2556685 25.194932,16.1634288 C24.5166304,16.9878127 23.9564453,18.2103189 24.1744398,19.3982585 C25.3693275,19.4352568 26.6055561,18.721694 27.3234614,17.8000376 C27.9932516,16.940045 28.5023687,15.7251817 28.3178984,14.4837422 Z" id="Fill-6" fill="#FFFFFF"></path>
                <path d="M61.0719478,23.1083935 C61.2217806,23.6914238 61.3836715,24.2970073 61.5913384,24.951493 L62.7875443,28.4152875 L59.3833703,28.4152875 L60.562829,24.9287166 C60.7423604,24.36355 60.9129598,23.753054 61.0719478,23.1083935 Z M60.0188757,20.9604925 L55.5808331,34.0243034 L57.6132892,34.0243034 L58.9381146,30.0129828 L63.2352563,30.0129828 L64.5978191,34.0243034 L66.6865461,34.0243034 L62.2293,20.9604925 L60.0188757,20.9604925 Z" id="Fill-8" fill="#FFFFFF"></path>
                <path d="M71.9369905,25.9833518 C73.699033,25.9833518 74.4874973,27.6156583 74.4874973,29.2330038 C74.4874973,31.3190513 73.4813177,32.6148481 71.8619625,32.6148481 C70.7564154,32.6148481 69.8000312,31.8623347 69.5334137,30.7806804 C69.4876376,30.6132071 69.4632982,30.3912492 69.4632982,30.1409324 L69.4632982,28.5514991 C69.4632982,28.4074721 69.4954531,28.2328532 69.5260448,28.0635936 C69.5358699,28.0095555 69.5465882,27.9555175 69.5544037,27.9032658 C69.8491567,26.7722627 70.8276474,25.9833518 71.9369905,25.9833518 M72.429362,24.347026 C71.0831,24.347026 70.0050185,24.8666398 69.2871163,25.854509 L69.2082922,24.5551395 L67.4004737,24.5551395 L67.411192,24.721273 C67.4645601,25.5307273 67.4866666,26.4216853 67.4866666,27.7007347 L67.4866666,37.7701229 L69.4632982,37.7701229 L69.4632982,33.0710453 C70.0764738,33.8048017 71.0556344,34.2319703 72.1649775,34.2319703 C73.32032,34.2319703 74.384557,33.7795691 75.1600701,32.9587266 C76.0260187,32.0438757 76.4824393,30.7284288 76.4824393,29.1570826 C76.4824393,27.7683939 76.0858625,26.567722 75.3342423,25.6856959 C74.5980297,24.8224269 73.5668407,24.347026 72.429362,24.347026" id="Fill-10" fill="#FFFFFF"></path>
                <path d="M82.115348,25.9833518 C83.8764973,25.9833518 84.6651849,27.6156583 84.6651849,29.2330038 C84.6651849,31.3190513 83.6583354,32.6148481 82.0398734,32.6148481 C80.9347729,32.6148481 79.9774955,31.8623347 79.7113246,30.7806804 C79.6655485,30.6132071 79.6416557,30.3912492 79.6416557,30.1409324 L79.6416557,28.5514991 C79.6416557,28.4068022 79.673364,28.2312902 79.7046256,28.0620305 C79.7144507,28.0086623 79.7242758,27.9555175 79.7332078,27.9032658 C80.0268443,26.7722627 81.0057816,25.9833518 82.115348,25.9833518 M82.6072729,24.347026 C81.2614575,24.347026 80.183376,24.8666398 79.4648039,25.854509 L79.3859798,24.5551395 L77.5788312,24.5551395 L77.5888796,24.721273 C77.642471,25.5316205 77.6650241,26.4216853 77.6650241,27.7007347 L77.6650241,37.7701229 L79.6416557,37.7701229 L79.6416557,33.0710453 C80.2548313,33.8048017 81.233322,34.2319703 82.3426651,34.2319703 C83.4977843,34.2319703 84.5622446,33.7795691 85.3390975,32.9587266 C86.203483,32.0438757 86.6605735,30.7284288 86.6605735,29.1570826 C86.6605735,27.7683939 86.2633268,26.567722 85.5117066,25.6856959 C84.7759406,24.8224269 83.7447516,24.347026 82.6072729,24.347026" id="Fill-12" fill="#FFFFFF"></path>
                <path d="M95.3581767,26.4957978 C93.5135141,25.7814683 92.9226683,25.2196512 92.9226683,24.1817633 C92.9226683,23.307776 93.6169009,22.4261965 95.1690435,22.4261965 C96.449656,22.4261965 97.2687121,22.8716755 97.4893303,23.0087803 L97.6568036,23.1121672 L98.2146014,21.4626668 L98.1042923,21.3981337 C97.7731417,21.204088 96.8294855,20.7523567 95.2259844,20.7523567 C92.7053996,20.7523567 90.9449202,22.2404128 90.9449202,24.3702266 C90.9449202,26.0880561 92.0473411,27.2887281 94.4140739,28.1490943 C96.0914865,28.7761143 96.7158269,29.4183186 96.7158269,30.5193998 C96.7158269,31.7656244 95.7527438,32.5386812 94.2035041,32.5386812 C93.1946449,32.5386812 92.1560871,32.2445981 91.3546715,31.7310133 L91.1834022,31.6211508 L90.6528468,33.3088351 L90.7502046,33.3733681 C91.4964656,33.8715454 92.9007851,34.2321712 94.0905154,34.2321712 C97.4875439,34.2321712 98.6922352,32.1606381 98.6922352,30.3869842 C98.6922352,28.5581757 97.7264725,27.4305221 95.3581767,26.4957978" id="Fill-14" fill="#FFFFFF"></path>
                <path d="M102.250083,22.3043876 L100.311412,22.9130972 L100.311412,24.5550055 L98.8923547,24.5550055 L98.8923547,26.1346137 L100.311412,26.1346137 L100.311412,30.9734757 C100.311412,32.1433326 100.535156,32.9630585 100.995819,33.4813326 C101.437502,33.9654421 102.116551,34.2320596 102.908141,34.2320596 C103.655295,34.2320596 104.186074,34.0844598 104.435944,33.9960339 L104.5467,33.9569568 L104.452022,32.3744457 L104.262442,32.4325031 C104.012572,32.5093175 103.756003,32.5387928 103.343125,32.5387928 C102.577214,32.5387928 102.250083,32.0542368 102.250083,30.9165348 L102.250083,26.1346137 L104.634456,26.1346137 L104.634456,24.5550055 L102.250083,24.5550055 L102.250083,22.3043876 Z" id="Fill-16" fill="#FFFFFF"></path>
                <path d="M109.475417,25.9074529 C111.253537,25.9074529 112.062991,27.6409133 112.062991,29.2522297 C112.062991,31.2335506 110.958337,32.671588 109.437903,32.671588 L109.418699,32.671588 C107.919702,32.671588 106.831572,31.2574434 106.831572,29.3091707 C106.831572,27.6161272 107.649288,25.9074529 109.475417,25.9074529 M109.532581,24.3470483 C106.767039,24.3470483 104.83596,26.4112126 104.83596,29.3649951 C104.83596,32.2307983 106.704739,34.2319926 109.381185,34.2319926 L109.399496,34.2319926 C111.662172,34.2319926 114.096117,32.6559572 114.096117,29.1950655 C114.096117,27.7878432 113.66091,26.5791325 112.836718,25.6988928 C112.007613,24.8148571 110.864552,24.3470483 109.532581,24.3470483" id="Fill-18" fill="#FFFFFF"></path>
                <path d="M120.150098,24.4388014 L120.031527,24.4086562 C119.857355,24.3653364 119.715338,24.347026 119.540049,24.347026 C118.505957,24.347026 117.578155,24.9557356 117.061891,25.9382457 L117.003833,24.5551395 L115.230179,24.5551395 L115.241567,24.721273 C115.294266,25.5037083 115.316149,26.3819383 115.316149,27.567426 L115.297839,34.0243034 L117.274247,34.0243034 L117.274247,28.9869297 C117.274247,28.7127201 117.293004,28.4534714 117.328731,28.2207952 C117.551583,27.010968 118.368182,26.2289793 119.408303,26.2289793 C119.610611,26.2289793 119.769822,26.2455034 119.938635,26.2620274 L120.150098,26.2839106 L120.150098,24.4388014 Z" id="Fill-20" fill="#FFFFFF"></path>
                <path d="M124.462112,25.8320006 C125.063899,25.8320006 125.552475,26.0182309 125.9131,26.3855557 C126.48184,26.9641202 126.581207,27.8164476 126.593935,28.2255291 L122.086,28.2255291 C122.269774,27.084031 122.983657,25.8320006 124.462112,25.8320006 M124.593857,24.3283137 C121.96274,24.3283137 120.124776,26.4306619 120.124776,29.4409387 C120.124776,32.3397899 121.953138,34.2132579 124.782991,34.2132579 C126.27127,34.2132579 127.306478,33.8865733 127.912285,33.6130336 L128.031303,33.5592189 L127.651473,32.0865703 L127.48668,32.153113 C126.948085,32.3721681 126.23197,32.5959124 125.010308,32.5959124 C124.151505,32.5959124 122.171077,32.3125476 122.049826,29.7301092 L128.429666,29.7493128 L128.455345,29.6231496 C128.495315,29.4221817 128.514519,29.1515448 128.514519,28.7980645 C128.514519,26.7361332 127.488019,24.3283137 124.593857,24.3283137" id="Fill-22" fill="#FFFFFF"></path>
                <path d="M56.4779765,17.5130657 C56.7021674,17.5496865 57.0284054,17.5496865 57.3751868,17.5496865 C59.2709846,17.5586185 60.3001638,16.5957586 60.3001638,14.9261614 C60.3104355,13.4492702 59.3931284,12.540895 57.5176507,12.540895 C57.0594438,12.540895 56.7124391,12.5779624 56.4779765,12.6235151 L56.4779765,17.5130657 Z M55.5807662,12.0364654 C56.1314184,11.9632237 56.7736227,11.9080692 57.4767872,11.9080692 C58.7511474,11.9080692 59.6581829,12.1650849 60.259747,12.6697378 C60.8814079,13.1739441 61.2382376,13.8985452 61.2382376,14.8986958 C61.2382376,15.9077783 60.8814079,16.7330867 60.2496986,17.3020494 C59.5972226,17.8799439 58.5370049,18.1918908 57.2016844,18.1918908 C56.5594801,18.1918908 56.039643,18.1735804 55.5807662,18.1184259 L55.5807662,12.0364654 Z" id="Fill-24" fill="#FFFFFF"></path>
                <path d="M64.4477854,17.6321281 C65.3039089,17.6321281 65.9463365,16.9075269 65.9463365,15.8982211 C65.9463365,15.1461544 65.5283231,14.2013816 64.4683287,14.2013816 C63.4181595,14.2013816 62.9595059,15.0820679 62.9595059,15.9259101 C62.9595059,16.8983717 63.5711184,17.6321281 64.4375137,17.6321281 L64.4477854,17.6321281 Z M64.4171936,18.2377115 C63.0919215,18.2377115 62.0524705,17.3572486 62.0524705,15.953599 C62.0524705,14.4675525 63.1430567,13.5960215 64.4986972,13.5960215 C65.9157447,13.5960215 66.8734687,14.5222605 66.8734687,15.8709788 C66.8734687,17.5222656 65.5995551,18.2377115 64.4276886,18.2377115 L64.4171936,18.2377115 Z" id="Fill-26" fill="#FFFFFF"></path>
                <path d="M68.2927044,13.6967287 L68.9552288,15.9444438 C69.0876444,16.4397182 69.2202833,16.9075269 69.3118353,17.3664038 L69.3424271,17.3664038 C69.4545226,16.9166821 69.6177532,16.4397182 69.7807606,15.953599 L70.5861955,13.6967287 L71.3404953,13.6967287 L72.1050667,15.9165315 C72.2883942,16.4397182 72.4310814,16.9166821 72.5431769,17.3664038 L72.5737687,17.3664038 C72.6552724,16.9166821 72.7881345,16.4488734 72.9509186,15.9259101 L73.6540831,13.6967287 L74.5410218,13.6967287 L72.9509186,18.136781 L72.1354352,18.136781 L71.3813588,16.0179087 C71.208303,15.5132558 71.0651692,15.0729127 70.9425787,14.5499494 L70.9224819,14.5499494 C70.8001147,15.0820679 70.6473791,15.5498767 70.4738768,16.0270639 L69.6789368,18.136781 L68.8636768,18.136781 L67.375174,13.6967287 L68.2927044,13.6967287 Z" id="Fill-28" fill="#FFFFFF"></path>
                <path d="M75.4386563,14.8986958 C75.4386563,14.4306637 75.4283846,14.0640089 75.3975696,13.6966841 L76.1929561,13.6966841 L76.2436447,14.4217318 L76.2641881,14.4217318 C76.5089224,14.0088543 77.0796714,13.5959768 77.8949315,13.5959768 C78.5779992,13.5959768 79.6379936,13.962855 79.6379936,15.4857456 L79.6379936,18.1367363 L78.7414532,18.1367363 L78.7414532,15.5772976 C78.7414532,14.8618517 78.4453604,14.2567148 77.5995085,14.2567148 C77.0184878,14.2567148 76.559611,14.6327482 76.3968269,15.0820232 C76.3559634,15.1829538 76.3356433,15.3296604 76.3356433,15.4582799 L76.3356433,18.1367363 L75.4386563,18.1367363 L75.4386563,14.8986958 Z" id="Fill-30" fill="#FFFFFF"></path>
                <polygon id="Fill-32" fill="#FFFFFF" points="81.0957706 18.1367363 81.9929809 18.1367363 81.9929809 11.6238112 81.0957706 11.6238112"></polygon>
                <path d="M85.5193211,17.6321281 C86.3756679,17.6321281 87.0180955,16.9075269 87.0180955,15.8982211 C87.0180955,15.1461544 86.6000821,14.2013816 85.5403111,14.2013816 C84.4901418,14.2013816 84.0312649,15.0820679 84.0312649,15.9259101 C84.0312649,16.8983717 84.6428775,17.6321281 85.509496,17.6321281 L85.5193211,17.6321281 Z M85.4891759,18.2377115 C84.1643504,18.2377115 83.1244528,17.3572486 83.1244528,15.953599 C83.1244528,14.4675525 84.2145924,13.5960215 85.5706796,13.5960215 C86.9872804,13.5960215 87.945451,14.5222605 87.945451,15.8709788 C87.945451,17.5222656 86.6713141,18.2377115 85.4992243,18.2377115 L85.4891759,18.2377115 Z" id="Fill-34" fill="#FFFFFF"></path>
                <path d="M91.6770242,15.8710458 C90.6983102,15.8527354 89.5874039,16.0085972 89.5874039,16.8709731 C89.5874039,17.4028683 89.9746022,17.6415736 90.4232074,17.6415736 C91.0754601,17.6415736 91.4934734,17.2744721 91.6357141,16.8984387 C91.6669758,16.8158185 91.6770242,16.7238199 91.6770242,16.641423 L91.6770242,15.8710458 Z M92.5532445,17.0728342 C92.5532445,17.4577995 92.5737879,17.8338329 92.6246998,18.1366247 L91.8192648,18.1366247 L91.7375378,17.5774871 L91.7076159,17.5774871 C91.4423382,17.9258316 90.9017344,18.2377785 90.1990164,18.2377785 C89.2002056,18.2377785 88.6904169,17.6049527 88.6904169,16.9625251 C88.6904169,15.8893562 89.750188,15.3020832 91.6560342,15.3112384 L91.6560342,15.2196863 C91.6560342,14.8528081 91.5443853,14.1831382 90.5353028,14.1922934 C90.065931,14.1922934 89.5874039,14.3113111 89.2408458,14.5223275 L89.0367517,13.981277 C89.4444934,13.7521736 90.0456109,13.5960884 90.6677184,13.5960884 C92.1863663,13.5960884 92.5532445,14.5223275 92.5532445,15.4123922 L92.5532445,17.0728342 Z" id="Fill-35" fill="#FFFFFF"></path>
                <path d="M97.3545478,15.504056 C97.3545478,15.3939702 97.3444994,15.265574 97.313461,15.1554882 C97.181492,14.6510586 96.6920234,14.2290259 96.0194506,14.2290259 C95.0916485,14.2290259 94.5409963,14.9627823 94.5409963,15.9354672 C94.5409963,16.8433958 95.0409599,17.5860841 95.9989072,17.5860841 C96.6004713,17.5860841 97.1509003,17.2194292 97.313461,16.6232242 C97.3444994,16.5133617 97.3545478,16.4028294 97.3545478,16.2746565 L97.3545478,15.504056 Z M98.2513115,11.6238112 L98.2513115,16.9898791 C98.2513115,17.3844462 98.2620298,17.8339446 98.292175,18.1367363 L97.4871866,18.1367363 L97.4465465,17.3663591 L97.4260031,17.3663591 C97.1509003,17.8616335 96.5593845,18.2376669 95.7543962,18.2376669 C94.5615397,18.2376669 93.6339609,17.3297383 93.6339609,15.9810199 C93.6236892,14.4947502 94.6535383,13.5959768 95.845725,13.5959768 C96.610743,13.5959768 97.1203085,13.9175255 97.334451,14.2656467 L97.3545478,14.2656467 L97.3545478,11.6238112 L98.2513115,11.6238112 Z" id="Fill-36" fill="#FFFFFF"></path>
                <path d="M103.939643,17.6321281 C104.795766,17.6321281 105.437747,16.9075269 105.437747,15.8982211 C105.437747,15.1461544 105.020404,14.2013816 103.960186,14.2013816 C102.910017,14.2013816 102.451587,15.0820679 102.451587,15.9259101 C102.451587,16.8983717 103.062976,17.6321281 103.929148,17.6321281 L103.939643,17.6321281 Z M103.908604,18.2377115 C102.583779,18.2377115 101.543881,17.3572486 101.543881,15.953599 C101.543881,14.4675525 102.635137,13.5960215 103.990331,13.5960215 C105.407602,13.5960215 106.365326,14.5222605 106.365326,15.8709788 C106.365326,17.5222656 105.090966,18.2377115 103.919546,18.2377115 L103.908604,18.2377115 Z" id="Fill-37" fill="#FFFFFF"></path>
                <path d="M107.49758,14.8986958 C107.49758,14.4306637 107.487085,14.0640089 107.456493,13.6966841 L108.251656,13.6966841 L108.303015,14.4217318 L108.323111,14.4217318 C108.567846,14.0088543 109.138371,13.5959768 109.953855,13.5959768 C110.636922,13.5959768 111.69714,13.962855 111.69714,15.4857456 L111.69714,18.1367363 L110.79993,18.1367363 L110.79993,15.5772976 C110.79993,14.8618517 110.50473,14.2567148 109.658209,14.2567148 C109.077634,14.2567148 108.618534,14.6327482 108.455304,15.0820232 C108.414663,15.1829538 108.394343,15.3296604 108.394343,15.4582799 L108.394343,18.1367363 L107.49758,18.1367363 L107.49758,14.8986958 Z" id="Fill-38" fill="#FFFFFF"></path>
                <path d="M116.396352,12.6330053 L116.396352,13.6967957 L117.680314,13.6967957 L117.680314,14.3113111 L116.396352,14.3113111 L116.396352,16.7057327 C116.396352,17.2559384 116.569854,17.5681086 117.069371,17.5681086 C117.313436,17.5681086 117.456569,17.5497982 117.589208,17.5129541 L117.629625,18.1274694 C117.456569,18.182624 117.181467,18.2377785 116.834685,18.2377785 C116.416895,18.2377785 116.080162,18.109159 115.86602,17.898366 C115.621285,17.6507288 115.519685,17.2559384 115.519685,16.7329751 L115.519685,14.3113111 L114.755113,14.3113111 L114.755113,13.6967957 L115.519685,13.6967957 L115.519685,12.8804192 L116.396352,12.6330053 Z" id="Fill-39" fill="#FFFFFF"></path>
                <path d="M118.689954,11.6238112 L119.586718,11.6238112 L119.586718,14.3940429 L119.607485,14.3940429 C119.749726,14.1647161 119.973916,13.9539231 120.249912,13.8253036 C120.514744,13.6788203 120.83004,13.5959768 121.16722,13.5959768 C121.829297,13.5959768 122.889515,13.962855 122.889515,15.4949008 L122.889515,18.1367363 L121.992751,18.1367363 L121.992751,15.5866761 C121.992751,14.8618517 121.697105,14.2656467 120.85103,14.2656467 C120.270009,14.2656467 119.821627,14.6327482 119.648125,15.072868 C119.59699,15.1829538 119.586718,15.3021948 119.586718,15.4582799 L119.586718,18.1367363 L118.689954,18.1367363 L118.689954,11.6238112 Z" id="Fill-40" fill="#FFFFFF"></path>
                <path d="M127.477055,15.476568 C127.486657,14.9719151 127.242369,14.1646938 126.243335,14.1646938 C125.325582,14.1646938 124.938383,14.9169839 124.867151,15.476568 L127.477055,15.476568 Z M124.85688,16.0544626 C124.877646,17.1461652 125.642218,17.5956636 126.538982,17.5956636 C127.180963,17.5956636 127.578656,17.4945097 127.90534,17.3752687 L128.068348,17.944008 C127.751712,18.0724042 127.201506,18.2284893 126.416838,18.2284893 C124.907792,18.2284893 123.990708,17.3201141 123.990708,15.9903761 C123.990708,14.6418811 124.877646,13.5867993 126.314344,13.5867993 C127.925437,13.5867993 128.342781,14.8618293 128.342781,15.6784292 C128.342781,15.8436695 128.333179,15.9720657 128.312636,16.0636178 L124.85688,16.0544626 Z" id="Fill-41" fill="#FFFFFF"></path>
            </g>
        </g>
    </g>
</svg>