<?xml version="1.0" encoding="UTF-8"?>
<svg width="187px" height="44px" viewBox="0 0 187 44" version="1.1" xmlns="http://www.w3.org/2000/svg" xmlns:xlink="http://www.w3.org/1999/xlink">
    <!-- Generator: Sketch 51.2 (57519) - http://www.bohemiancoding.com/sketch -->
    <title>Group 37</title>
    <desc>Created with Sketch.</desc>
    <defs></defs>
    <g id="Page-1" stroke="none" stroke-width="1" fill="none" fill-rule="evenodd">
        <g id="Desktop-HD-Copy-8" transform="translate(-1094.000000, -2647.000000)">
            <g id="Group-37" transform="translate(1094.000000, 2647.000000)">
                <path d="M66.8277029,23.3305161 C67.6235896,24.2215232 68.6990717,24.6665638 70.0535491,24.6665638 C71.2412293,24.6665638 72.2276129,24.3116424 73.0117998,23.6011823 C73.7962867,22.8916481 74.2468792,21.8984854 74.3662772,20.6223114 C74.4136764,20.1408528 74.437676,19.6834671 74.437676,19.2498457 C74.437676,18.8168416 74.4136764,18.3597645 74.3662772,17.8776886 C74.2468792,16.6499691 73.7899868,15.6694601 72.9944001,14.9346185 C72.1976134,14.2003941 71.2172297,13.8331276 70.0535491,13.8331276 C68.8418693,13.8331276 67.8434859,14.1942215 67.059599,14.9164095 C66.2754121,15.638906 65.8122198,16.7465695 65.6694222,18.2387826 C65.6454226,18.4798205 65.6340228,18.8168416 65.6340228,19.2498457 C65.6340228,21.0796971 66.0315161,22.4404349 66.8277029,23.3305161 Z M74.3662772,3.97495371 C74.3662772,3.71015146 74.4607757,3.48207587 74.6515725,3.28887517 C74.8411693,3.09660035 75.0667656,3 75.3283612,3 L78.037316,3 C78.2983117,3 78.5242079,3.09660035 78.7147048,3.28887517 C78.9046016,3.48207587 79,3.71015146 79,3.97495371 L79,27.6639523 C79,27.9290632 78.9046016,28.1574474 78.7147048,28.3497222 C78.5242079,28.5429229 78.2983117,28.638906 78.037316,28.638906 L75.3283612,28.638906 C75.0667656,28.638906 74.8411693,28.5429229 74.6515725,28.3497222 C74.4607757,28.1574474 74.3662772,27.9290632 74.3662772,27.6639523 L74.3662772,26.8334362 C73.8670855,27.4111866 73.177997,27.9167181 72.2987117,28.3497222 C71.4197263,28.783035 70.3145448,29 68.9837669,29 C67.4396927,29 66.0792153,28.6086606 64.9035349,27.8262903 C63.7269546,27.0442287 62.8059699,26.008784 62.140581,24.7208822 C61.4754921,23.433289 61.1070982,22.0305778 61.0359994,20.5136746 L61,19.2498457 L61.0359994,17.9860168 C61.1070982,16.4697308 61.4754921,15.0673282 62.140581,13.7791178 C62.8059699,12.4915246 63.7269546,11.45608 64.9035349,10.6734011 C66.0792153,9.8919567 67.4396927,9.5 68.9837669,9.5 C70.2905452,9.5 71.3840269,9.71665638 72.2636123,10.1499691 C73.1422976,10.5835905 73.8430859,11.0888134 74.3662772,11.6668724 L74.3662772,3.97495371 Z" id="Fill-1" fill="#F5EEFF"></path>
                <path d="M91.0770026,15.0664261 C90.280776,15.629663 89.8115604,16.5793172 89.6696557,17.9165915 C89.6456549,18.1511483 89.6333544,18.678901 89.6333544,19.4998496 C89.6333544,20.321099 89.6456549,20.8488517 89.6696557,21.0831078 C89.8115604,22.4203821 90.280776,23.3700362 91.0770026,23.9329725 C91.8729291,24.4962094 92.8416614,24.7776775 93.9822994,24.7776775 C95.1226374,24.7776775 96.0904697,24.4962094 96.8869962,23.9329725 C97.6832228,23.3700362 98.1527384,22.4203821 98.2952432,21.0831078 C98.3426448,20.614295 98.3666456,20.0865423 98.3666456,19.4998496 C98.3666456,18.9137584 98.3426448,18.3863064 98.2952432,17.9165915 C98.1527384,16.5793172 97.6832228,15.629663 96.8869962,15.0664261 C96.0904697,14.5034899 95.1226374,14.2220217 93.9822994,14.2220217 C92.8416614,14.2220217 91.8729291,14.5034899 91.0770026,15.0664261 M103,19.5350332 C103,20.1454822 102.975999,20.7312727 102.928898,21.2942089 C102.809494,22.7253059 102.370279,24.0270959 101.609754,25.1998797 C100.849228,26.3729642 99.8099937,27.2991627 98.4914497,27.9796781 C97.1720057,28.659592 95.6692556,29 93.9822994,29 C92.2950432,29 90.7922931,28.659592 89.4731491,27.9796781 C88.1543051,27.2991627 87.1144705,26.3729642 86.3548452,25.1998797 C85.5937198,24.0270959 85.1542051,22.7253059 85.0351012,21.2942089 C85.0114004,21.0127408 85,20.4269503 85,19.5350332 C85,18.6202618 85.0114004,18.022142 85.0351012,17.7406739 C85.1542051,16.2867227 85.5937198,14.9732048 86.3548452,13.7998196 C87.1144705,12.6273365 88.1543051,11.7008373 89.4731491,11.0203219 C90.7922931,10.340408 92.2950432,10 93.9822994,10 C95.6692556,10 97.1720057,10.340408 98.4914497,11.0203219 C99.8099937,11.7008373 100.849228,12.6273365 101.609754,13.7998196 C102.370279,14.9732048 102.809494,16.2867227 102.928898,17.7406739 C102.975999,18.3036101 103,18.9014292 103,19.5350332" id="Fill-3" fill="#F5EEFF"></path>
                <path d="M114.655416,23.1585334 C115.074949,23.5693117 115.80103,23.7745504 116.832446,23.7745504 L119.027954,23.7745504 C119.292094,23.7745504 119.519581,23.8687435 119.711628,24.056227 C119.903371,24.2446132 120,24.4673063 120,24.7255098 L120,27.0493416 C120,27.307846 119.903371,27.530539 119.711628,27.7180225 C119.519581,27.9064087 119.292094,28 119.027954,28 L116.365053,28 C114.085335,28 112.346012,27.4541012 111.14648,26.3623035 C109.946038,25.2708068 109.347181,23.6457496 109.347181,21.4859282 L109.347181,13.9155693 L106.971743,13.9155693 C106.7073,13.9155693 106.480116,13.821978 106.28807,13.6338927 C106.095417,13.4461083 106,13.2234153 106,12.9649108 L106,10.641079 C106,10.3828755 106.095417,10.1601825 106.28807,9.97179623 C106.480116,9.78431278 106.7073,9.69011965 106.971743,9.69011965 L109.347181,9.69011965 L109.347181,3.95065845 C109.347181,3.69245492 109.442598,3.47006284 109.63525,3.28167658 C109.826994,3.09419313 110.054178,3 110.31862,3 L113.053918,3 C113.317755,3 113.545242,3.09419313 113.737894,3.28167658 C113.929638,3.47006284 114.025661,3.69245492 114.025661,3.95065845 L114.025661,9.69011965 L118.668095,9.69011965 C118.931931,9.69011965 119.159721,9.78431278 119.352071,9.97179623 C119.543814,10.1601825 119.639534,10.3828755 119.639534,10.641079 L119.639534,12.9649108 C119.639534,13.2234153 119.543814,13.4461083 119.352071,13.6338927 C119.159721,13.821978 118.931931,13.9155693 118.668095,13.9155693 L114.025661,13.9155693 L114.025661,21.3799986 C114.025661,22.1549101 114.235579,22.747755 114.655416,23.1585334" id="Fill-5" fill="#F5EEFF"></path>
                <path d="M131.0063,14.9346185 C130.2098,15.6694601 129.7523,16.6499691 129.6338,17.8776886 C129.6101,18.1187266 129.5984,18.5761122 129.5984,19.2498457 C129.5984,19.9241964 129.6101,20.3815821 129.6338,20.6223114 C129.7523,21.8984854 130.2041,22.8916481 130.9883,23.6014909 C131.7725,24.3116424 132.7583,24.6665638 133.9466,24.6665638 C135.1583,24.6665638 136.1567,24.3054698 136.9406,23.5832819 C137.7248,22.861094 138.188,21.7540478 138.3308,20.2609088 C138.3779,19.7797588 138.4019,19.4430464 138.4019,19.2498457 C138.4019,17.4206116 137.9978,16.0601823 137.1902,15.1691753 C136.382,14.2790941 135.3011,13.8331276 133.9466,13.8331276 C132.7823,13.8331276 131.8019,14.2007027 131.0063,14.9346185 M143,19.2498457 C143,19.8519776 142.9877,20.2735625 142.9643,20.5136746 C142.8932,22.0305778 142.5245,23.433289 141.8597,24.7208822 C141.194,26.008784 140.2733,27.0442287 139.0973,27.8262903 C137.921,28.6086606 136.5602,29 135.0161,29 C133.685,29 132.5801,28.783035 131.7014,28.3497222 C130.8218,27.9167181 130.133,27.4111866 129.6338,26.8334362 L129.6338,27.6639523 C129.6338,27.9290632 129.5384,28.1574474 129.3485,28.3497222 C129.1586,28.5429229 128.9327,28.638906 128.6717,28.638906 L125.9627,28.638906 C125.7008,28.638906 125.4752,28.5429229 125.2856,28.3497222 C125.0951,28.1574474 125,27.9290632 125,27.6639523 L125,3.97495371 C125,3.71015146 125.0951,3.48207587 125.2856,3.28887517 C125.4752,3.09660035 125.7008,3 125.9627,3 L128.6717,3 C128.9327,3 129.1586,3.09660035 129.3485,3.28887517 C129.5384,3.48207587 129.6338,3.71015146 129.6338,3.97495371 L129.6338,11.6668724 C130.1561,11.0891221 130.8575,10.5835905 131.7368,10.1499691 C132.6158,9.71665638 133.709,9.50030863 135.0161,9.50030863 C136.5602,9.50030863 137.921,9.8919567 139.0973,10.6734011 C140.2733,11.45608 141.194,12.4915246 141.8597,13.7791178 C142.5245,15.0673282 142.8932,16.4697308 142.9643,17.9860168 C142.9877,18.2267461 143,18.6486397 143,19.2498457" id="Fill-7" fill="#F5EEFF"></path>
                <path d="M159.327473,20.4848533 L154.439863,21.3295717 C153.48152,21.4940648 152.780309,21.7343389 152.337438,22.0506948 C151.893962,22.3673515 151.672224,22.7958754 151.672224,23.3350638 C151.672224,23.8047862 151.91786,24.1620398 152.40883,24.4080276 C152.899799,24.6543161 153.517216,24.7776107 154.260477,24.7776107 C155.313807,24.7776107 156.224656,24.590263 156.991512,24.2146656 C157.758368,23.8399702 158.339484,23.3525055 158.734861,22.754677 C159.130238,22.1565478 159.327473,21.5178215 159.327473,20.8369947 L159.327473,20.4848533 Z M161.825578,11.8996391 C163.27489,13.1662657 164,14.9847108 164,17.3534709 L164,27.6981894 C164,27.9565066 163.903803,28.1790383 163.712316,28.366386 C163.520829,28.5546358 163.293041,28.6481593 163.029859,28.6481593 L160.298219,28.6481593 C160.034432,28.6481593 159.806947,28.5546358 159.615157,28.366386 C159.423368,28.1790383 159.327473,27.9565066 159.327473,27.6981894 L159.327473,26.5368143 C158.776305,27.28831 158.016104,27.8861385 157.045358,28.3312019 C156.074915,28.7765661 154.907237,29 153.541114,29 C151.528836,29 149.934925,28.4899813 148.760895,27.4696433 C147.586562,26.4490045 147,25.1297521 147,23.5109841 C147,21.9397297 147.569016,20.6908455 148.707653,19.7637302 C149.844778,18.8372163 151.432639,18.1978886 153.46942,17.8463486 L159.327473,16.8608939 C159.327473,15.9698648 159.022243,15.3073818 158.411481,14.8728435 C157.800416,14.4392074 156.979109,14.2217879 155.949375,14.2217879 C155.397601,14.2217879 154.948378,14.2984711 154.601705,14.4509354 C154.254124,14.6033997 153.912896,14.8322465 153.577113,15.1368744 C153.218339,15.4655598 152.82266,15.6294514 152.390982,15.6294514 L149.048579,15.6294514 C148.808993,15.6294514 148.611154,15.5536703 148.455665,15.4009053 C148.299571,15.248441 148.233927,15.0662056 148.257825,14.8554019 C148.402121,14.1285651 148.779045,13.3896996 149.389807,12.6388054 C150.001174,11.8885126 150.863623,11.2609129 151.977757,10.7563072 C153.092194,10.2523029 154.415965,10 155.949375,10 C158.416926,10 160.375963,10.6330126 161.825578,11.8996391 Z" id="Fill-9" fill="#F5EEFF"></path>
                <path d="M173.692761,27.7180225 C173.487179,27.9064087 173.243719,28 172.962056,28 L170.038915,28 C169.756281,28 169.512497,27.9064087 169.307563,27.7180225 C169.102305,27.530539 169,27.307846 169,27.0493416 L169,3.95035751 C169,3.69245492 169.102305,3.47006284 169.307563,3.28167658 C169.512497,3.09419313 169.756281,3 170.038915,3 L172.962056,3 C173.243719,3 173.487179,3.09419313 173.692761,3.28167658 C173.897695,3.47006284 174,3.69245492 174,3.95035751 L174,27.0493416 C174,27.307846 173.897695,27.530539 173.692761,27.7180225" id="Fill-11" fill="#F5EEFF"></path>
                <path d="M184.692153,27.7180225 C184.486598,27.9064087 184.24317,28 183.96122,28 L181.038457,28 C180.755859,28 180.513078,27.9064087 180.307847,27.7180225 C180.101968,27.530539 180,27.307846 180,27.0493416 L180,3.95035751 C180,3.69245492 180.101968,3.47006284 180.307847,3.28167658 C180.513078,3.09419313 180.755859,3 181.038457,3 L183.96122,3 C184.24317,3 184.486598,3.09419313 184.692153,3.28167658 C184.897061,3.47006284 185,3.69245492 185,3.95035751 L185,27.0493416 C185,27.307846 184.897061,27.530539 184.692153,27.7180225" id="Fill-13" fill="#F5EEFF"></path>
                <path d="M63.276,43 C63.2026663,43 63.1440002,42.9780002 63.1,42.934 C63.0559998,42.8899998 63.034,42.8313337 63.034,42.758 L63.034,35.553 C63.034,35.4796663 63.0559998,35.4191669 63.1,35.3715 C63.1440002,35.3238331 63.2026663,35.3 63.276,35.3 L67.566,35.3 C67.6466671,35.3 67.7089998,35.3219998 67.753,35.366 C67.7970002,35.4100002 67.819,35.4723329 67.819,35.553 L67.819,35.718 C67.819,35.7913337 67.7951669,35.8499998 67.7475,35.894 C67.6998331,35.9380002 67.6393337,35.96 67.566,35.96 L63.727,35.96 L63.727,38.765 L67.324,38.765 C67.4046671,38.765 67.4669998,38.7869998 67.511,38.831 C67.5550002,38.8750002 67.577,38.9373329 67.577,39.018 L67.577,39.183 C67.577,39.2563337 67.5531669,39.3149998 67.5055,39.359 C67.4578331,39.4030002 67.3973337,39.425 67.324,39.425 L63.727,39.425 L63.727,42.34 L67.654,42.34 C67.7346671,42.34 67.7969998,42.3619998 67.841,42.406 C67.8850002,42.4500002 67.907,42.5123329 67.907,42.593 L67.907,42.758 C67.907,42.8313337 67.8831669,42.8899998 67.8355,42.934 C67.7878331,42.9780002 67.7273337,43 67.654,43 L63.276,43 Z M72.577,43 C72.3936657,43 72.2690003,42.9120009 72.203,42.736 L69.651,35.641 L69.629,35.52 C69.629,35.461333 69.6509998,35.4100002 69.695,35.366 C69.7390002,35.3219998 69.790333,35.3 69.849,35.3 L70.08,35.3 C70.1460003,35.3 70.1991665,35.3183332 70.2395,35.355 C70.2798335,35.3916669 70.3073333,35.4283332 70.322,35.465 L72.731,42.197 L75.14,35.465 C75.1546667,35.4283332 75.1821665,35.3916669 75.2225,35.355 C75.2628335,35.3183332 75.3159997,35.3 75.382,35.3 L75.613,35.3 C75.671667,35.3 75.7229998,35.3219998 75.767,35.366 C75.8110002,35.4100002 75.833,35.461333 75.833,35.52 L75.811,35.641 L73.259,42.736 C73.1929997,42.9120009 73.0683342,43 72.885,43 L72.577,43 Z M78.336,43 C78.2626663,43 78.2040002,42.9780002 78.16,42.934 C78.1159998,42.8899998 78.094,42.8313337 78.094,42.758 L78.094,35.553 C78.094,35.4796663 78.1159998,35.4191669 78.16,35.3715 C78.2040002,35.3238331 78.2626663,35.3 78.336,35.3 L82.626,35.3 C82.7066671,35.3 82.7689998,35.3219998 82.813,35.366 C82.8570002,35.4100002 82.879,35.4723329 82.879,35.553 L82.879,35.718 C82.879,35.7913337 82.8551669,35.8499998 82.8075,35.894 C82.7598331,35.9380002 82.6993337,35.96 82.626,35.96 L78.787,35.96 L78.787,38.765 L82.384,38.765 C82.4646671,38.765 82.5269998,38.7869998 82.571,38.831 C82.6150002,38.8750002 82.637,38.9373329 82.637,39.018 L82.637,39.183 C82.637,39.2563337 82.6131669,39.3149998 82.5655,39.359 C82.5178331,39.4030002 82.4573337,39.425 82.384,39.425 L78.787,39.425 L78.787,42.34 L82.714,42.34 C82.7946671,42.34 82.8569998,42.3619998 82.901,42.406 C82.9450002,42.4500002 82.967,42.5123329 82.967,42.593 L82.967,42.758 C82.967,42.8313337 82.9431669,42.8899998 82.8955,42.934 C82.8478331,42.9780002 82.7873337,43 82.714,43 L78.336,43 Z M85.668,43 C85.5946663,43 85.5360002,42.9780002 85.492,42.934 C85.4479998,42.8899998 85.426,42.8313337 85.426,42.758 L85.426,35.553 C85.426,35.4796663 85.4479998,35.4191669 85.492,35.3715 C85.5360002,35.3238331 85.5946663,35.3 85.668,35.3 L88.231,35.3 C89.0230039,35.3 89.6426644,35.4869981 90.09,35.861 C90.5373355,36.2350019 90.761,36.788663 90.761,37.522 C90.761,38.1013362 90.6180014,38.5688316 90.332,38.9245 C90.0459985,39.2801684 89.635336,39.5203327 89.1,39.645 L90.871,42.659 C90.8930001,42.7030002 90.904,42.7433331 90.904,42.78 C90.904,42.838667 90.8820002,42.8899998 90.838,42.934 C90.7939998,42.9780002 90.7426669,43 90.684,43 L90.552,43 C90.4419994,43 90.3595003,42.9761669 90.3045,42.9285 C90.2494997,42.8808331 90.1926669,42.8056672 90.134,42.703 L88.385,39.744 L86.119,39.744 L86.119,42.758 C86.119,42.8313337 86.0951669,42.8899998 86.0475,42.934 C85.9998331,42.9780002 85.9393337,43 85.866,43 L85.668,43 Z M88.176,39.084 C88.8140032,39.084 89.2888318,38.9538346 89.6005,38.6935 C89.9121682,38.4331654 90.068,38.0426693 90.068,37.522 C90.068,37.0013307 89.9121682,36.6108346 89.6005,36.3505 C89.2888318,36.0901654 88.8140032,35.96 88.176,35.96 L86.119,35.96 L86.119,39.084 L88.176,39.084 Z M95.365,43 C95.2916663,43 95.2330002,42.9780002 95.189,42.934 C95.1449998,42.8899998 95.123,42.8313337 95.123,42.758 L95.123,40.063 L92.439,35.663 C92.4096665,35.604333 92.395,35.5566668 92.395,35.52 C92.395,35.461333 92.4169998,35.4100002 92.461,35.366 C92.5050002,35.3219998 92.556333,35.3 92.615,35.3 L92.835,35.3 C92.9376672,35.3 93.0219996,35.3549995 93.088,35.465 L95.475,39.348 L97.862,35.465 C97.9280003,35.3549995 98.0123328,35.3 98.115,35.3 L98.335,35.3 C98.3936669,35.3 98.4449998,35.3219998 98.489,35.366 C98.5330002,35.4100002 98.555,35.461333 98.555,35.52 C98.555,35.5566668 98.5403335,35.604333 98.511,35.663 L95.827,40.063 L95.827,42.758 C95.827,42.8313337 95.8031669,42.8899998 95.7555,42.934 C95.7078331,42.9780002 95.6473337,43 95.574,43 L95.365,43 Z M102.73,43 C102.656666,43 102.598,42.9780002 102.554,42.934 C102.51,42.8899998 102.488,42.8313337 102.488,42.758 L102.488,35.96 L100.31,35.96 C100.236666,35.96 100.178,35.9380002 100.134,35.894 C100.09,35.8499998 100.068,35.7913337 100.068,35.718 L100.068,35.553 C100.068,35.4796663 100.09,35.4191669 100.134,35.3715 C100.178,35.3238331 100.236666,35.3 100.31,35.3 L105.348,35.3 C105.428667,35.3 105.491,35.3219998 105.535,35.366 C105.579,35.4100002 105.601,35.4723329 105.601,35.553 L105.601,35.718 C105.601,35.7913337 105.577167,35.8499998 105.5295,35.894 C105.481833,35.9380002 105.421334,35.96 105.348,35.96 L103.181,35.96 L103.181,42.758 C103.181,42.8313337 103.157167,42.8899998 103.1095,42.934 C103.061833,42.9780002 103.001334,43 102.928,43 L102.73,43 Z M107.994,43 C107.920666,43 107.862,42.9780002 107.818,42.934 C107.774,42.8899998 107.752,42.8313337 107.752,42.758 L107.752,35.553 C107.752,35.4796663 107.774,35.4191669 107.818,35.3715 C107.862,35.3238331 107.920666,35.3 107.994,35.3 L108.192,35.3 C108.272667,35.3 108.335,35.3219998 108.379,35.366 C108.423,35.4100002 108.445,35.4723329 108.445,35.553 L108.445,38.765 L112.691,38.765 L112.691,35.553 C112.691,35.4796663 112.713,35.4191669 112.757,35.3715 C112.801,35.3238331 112.859666,35.3 112.933,35.3 L113.131,35.3 C113.211667,35.3 113.274,35.3219998 113.318,35.366 C113.362,35.4100002 113.384,35.4723329 113.384,35.553 L113.384,42.758 C113.384,42.8313337 113.360167,42.8899998 113.3125,42.934 C113.264833,42.9780002 113.204334,43 113.131,43 L112.933,43 C112.859666,43 112.801,42.9780002 112.757,42.934 C112.713,42.8899998 112.691,42.8313337 112.691,42.758 L112.691,39.425 L108.445,39.425 L108.445,42.758 C108.445,42.8313337 108.421167,42.8899998 108.3735,42.934 C108.325833,42.9780002 108.265334,43 108.192,43 L107.994,43 Z M116.514,43 C116.440666,43 116.382,42.9780002 116.338,42.934 C116.294,42.8899998 116.272,42.8313337 116.272,42.758 L116.272,35.542 C116.272,35.4686663 116.294,35.4100002 116.338,35.366 C116.382,35.3219998 116.440666,35.3 116.514,35.3 L116.723,35.3 C116.796334,35.3 116.855,35.3219998 116.899,35.366 C116.943,35.4100002 116.965,35.4686663 116.965,35.542 L116.965,42.758 C116.965,42.8313337 116.943,42.8899998 116.899,42.934 C116.855,42.9780002 116.796334,43 116.723,43 L116.514,43 Z M120.095,43 C120.021666,43 119.963,42.9780002 119.919,42.934 C119.875,42.8899998 119.853,42.8313337 119.853,42.758 L119.853,35.553 C119.853,35.4796663 119.875,35.4191669 119.919,35.3715 C119.963,35.3238331 120.021666,35.3 120.095,35.3 L120.326,35.3 C120.421334,35.3 120.498333,35.3439996 120.557,35.432 L124.616,41.636 L124.616,35.553 C124.616,35.4796663 124.638,35.4191669 124.682,35.3715 C124.726,35.3238331 124.784666,35.3 124.858,35.3 L125.056,35.3 C125.136667,35.3 125.199,35.3219998 125.243,35.366 C125.287,35.4100002 125.309,35.4723329 125.309,35.553 L125.309,42.747 C125.309,42.8203337 125.287,42.8808331 125.243,42.9285 C125.199,42.9761669 125.140334,43 125.067,43 L124.825,43 C124.729666,43 124.652667,42.9560004 124.594,42.868 L120.546,36.686 L120.546,42.758 C120.546,42.8313337 120.522167,42.8899998 120.4745,42.934 C120.426833,42.9780002 120.366334,43 120.293,43 L120.095,43 Z M130.837,43.11 C129.920329,43.11 129.209002,42.8460026 128.703,42.318 C128.196997,41.7899974 127.929333,41.0823378 127.9,40.195 C127.892667,39.9749989 127.889,39.6266691 127.889,39.15 C127.889,38.673331 127.892667,38.3250011 127.9,38.105 C127.929333,37.2176622 128.196997,36.5100026 128.703,35.982 C129.209002,35.4539974 129.920329,35.19 130.837,35.19 C131.460336,35.19 131.984664,35.3073322 132.41,35.542 C132.835335,35.7766678 133.152499,36.0534984 133.3615,36.3725 C133.570501,36.6915016 133.682333,36.9756654 133.697,37.225 L133.697,37.247 C133.697,37.305667 133.675,37.3533331 133.631,37.39 C133.587,37.4266669 133.532,37.445 133.466,37.445 L133.224,37.445 C133.158,37.445 133.110333,37.4303335 133.081,37.401 C133.051666,37.3716665 133.022333,37.3130004 132.993,37.225 C132.868333,36.8363314 132.628168,36.5100013 132.2725,36.246 C131.916831,35.9819987 131.438336,35.85 130.837,35.85 C130.154997,35.85 129.617835,36.0369981 129.2255,36.411 C128.833165,36.7850019 128.622333,37.367996 128.593,38.16 C128.585667,38.3800011 128.582,38.7099978 128.582,39.15 C128.582,39.5900022 128.585667,39.9199989 128.593,40.14 C128.622333,40.932004 128.833165,41.5149981 129.2255,41.889 C129.617835,42.2630019 130.154997,42.45 130.837,42.45 C131.519003,42.45 132.068998,42.2556686 132.487,41.867 C132.905002,41.4783314 133.114,40.9026705 133.114,40.14 L133.114,39.579 L131.2,39.579 C131.126666,39.579 131.068,39.5551669 131.024,39.5075 C130.98,39.4598331 130.958,39.3993337 130.958,39.326 L130.958,39.172 C130.958,39.0986663 130.98,39.0381669 131.024,38.9905 C131.068,38.9428331 131.126666,38.919 131.2,38.919 L133.554,38.919 C133.634667,38.919 133.697,38.9409998 133.741,38.985 C133.785,39.0290002 133.807,39.0913329 133.807,39.172 L133.807,40.14 C133.807,40.7266696 133.689668,41.2436644 133.455,41.691 C133.220332,42.1383356 132.879336,42.4866654 132.432,42.736 C131.984664,42.9853346 131.453003,43.11 130.837,43.11 Z M142.586,43.11 C141.632662,43.11 140.917669,42.8405027 140.441,42.3015 C139.964331,41.7624973 139.707667,41.0383379 139.671,40.129 C139.663667,39.930999 139.66,39.6083356 139.66,39.161 C139.66,38.7063311 139.663667,38.3763344 139.671,38.171 C139.707667,37.2616621 139.964331,36.5375027 140.441,35.9985 C140.917669,35.4594973 141.632662,35.19 142.586,35.19 C143.23867,35.19 143.781331,35.3091655 144.214,35.5475 C144.646669,35.7858345 144.967499,36.0864982 145.1765,36.4495 C145.385501,36.8125018 145.501,37.1846648 145.523,37.566 L145.523,37.588 C145.523,37.646667 145.501,37.6943331 145.457,37.731 C145.413,37.7676668 145.358,37.786 145.292,37.786 L145.072,37.786 C144.939999,37.786 144.859333,37.7090008 144.83,37.555 C144.690666,36.9316635 144.437668,36.491668 144.071,36.235 C143.704331,35.978332 143.209336,35.85 142.586,35.85 C141.896663,35.85 141.361335,36.0443314 140.98,36.433 C140.598665,36.8216686 140.393333,37.4193293 140.364,38.226 C140.356667,38.424001 140.353,38.7283313 140.353,39.139 C140.353,39.5496687 140.356667,39.8613323 140.364,40.074 C140.393333,40.8806707 140.598665,41.4783314 140.98,41.867 C141.361335,42.2556686 141.896663,42.45 142.586,42.45 C143.209336,42.45 143.704331,42.3216679 144.071,42.065 C144.437668,41.8083321 144.690666,41.3683365 144.83,40.745 C144.859333,40.5909992 144.939999,40.514 145.072,40.514 L145.292,40.514 C145.358,40.514 145.414833,40.5341665 145.4625,40.5745 C145.510167,40.6148335 145.530333,40.6679997 145.523,40.734 C145.501,41.1153352 145.385501,41.4874982 145.1765,41.8505 C144.967499,42.2135018 144.646669,42.5141655 144.214,42.7525 C143.781331,42.9908345 143.23867,43.11 142.586,43.11 Z M148.202,43 C148.128666,43 148.07,42.9780002 148.026,42.934 C147.982,42.8899998 147.96,42.8313337 147.96,42.758 L147.96,35.553 C147.96,35.4796663 147.982,35.4191669 148.026,35.3715 C148.07,35.3238331 148.128666,35.3 148.202,35.3 L150.765,35.3 C151.557004,35.3 152.176664,35.4869981 152.624,35.861 C153.071335,36.2350019 153.295,36.788663 153.295,37.522 C153.295,38.1013362 153.152001,38.5688316 152.866,38.9245 C152.579998,39.2801684 152.169336,39.5203327 151.634,39.645 L153.405,42.659 C153.427,42.7030002 153.438,42.7433331 153.438,42.78 C153.438,42.838667 153.416,42.8899998 153.372,42.934 C153.328,42.9780002 153.276667,43 153.218,43 L153.086,43 C152.975999,43 152.8935,42.9761669 152.8385,42.9285 C152.7835,42.8808331 152.726667,42.8056672 152.668,42.703 L150.919,39.744 L148.653,39.744 L148.653,42.758 C148.653,42.8313337 148.629167,42.8899998 148.5815,42.934 C148.533833,42.9780002 148.473334,43 148.4,43 L148.202,43 Z M150.71,39.084 C151.348003,39.084 151.822832,38.9538346 152.1345,38.6935 C152.446168,38.4331654 152.602,38.0426693 152.602,37.522 C152.602,37.0013307 152.446168,36.6108346 152.1345,36.3505 C151.822832,36.0901654 151.348003,35.96 150.71,35.96 L148.653,35.96 L148.653,39.084 L150.71,39.084 Z M156.062,43 C155.988666,43 155.93,42.9780002 155.886,42.934 C155.842,42.8899998 155.82,42.8313337 155.82,42.758 L155.82,35.542 C155.82,35.4686663 155.842,35.4100002 155.886,35.366 C155.93,35.3219998 155.988666,35.3 156.062,35.3 L156.271,35.3 C156.344334,35.3 156.403,35.3219998 156.447,35.366 C156.491,35.4100002 156.513,35.4686663 156.513,35.542 L156.513,42.758 C156.513,42.8313337 156.491,42.8899998 156.447,42.934 C156.403,42.9780002 156.344334,43 156.271,43 L156.062,43 Z M162.008,43.11 C161.054662,43.11 160.339669,42.8405027 159.863,42.3015 C159.386331,41.7624973 159.129667,41.0383379 159.093,40.129 C159.085667,39.930999 159.082,39.6083356 159.082,39.161 C159.082,38.7063311 159.085667,38.3763344 159.093,38.171 C159.129667,37.2616621 159.386331,36.5375027 159.863,35.9985 C160.339669,35.4594973 161.054662,35.19 162.008,35.19 C162.66067,35.19 163.203331,35.3091655 163.636,35.5475 C164.068669,35.7858345 164.389499,36.0864982 164.5985,36.4495 C164.807501,36.8125018 164.923,37.1846648 164.945,37.566 L164.945,37.588 C164.945,37.646667 164.923,37.6943331 164.879,37.731 C164.835,37.7676668 164.78,37.786 164.714,37.786 L164.494,37.786 C164.361999,37.786 164.281333,37.7090008 164.252,37.555 C164.112666,36.9316635 163.859668,36.491668 163.493,36.235 C163.126331,35.978332 162.631336,35.85 162.008,35.85 C161.318663,35.85 160.783335,36.0443314 160.402,36.433 C160.020665,36.8216686 159.815333,37.4193293 159.786,38.226 C159.778667,38.424001 159.775,38.7283313 159.775,39.139 C159.775,39.5496687 159.778667,39.8613323 159.786,40.074 C159.815333,40.8806707 160.020665,41.4783314 160.402,41.867 C160.783335,42.2556686 161.318663,42.45 162.008,42.45 C162.631336,42.45 163.126331,42.3216679 163.493,42.065 C163.859668,41.8083321 164.112666,41.3683365 164.252,40.745 C164.281333,40.5909992 164.361999,40.514 164.494,40.514 L164.714,40.514 C164.78,40.514 164.836833,40.5341665 164.8845,40.5745 C164.932167,40.6148335 164.952333,40.6679997 164.945,40.734 C164.923,41.1153352 164.807501,41.4874982 164.5985,41.8505 C164.389499,42.2135018 164.068669,42.5141655 163.636,42.7525 C163.203331,42.9908345 162.66067,43.11 162.008,43.11 Z M167.624,43 C167.550666,43 167.492,42.9780002 167.448,42.934 C167.404,42.8899998 167.382,42.8313337 167.382,42.758 L167.382,35.553 C167.382,35.4796663 167.404,35.4191669 167.448,35.3715 C167.492,35.3238331 167.550666,35.3 167.624,35.3 L167.822,35.3 C167.902667,35.3 167.965,35.3219998 168.009,35.366 C168.053,35.4100002 168.075,35.4723329 168.075,35.553 L168.075,38.413 L171.408,35.465 C171.466667,35.4209998 171.527166,35.3825002 171.5895,35.3495 C171.651834,35.3164998 171.730666,35.3 171.826,35.3 L172.002,35.3 C172.060667,35.3 172.112,35.3219998 172.156,35.366 C172.2,35.4100002 172.222,35.461333 172.222,35.52 C172.222,35.578667 172.203667,35.6263332 172.167,35.663 L168.438,38.985 L172.398,42.626 C172.442,42.6700002 172.464,42.721333 172.464,42.78 C172.464,42.838667 172.442,42.8899998 172.398,42.934 C172.354,42.9780002 172.302667,43 172.244,43 L172.057,43 C171.961666,43 171.882834,42.9835002 171.8205,42.9505 C171.758166,42.9174998 171.697667,42.8790002 171.639,42.835 L168.075,39.579 L168.075,42.758 C168.075,42.8313337 168.051167,42.8899998 168.0035,42.934 C167.955833,42.9780002 167.895334,43 167.822,43 L167.624,43 Z M174.769,43 C174.695666,43 174.637,42.9780002 174.593,42.934 C174.549,42.8899998 174.527,42.8313337 174.527,42.758 L174.527,35.553 C174.527,35.4796663 174.549,35.4191669 174.593,35.3715 C174.637,35.3238331 174.695666,35.3 174.769,35.3 L179.059,35.3 C179.139667,35.3 179.202,35.3219998 179.246,35.366 C179.29,35.4100002 179.312,35.4723329 179.312,35.553 L179.312,35.718 C179.312,35.7913337 179.288167,35.8499998 179.2405,35.894 C179.192833,35.9380002 179.132334,35.96 179.059,35.96 L175.22,35.96 L175.22,38.765 L178.817,38.765 C178.897667,38.765 178.96,38.7869998 179.004,38.831 C179.048,38.8750002 179.07,38.9373329 179.07,39.018 L179.07,39.183 C179.07,39.2563337 179.046167,39.3149998 178.9985,39.359 C178.950833,39.4030002 178.890334,39.425 178.817,39.425 L175.22,39.425 L175.22,42.34 L179.147,42.34 C179.227667,42.34 179.29,42.3619998 179.334,42.406 C179.378,42.4500002 179.4,42.5123329 179.4,42.593 L179.4,42.758 C179.4,42.8313337 179.376167,42.8899998 179.3285,42.934 C179.280833,42.9780002 179.220334,43 179.147,43 L174.769,43 Z M183.784,43 C183.710666,43 183.652,42.9780002 183.608,42.934 C183.564,42.8899998 183.542,42.8313337 183.542,42.758 L183.542,35.96 L181.364,35.96 C181.290666,35.96 181.232,35.9380002 181.188,35.894 C181.144,35.8499998 181.122,35.7913337 181.122,35.718 L181.122,35.553 C181.122,35.4796663 181.144,35.4191669 181.188,35.3715 C181.232,35.3238331 181.290666,35.3 181.364,35.3 L186.402,35.3 C186.482667,35.3 186.545,35.3219998 186.589,35.366 C186.633,35.4100002 186.655,35.4723329 186.655,35.553 L186.655,35.718 C186.655,35.7913337 186.631167,35.8499998 186.5835,35.894 C186.535833,35.9380002 186.475334,35.96 186.402,35.96 L184.235,35.96 L184.235,42.758 C184.235,42.8313337 184.211167,42.8899998 184.1635,42.934 C184.115833,42.9780002 184.055334,43 183.982,43 L183.784,43 Z" id="EVERYTHING-CRICKET" fill="#F5EEFF"></path>
                <path d="M5.33262084,27.8173877 C4.0454413,26.6645201 2.03585568,26.7403862 0.84454628,27.9866733 C-0.346455841,29.2332579 -0.268407715,31.1787034 1.01938637,32.332166 L8.66718095,39.1824309 C9.27804582,39.7295596 10.0514597,40 10.82303,40 C11.6775648,40 12.5293341,39.6682716 13.1555628,39.0131453 C14.3465649,37.7665607 14.2682095,35.8211153 12.9807227,34.6673551 L5.33262084,27.8173877 Z" id="Fill-33" fill="#038CFF"></path>
                <path d="M24.3297226,25.8713205 C25.04696,21.7871856 27.6076527,18.4965345 31,16.7033283 C28.5701567,15.4188439 25.714292,14.9009559 22.8003058,15.4167051 C20.3433797,15.8517921 18.1761482,16.9633417 16.4495444,18.5243385 L13.2285186,2.53275196 C12.8837456,0.822957767 11.2216536,-0.283397628 9.52243696,0.0636942607 C7.81956868,0.409563995 6.71860774,2.07566617 7.06307645,3.78484929 L12.3128769,29.8454616 C12.3356995,30.0125912 12.3585221,30.1800264 12.3880393,30.3474615 C13.619241,37.3574344 20.2767378,42.0379808 27.2580109,40.802077 C28.5999782,40.5643679 29.8549154,40.1237812 31,39.5200369 C26.1871757,36.982844 23.335267,31.5341736 24.3297226,25.8713205" id="Fill-34" fill="#038CFF"></path>
                <path d="M53.4778778,0.0638683827 C51.7765302,-0.283833104 50.1156546,0.823128659 49.7714901,2.53291558 L46.5504626,18.5244341 C44.8241623,16.9634439 42.6566254,15.8515935 40.2000024,15.4168139 C37.2860149,14.9010669 34.4301488,15.4186471 32,16.7034316 C35.3920447,18.4966302 37.9530429,21.7872673 38.670585,25.8713849 C39.6647368,31.5342138 36.8128266,36.9828611 32,39.5200432 C33.1453894,40.1237849 34.4003273,40.5643698 35.7419909,40.8020778 C42.7235717,42.0379763 49.3810717,37.3574499 50.6122741,30.3475068 C50.641487,30.1812945 50.6640053,30.0156933 50.6865235,29.8500921 L55.9369352,3.78500758 C56.281404,2.07522066 55.1801383,0.409125571 53.4778778,0.0638683827" id="Fill-35" fill="#FF0653"></path>
                <path d="M31.9997914,17 C28.5422978,18.8076114 25.9321956,22.124697 25.2008087,26.2416407 C24.187475,31.9499846 27.0944123,37.4424254 31.9997914,40 C36.9057909,37.4424254 39.8127282,31.9499846 38.7990843,26.2416407 C38.0680075,22.124697 35.4575952,18.8076114 31.9997914,17 Z" id="Fill-36" fill="#F5EEFF"></path>
            </g>
        </g>
    </g>
</svg>