<svg xmlns="http://www.w3.org/2000/svg" viewBox="0 0 638.01 169.21"><defs><style>.cls-1,.cls-2{fill:#f5eeff;}.cls-2{stroke:#f5eeff;stroke-miterlimit:10;stroke-width:0.8px;}.cls-3{fill:#038cff;}.cls-4{fill:#ff0653;}</style></defs><title>Asset 1</title><g id="Layer_2" data-name="Layer 2"><g id="Layer_1-2" data-name="Layer 1"><path class="cls-1" d="M244.53,52.87a3,3,0,0,1,.95-2.22,3.07,3.07,0,0,1,2.26-.94h9a3.07,3.07,0,0,1,2.25.94,3,3,0,0,1,1,2.22v76.75a3,3,0,0,1-1,2.23,3.1,3.1,0,0,1-2.25.93h-9a3.1,3.1,0,0,1-2.26-.93,3,3,0,0,1-.95-2.23v-2.69a21.44,21.44,0,0,1-6.89,4.92,25.62,25.62,0,0,1-11,2.1,24.44,24.44,0,0,1-13.6-3.8,26.54,26.54,0,0,1-9.21-10.06,32,32,0,0,1-3.69-13.63l-.11-4.1.11-4.09a31.93,31.93,0,0,1,3.69-13.63A26.57,26.57,0,0,1,213,74.57a24.52,24.52,0,0,1,13.6-3.8,25.15,25.15,0,0,1,10.93,2.11,23,23,0,0,1,7,4.91ZM219.4,115.58q4,4.33,10.75,4.33a14.37,14.37,0,0,0,9.86-3.45,14.07,14.07,0,0,0,4.52-9.65,41.28,41.28,0,0,0,0-8.89,13.9,13.9,0,0,0-14.38-13.11,14.41,14.41,0,0,0-10,3.51q-3.91,3.51-4.63,10.77-.12,1.17-.12,3.27Q215.42,111.26,219.4,115.58Z"/><path class="cls-1" d="M336,102.48q0,3-.24,5.85a27.65,27.65,0,0,1-4.39,13,26.66,26.66,0,0,1-10.4,9.24,35,35,0,0,1-30.06,0,26.63,26.63,0,0,1-10.39-9.24,27.66,27.66,0,0,1-4.4-13q-.12-1.41-.12-5.85t.12-6a27.82,27.82,0,0,1,4.4-13.1,26.74,26.74,0,0,1,10.39-9.25,35,35,0,0,1,30.06,0,26.77,26.77,0,0,1,10.4,9.25,27.8,27.8,0,0,1,4.39,13.1Q336,99.32,336,102.48ZM296.27,87.62q-4,2.8-4.69,9.48c-.08.78-.12,2.53-.12,5.26s0,4.49.12,5.27q.71,6.66,4.69,9.47a18.1,18.1,0,0,0,19.37,0q4-2.8,4.69-9.47a57.87,57.87,0,0,0,0-10.53q-.72-6.67-4.69-9.48a18.1,18.1,0,0,0-19.37,0Z"/><path class="cls-1" d="M374,116.7q2.07,2,7.19,2h7.24a3.07,3.07,0,0,1,2.26.94,3,3,0,0,1,.95,2.22v7.72a3,3,0,0,1-.95,2.23,3.1,3.1,0,0,1-2.26.93h-8.79q-11.28,0-17.22-5.44t-5.94-16.2V86H348.6a3.07,3.07,0,0,1-2.25-.94,3,3,0,0,1-1-2.22V75.1a3,3,0,0,1,1-2.22,3.07,3.07,0,0,1,2.25-.94h7.85V52.87a3,3,0,0,1,.95-2.22,3.07,3.07,0,0,1,2.25-.94h9a3.09,3.09,0,0,1,2.26.94,3,3,0,0,1,.95,2.22V71.94h15.33a3.07,3.07,0,0,1,2.25.94,3,3,0,0,1,.95,2.22v7.72a3,3,0,0,1-.95,2.22,3.07,3.07,0,0,1-2.25.94H371.89v24.81A7.93,7.93,0,0,0,374,116.7Z"/><path class="cls-1" d="M465.63,102.36c0,2,0,3.32-.12,4.1a31.82,31.82,0,0,1-3.68,13.63,26.7,26.7,0,0,1-9.21,10.06A24.44,24.44,0,0,1,439,134a25.59,25.59,0,0,1-11-2.1,21.44,21.44,0,0,1-6.89-4.92v2.69a3,3,0,0,1-.95,2.23,3.14,3.14,0,0,1-2.26.93h-9a3.14,3.14,0,0,1-2.26-.93,3,3,0,0,1-.95-2.23V52.87a3,3,0,0,1,.95-2.22,3.11,3.11,0,0,1,2.26-.94h9a3.11,3.11,0,0,1,2.26.94,3,3,0,0,1,.95,2.22V77.79a23,23,0,0,1,7-4.91A25.12,25.12,0,0,1,439,70.77a24.52,24.52,0,0,1,13.6,3.8,26.73,26.73,0,0,1,9.21,10.07,31.78,31.78,0,0,1,3.68,13.63C465.59,99.05,465.63,100.41,465.63,102.36Zm-40-14a14.16,14.16,0,0,0-4.57,9.54q-.12,1.17-.12,4.44c0,2.19,0,3.67.12,4.45a14.07,14.07,0,0,0,4.51,9.65,15.88,15.88,0,0,0,19.84-.06q3.93-3.51,4.64-10.76c.16-1.56.23-2.65.23-3.28q0-8.89-4-13.22a15.47,15.47,0,0,0-20.62-.76Z"/><path class="cls-1" d="M526.4,77.09q7.19,6.31,7.19,18.13v34.4a3,3,0,0,1-1,2.23,3.14,3.14,0,0,1-2.26.93h-9a3.14,3.14,0,0,1-2.26-.93,3,3,0,0,1-1-2.23v-3.86a18.83,18.83,0,0,1-7.54,6A27.5,27.5,0,0,1,499,134q-10,0-15.81-5.09a16.67,16.67,0,0,1-5.82-13.16A15.26,15.26,0,0,1,483,103.24q5.64-4.62,15.74-6.38l19.36-3.27q0-4.45-3-6.61A13.67,13.67,0,0,0,507,84.81a11.07,11.07,0,0,0-4.46.76,12.78,12.78,0,0,0-3.39,2.28,5.62,5.62,0,0,1-3.92,1.64h-11a2.68,2.68,0,0,1-2-.76,2.11,2.11,0,0,1-.65-1.81,17.14,17.14,0,0,1,3.74-7.37,22.87,22.87,0,0,1,8.56-6.26A31.42,31.42,0,0,1,507,70.77Q519.2,70.77,526.4,77.09Zm-8.26,28.55L502,108.45a17.16,17.16,0,0,0-6.95,2.39,5,5,0,0,0-2.2,4.27,3.85,3.85,0,0,0,2.43,3.57,13.53,13.53,0,0,0,6.12,1.23,20.19,20.19,0,0,0,9-1.87,14.15,14.15,0,0,0,5.76-4.85,11.4,11.4,0,0,0,2-6.38Z"/><path class="cls-1" d="M566.26,131.85a3.1,3.1,0,0,1-2.25.93h-9a3.1,3.1,0,0,1-2.26-.93,3,3,0,0,1-1-2.23V52.87a3,3,0,0,1,1-2.22,3.07,3.07,0,0,1,2.26-.94h9a3.07,3.07,0,0,1,2.25.94,3,3,0,0,1,1,2.22v76.75A3,3,0,0,1,566.26,131.85Z"/><path class="cls-1" d="M600.48,131.85a3.14,3.14,0,0,1-2.26.93h-9a3.14,3.14,0,0,1-2.26-.93,3,3,0,0,1-.95-2.23V52.87a3,3,0,0,1,.95-2.22,3.11,3.11,0,0,1,2.26-.94h9a3.11,3.11,0,0,1,2.26.94,3,3,0,0,1,.95,2.22v76.75A3,3,0,0,1,600.48,131.85Z"/><path class="cls-2" d="M206,168.52a.4.4,0,0,1-.11-.29V156.44a.44.44,0,0,1,.11-.3.42.42,0,0,1,.29-.11h7.13a.41.41,0,0,1,.31.1.41.41,0,0,1,.11.31v.27a.37.37,0,0,1-.12.29.44.44,0,0,1-.3.11H207v4.59h6a.43.43,0,0,1,.31.1.45.45,0,0,1,.11.31v.27a.37.37,0,0,1-.12.29.44.44,0,0,1-.3.11h-6v4.77h6.53a.43.43,0,0,1,.31.1.45.45,0,0,1,.11.31v.27a.37.37,0,0,1-.12.29.44.44,0,0,1-.3.11h-7.28A.42.42,0,0,1,206,168.52Z"/><path class="cls-2" d="M232.53,168.19l-4.24-11.61,0-.19a.38.38,0,0,1,.11-.26.35.35,0,0,1,.26-.1H229a.4.4,0,0,1,.27.09.51.51,0,0,1,.13.18l4,11,4-11a.44.44,0,0,1,.14-.18.36.36,0,0,1,.26-.09h.38a.35.35,0,0,1,.26.1.38.38,0,0,1,.11.26l0,.19-4.24,11.61a.61.61,0,0,1-.62.44h-.51A.61.61,0,0,1,232.53,168.19Z"/><path class="cls-2" d="M253.86,168.52a.4.4,0,0,1-.11-.29V156.44a.44.44,0,0,1,.11-.3.4.4,0,0,1,.29-.11h7.13a.43.43,0,0,1,.31.1.45.45,0,0,1,.11.31v.27a.37.37,0,0,1-.12.29.44.44,0,0,1-.3.11H254.9v4.59h6a.43.43,0,0,1,.31.1.45.45,0,0,1,.11.31v.27a.37.37,0,0,1-.12.29.44.44,0,0,1-.3.11h-6v4.77h6.53a.45.45,0,0,1,.31.1.45.45,0,0,1,.11.31v.27a.37.37,0,0,1-.12.29.44.44,0,0,1-.3.11h-7.28A.4.4,0,0,1,253.86,168.52Z"/><path class="cls-2" d="M277.47,168.52a.4.4,0,0,1-.11-.29V156.44a.44.44,0,0,1,.11-.3.42.42,0,0,1,.3-.11H282a4.72,4.72,0,0,1,3.09.91,3.31,3.31,0,0,1,1.12,2.72,3.55,3.55,0,0,1-.71,2.3,3.64,3.64,0,0,1-2,1.18l2.94,4.93a.41.41,0,0,1,.06.2.36.36,0,0,1-.11.25.38.38,0,0,1-.26.11h-.22a.61.61,0,0,1-.41-.12,1.31,1.31,0,0,1-.28-.37l-2.91-4.84h-3.77v4.93a.36.36,0,0,1-.11.29.45.45,0,0,1-.31.11h-.32A.42.42,0,0,1,277.47,168.52Zm4.46-6.3a3.66,3.66,0,0,0,2.37-.64,2.35,2.35,0,0,0,.78-1.92,2.31,2.31,0,0,0-.78-1.91,3.66,3.66,0,0,0-2.37-.64h-3.42v5.11Z"/><path class="cls-2" d="M305,168.52a.4.4,0,0,1-.11-.29v-4.41l-4.46-7.2a.53.53,0,0,1-.07-.23.34.34,0,0,1,.11-.26.33.33,0,0,1,.25-.1h.37a.48.48,0,0,1,.42.27l4,6.35,4-6.35a.48.48,0,0,1,.42-.27h.37a.35.35,0,0,1,.25.1.34.34,0,0,1,.11.26.53.53,0,0,1-.07.23l-4.46,7.2v4.41a.37.37,0,0,1-.12.29.44.44,0,0,1-.3.11h-.35A.4.4,0,0,1,305,168.52Z"/><path class="cls-2" d="M328.69,168.52a.36.36,0,0,1-.11-.29V157.11H325a.4.4,0,0,1-.29-.11.36.36,0,0,1-.11-.29v-.27a.38.38,0,0,1,.4-.41h8.37a.43.43,0,0,1,.31.1.45.45,0,0,1,.11.31v.27a.37.37,0,0,1-.12.29.44.44,0,0,1-.3.11h-3.6v11.12a.37.37,0,0,1-.12.29.44.44,0,0,1-.3.11H329A.4.4,0,0,1,328.69,168.52Z"/><path class="cls-2" d="M348.87,168.52a.36.36,0,0,1-.11-.29V156.44a.38.38,0,0,1,.4-.41h.33a.45.45,0,0,1,.31.1.45.45,0,0,1,.11.31v5.26h7v-5.26a.44.44,0,0,1,.11-.3.42.42,0,0,1,.3-.11h.32a.46.46,0,0,1,.32.1.45.45,0,0,1,.1.31v11.79a.4.4,0,0,1-.11.29.45.45,0,0,1-.31.11h-.32a.42.42,0,0,1-.3-.11.4.4,0,0,1-.11-.29v-5.45h-7v5.45a.37.37,0,0,1-.12.29.44.44,0,0,1-.3.11h-.33A.4.4,0,0,1,348.87,168.52Z"/><path class="cls-2" d="M374.46,168.52a.37.37,0,0,1-.12-.29V156.42a.38.38,0,0,1,.12-.29.39.39,0,0,1,.29-.1h.34a.37.37,0,0,1,.41.39v11.81a.4.4,0,0,1-.11.29.42.42,0,0,1-.3.11h-.34A.4.4,0,0,1,374.46,168.52Z"/><path class="cls-2" d="M391.84,168.52a.36.36,0,0,1-.11-.29V156.44a.38.38,0,0,1,.4-.41h.38a.46.46,0,0,1,.39.21l6.74,10.15v-9.95a.44.44,0,0,1,.11-.3A.4.4,0,0,1,400,156h.33a.41.41,0,0,1,.31.1.41.41,0,0,1,.11.31v11.77a.4.4,0,0,1-.11.3.37.37,0,0,1-.29.12H400a.47.47,0,0,1-.39-.22l-6.72-10.12v9.94a.37.37,0,0,1-.12.29.44.44,0,0,1-.3.11h-.33A.4.4,0,0,1,391.84,168.52Z"/><path class="cls-2" d="M417.86,167.51a5,5,0,0,1-1.33-3.47c0-.36,0-.93,0-1.71s0-1.35,0-1.71a5,5,0,0,1,1.33-3.48,4.76,4.76,0,0,1,3.55-1.29,5.42,5.42,0,0,1,2.61.57,4.43,4.43,0,0,1,1.59,1.36,2.94,2.94,0,0,1,.55,1.4v0a.28.28,0,0,1-.11.24.4.4,0,0,1-.27.09h-.4a.33.33,0,0,1-.24-.08.69.69,0,0,1-.15-.28,3.17,3.17,0,0,0-1.19-1.61,4,4,0,0,0-2.39-.64,3.77,3.77,0,0,0-2.68.91,4,4,0,0,0-1.05,2.87c0,.36,0,.9,0,1.62s0,1.26,0,1.62a4,4,0,0,0,1.05,2.86,3.77,3.77,0,0,0,2.68.92,3.88,3.88,0,0,0,2.74-1,3.61,3.61,0,0,0,1-2.82V163H422a.37.37,0,0,1-.29-.12.44.44,0,0,1-.11-.3v-.25a.4.4,0,0,1,.11-.29A.37.37,0,0,1,422,162h3.91a.42.42,0,0,1,.32.11.41.41,0,0,1,.11.3V164a5.28,5.28,0,0,1-.59,2.53,4.06,4.06,0,0,1-1.7,1.71,5.41,5.41,0,0,1-2.65.62A4.77,4.77,0,0,1,417.86,167.51Z"/><path class="cls-2" d="M460.23,167.48a5.46,5.46,0,0,1-1.28-3.55c0-.33,0-.85,0-1.59s0-1.28,0-1.62a5.48,5.48,0,0,1,1.28-3.55,4.55,4.55,0,0,1,3.57-1.32,5.62,5.62,0,0,1,2.7.58,4,4,0,0,1,1.6,1.48,4,4,0,0,1,.58,1.82v0a.28.28,0,0,1-.11.23.45.45,0,0,1-.28.09h-.36a.39.39,0,0,1-.41-.37,3.39,3.39,0,0,0-1.26-2.16,4.27,4.27,0,0,0-2.46-.63,3.57,3.57,0,0,0-2.67.95,4.21,4.21,0,0,0-1,2.93c0,.33,0,.83,0,1.5s0,1.18,0,1.53a4.19,4.19,0,0,0,1,2.93,3.58,3.58,0,0,0,2.67,1,4.27,4.27,0,0,0,2.46-.63,3.39,3.39,0,0,0,1.26-2.16c.05-.26.19-.38.41-.38h.36a.43.43,0,0,1,.29.1.3.3,0,0,1,.1.26,4.13,4.13,0,0,1-.58,1.83,4,4,0,0,1-1.6,1.47,5.62,5.62,0,0,1-2.7.59A4.52,4.52,0,0,1,460.23,167.48Z"/><path class="cls-2" d="M484.27,168.52a.36.36,0,0,1-.11-.29V156.44a.38.38,0,0,1,.4-.41h4.26a4.76,4.76,0,0,1,3.09.91,3.34,3.34,0,0,1,1.11,2.72,3.55,3.55,0,0,1-.71,2.3,3.64,3.64,0,0,1-2.05,1.18l2.94,4.93a.41.41,0,0,1,.06.2.36.36,0,0,1-.11.25.36.36,0,0,1-.26.11h-.22a.61.61,0,0,1-.41-.12,1.53,1.53,0,0,1-.28-.37l-2.91-4.84h-3.76v4.93a.37.37,0,0,1-.12.29.44.44,0,0,1-.3.11h-.33A.4.4,0,0,1,484.27,168.52Zm4.46-6.3a3.62,3.62,0,0,0,2.36-.64,2.35,2.35,0,0,0,.78-1.92,2.31,2.31,0,0,0-.78-1.91,3.62,3.62,0,0,0-2.36-.64h-3.42v5.11Z"/><path class="cls-2" d="M508.76,168.52a.4.4,0,0,1-.11-.29V156.42a.42.42,0,0,1,.11-.29.39.39,0,0,1,.29-.1h.35a.39.39,0,0,1,.29.1.42.42,0,0,1,.11.29v11.81a.38.38,0,0,1-.4.4h-.35A.4.4,0,0,1,508.76,168.52Z"/><path class="cls-2" d="M526.8,167.48a5.46,5.46,0,0,1-1.28-3.55c0-.33,0-.85,0-1.59s0-1.28,0-1.62a5.48,5.48,0,0,1,1.28-3.55,4.55,4.55,0,0,1,3.56-1.32,5.64,5.64,0,0,1,2.71.58,4,4,0,0,1,1.6,1.48,4,4,0,0,1,.57,1.82v0a.26.26,0,0,1-.11.23.4.4,0,0,1-.27.09h-.37c-.22,0-.35-.12-.4-.37a3.39,3.39,0,0,0-1.26-2.16,4.28,4.28,0,0,0-2.47-.63,3.6,3.6,0,0,0-2.67.95,4.26,4.26,0,0,0-1,2.93c0,.33,0,.83,0,1.5s0,1.18,0,1.53a4.24,4.24,0,0,0,1,2.93,3.61,3.61,0,0,0,2.67,1,4.28,4.28,0,0,0,2.47-.63,3.39,3.39,0,0,0,1.26-2.16c0-.26.18-.38.4-.38h.37a.4.4,0,0,1,.28.1.25.25,0,0,1,.1.26,4.11,4.11,0,0,1-.57,1.83,4,4,0,0,1-1.6,1.47,5.63,5.63,0,0,1-2.71.59A4.52,4.52,0,0,1,526.8,167.48Z"/><path class="cls-2" d="M550.83,168.52a.4.4,0,0,1-.11-.29V156.44a.44.44,0,0,1,.11-.3.42.42,0,0,1,.3-.11h.33a.45.45,0,0,1,.31.1.45.45,0,0,1,.11.31v4.68l5.53-4.82a1.66,1.66,0,0,1,.3-.19.82.82,0,0,1,.4-.08h.29a.37.37,0,0,1,.26.1.38.38,0,0,1,.11.26.29.29,0,0,1-.1.23l-6.19,5.44,6.58,5.95a.38.38,0,0,1,.11.26.36.36,0,0,1-.11.25.36.36,0,0,1-.26.11h-.31a.87.87,0,0,1-.39-.08,3,3,0,0,1-.3-.19L551.88,163v5.2a.37.37,0,0,1-.12.29.44.44,0,0,1-.3.11h-.33A.42.42,0,0,1,550.83,168.52Z"/><path class="cls-2" d="M574.14,168.52a.36.36,0,0,1-.11-.29V156.44a.38.38,0,0,1,.4-.41h7.13a.43.43,0,0,1,.31.1.45.45,0,0,1,.11.31v.27a.37.37,0,0,1-.12.29.44.44,0,0,1-.3.11h-6.38v4.59h6a.45.45,0,0,1,.31.1.45.45,0,0,1,.11.31v.27a.37.37,0,0,1-.12.29.44.44,0,0,1-.3.11h-6v4.77h6.52a.38.38,0,0,1,.43.41v.27a.37.37,0,0,1-.12.29.45.45,0,0,1-.31.11h-7.27A.4.4,0,0,1,574.14,168.52Z"/><path class="cls-2" d="M600.55,168.52a.4.4,0,0,1-.11-.29V157.11h-3.62a.38.38,0,0,1-.4-.4v-.27a.44.44,0,0,1,.11-.3.4.4,0,0,1,.29-.11h8.37a.41.41,0,0,1,.31.1.41.41,0,0,1,.11.31v.27a.37.37,0,0,1-.12.29.44.44,0,0,1-.3.11h-3.6v11.12a.37.37,0,0,1-.12.29.44.44,0,0,1-.3.11h-.33A.4.4,0,0,1,600.55,168.52Z"/><path class="cls-3" d="M17.35,91.28a10.33,10.33,0,1,0-14,15.17l24.89,23a10.34,10.34,0,0,0,14-15.18Z"/><path class="cls-3" d="M80.72,84.67a42.11,42.11,0,0,1,21.92-30,42.14,42.14,0,0,0-47.81,6L44.24,8.29A10.34,10.34,0,0,0,24,12.39L41.23,97.68c.08.55.15,1.1.25,1.64a42.2,42.2,0,0,0,61.16,30A42.21,42.21,0,0,1,80.72,84.67Z"/><path class="cls-4" d="M173.22.21A10.33,10.33,0,0,0,161,8.29L150.46,60.63a42.16,42.16,0,0,0-47.82-6,42.18,42.18,0,0,1,0,74.68,42.22,42.22,0,0,0,61.17-30q.13-.81.24-1.62L181.3,12.39A10.32,10.32,0,0,0,173.22.21Z"/><path class="cls-1" d="M124.56,84.67a42.08,42.08,0,0,0-21.92-30,42.18,42.18,0,0,0,0,74.68A42.2,42.2,0,0,0,124.56,84.67Z"/><path class="cls-1" d="M612.94,25.52a21.07,21.07,0,0,1,3.89-.33c2.16,0,3.55.4,4.53,1.28a3.91,3.91,0,0,1,1.23,3,4.12,4.12,0,0,1-3,4v.07c1.2.42,1.93,1.53,2.3,3.16a24.08,24.08,0,0,0,1.21,4.3h-2.1a20.81,20.81,0,0,1-1-3.74c-.47-2.16-1.3-3-3.14-3H615V41h-2Zm2,7.13H617c2.17,0,3.54-1.18,3.54-3,0-2-1.47-2.91-3.61-2.93a8.49,8.49,0,0,0-2,.18Z"/><path class="cls-1" d="M618.51,52.28A19.5,19.5,0,1,1,638,32.78,19.53,19.53,0,0,1,618.51,52.28Zm0-38A18.5,18.5,0,1,0,637,32.78,18.52,18.52,0,0,0,618.51,14.28Z"/></g></g></svg>