<?xml version="1.0" encoding="UTF-8"?>
<svg width="187px" height="44px" viewBox="0 0 187 44" version="1.1" xmlns="http://www.w3.org/2000/svg" xmlns:xlink="http://www.w3.org/1999/xlink">
    <!-- Generator: Sketch 51.2 (57519) - http://www.bohemiancoding.com/sketch -->
    <title>Group 37</title>
    <desc>Created with Sketch.</desc>
    <defs></defs>
    <g id="Page-1" stroke="none" stroke-width="1" fill="none" fill-rule="evenodd">
        <g id="Desktop-HD" transform="translate(-1094.000000, -1899.000000)">
            <g id="Group-37" transform="translate(1094.000000, 1899.000000)">
                <path d="M66.8277029,23.3305161 C67.6235896,24.2215232 68.6990717,24.6665638 70.0535491,24.6665638 C71.2412293,24.6665638 72.2276129,24.3116424 73.0117998,23.6011823 C73.7962867,22.8916481 74.2468792,21.8984854 74.3662772,20.6223114 C74.4136764,20.1408528 74.437676,19.6834671 74.437676,19.2498457 C74.437676,18.8168416 74.4136764,18.3597645 74.3662772,17.8776886 C74.2468792,16.6499691 73.7899868,15.6694601 72.9944001,14.9346185 C72.1976134,14.2003941 71.2172297,13.8331276 70.0535491,13.8331276 C68.8418693,13.8331276 67.8434859,14.1942215 67.059599,14.9164095 C66.2754121,15.638906 65.8122198,16.7465695 65.6694222,18.2387826 C65.6454226,18.4798205 65.6340228,18.8168416 65.6340228,19.2498457 C65.6340228,21.0796971 66.0315161,22.4404349 66.8277029,23.3305161 Z M74.3662772,3.97495371 C74.3662772,3.71015146 74.4607757,3.48207587 74.6515725,3.28887517 C74.8411693,3.09660035 75.0667656,3 75.3283612,3 L78.037316,3 C78.2983117,3 78.5242079,3.09660035 78.7147048,3.28887517 C78.9046016,3.48207587 79,3.71015146 79,3.97495371 L79,27.6639523 C79,27.9290632 78.9046016,28.1574474 78.7147048,28.3497222 C78.5242079,28.5429229 78.2983117,28.638906 78.037316,28.638906 L75.3283612,28.638906 C75.0667656,28.638906 74.8411693,28.5429229 74.6515725,28.3497222 C74.4607757,28.1574474 74.3662772,27.9290632 74.3662772,27.6639523 L74.3662772,26.8334362 C73.8670855,27.4111866 73.177997,27.9167181 72.2987117,28.3497222 C71.4197263,28.783035 70.3145448,29 68.9837669,29 C67.4396927,29 66.0792153,28.6086606 64.9035349,27.8262903 C63.7269546,27.0442287 62.8059699,26.008784 62.140581,24.7208822 C61.4754921,23.433289 61.1070982,22.0305778 61.0359994,20.5136746 L61,19.2498457 L61.0359994,17.9860168 C61.1070982,16.4697308 61.4754921,15.0673282 62.140581,13.7791178 C62.8059699,12.4915246 63.7269546,11.45608 64.9035349,10.6734011 C66.0792153,9.8919567 67.4396927,9.5 68.9837669,9.5 C70.2905452,9.5 71.3840269,9.71665638 72.2636123,10.1499691 C73.1422976,10.5835905 73.8430859,11.0888134 74.3662772,11.6668724 L74.3662772,3.97495371 Z" id="Fill-1" fill="#F5EEFF"></path>
                <path d="M91.0770026,15.0664261 C90.280776,15.629663 89.8115604,16.5793172 89.6696557,17.9165915 C89.6456549,18.1511483 89.6333544,18.678901 89.6333544,19.4998496 C89.6333544,20.321099 89.6456549,20.8488517 89.6696557,21.0831078 C89.8115604,22.4203821 90.280776,23.3700362 91.0770026,23.9329725 C91.8729291,24.4962094 92.8416614,24.7776775 93.9822994,24.7776775 C95.1226374,24.7776775 96.0904697,24.4962094 96.8869962,23.9329725 C97.6832228,23.3700362 98.1527384,22.4203821 98.2952432,21.0831078 C98.3426448,20.614295 98.3666456,20.0865423 98.3666456,19.4998496 C98.3666456,18.9137584 98.3426448,18.3863064 98.2952432,17.9165915 C98.1527384,16.5793172 97.6832228,15.629663 96.8869962,15.0664261 C96.0904697,14.5034899 95.1226374,14.2220217 93.9822994,14.2220217 C92.8416614,14.2220217 91.8729291,14.5034899 91.0770026,15.0664261 M103,19.5350332 C103,20.1454822 102.975999,20.7312727 102.928898,21.2942089 C102.809494,22.7253059 102.370279,24.0270959 101.609754,25.1998797 C100.849228,26.3729642 99.8099937,27.2991627 98.4914497,27.9796781 C97.1720057,28.659592 95.6692556,29 93.9822994,29 C92.2950432,29 90.7922931,28.659592 89.4731491,27.9796781 C88.1543051,27.2991627 87.1144705,26.3729642 86.3548452,25.1998797 C85.5937198,24.0270959 85.1542051,22.7253059 85.0351012,21.2942089 C85.0114004,21.0127408 85,20.4269503 85,19.5350332 C85,18.6202618 85.0114004,18.022142 85.0351012,17.7406739 C85.1542051,16.2867227 85.5937198,14.9732048 86.3548452,13.7998196 C87.1144705,12.6273365 88.1543051,11.7008373 89.4731491,11.0203219 C90.7922931,10.340408 92.2950432,10 93.9822994,10 C95.6692556,10 97.1720057,10.340408 98.4914497,11.0203219 C99.8099937,11.7008373 100.849228,12.6273365 101.609754,13.7998196 C102.370279,14.9732048 102.809494,16.2867227 102.928898,17.7406739 C102.975999,18.3036101 103,18.9014292 103,19.5350332" id="Fill-3" fill="#F5EEFF"></path>
                <path d="M114.655416,23.1585334 C115.074949,23.5693117 115.80103,23.7745504 116.832446,23.7745504 L119.027954,23.7745504 C119.292094,23.7745504 119.519581,23.8687435 119.711628,24.056227 C119.903371,24.2446132 120,24.4673063 120,24.7255098 L120,27.0493416 C120,27.307846 119.903371,27.530539 119.711628,27.7180225 C119.519581,27.9064087 119.292094,28 119.027954,28 L116.365053,28 C114.085335,28 112.346012,27.4541012 111.14648,26.3623035 C109.946038,25.2708068 109.347181,23.6457496 109.347181,21.4859282 L109.347181,13.9155693 L106.971743,13.9155693 C106.7073,13.9155693 106.480116,13.821978 106.28807,13.6338927 C106.095417,13.4461083 106,13.2234153 106,12.9649108 L106,10.641079 C106,10.3828755 106.095417,10.1601825 106.28807,9.97179623 C106.480116,9.78431278 106.7073,9.69011965 106.971743,9.69011965 L109.347181,9.69011965 L109.347181,3.95065845 C109.347181,3.69245492 109.442598,3.47006284 109.63525,3.28167658 C109.826994,3.09419313 110.054178,3 110.31862,3 L113.053918,3 C113.317755,3 113.545242,3.09419313 113.737894,3.28167658 C113.929638,3.47006284 114.025661,3.69245492 114.025661,3.95065845 L114.025661,9.69011965 L118.668095,9.69011965 C118.931931,9.69011965 119.159721,9.78431278 119.352071,9.97179623 C119.543814,10.1601825 119.639534,10.3828755 119.639534,10.641079 L119.639534,12.9649108 C119.639534,13.2234153 119.543814,13.4461083 119.352071,13.6338927 C119.159721,13.821978 118.931931,13.9155693 118.668095,13.9155693 L114.025661,13.9155693 L114.025661,21.3799986 C114.025661,22.1549101 114.235579,22.747755 114.655416,23.1585334" id="Fill-5" fill="#F5EEFF"></path>
                <path d="M131.0063,14.9346185 C130.2098,15.6694601 129.7523,16.6499691 129.6338,17.8776886 C129.6101,18.1187266 129.5984,18.5761122 129.5984,19.2498457 C129.5984,19.9241964 129.6101,20.3815821 129.6338,20.6223114 C129.7523,21.8984854 130.2041,22.8916481 130.9883,23.6014909 C131.7725,24.3116424 132.7583,24.6665638 133.9466,24.6665638 C135.1583,24.6665638 136.1567,24.3054698 136.9406,23.5832819 C137.7248,22.861094 138.188,21.7540478 138.3308,20.2609088 C138.3779,19.7797588 138.4019,19.4430464 138.4019,19.2498457 C138.4019,17.4206116 137.9978,16.0601823 137.1902,15.1691753 C136.382,14.2790941 135.3011,13.8331276 133.9466,13.8331276 C132.7823,13.8331276 131.8019,14.2007027 131.0063,14.9346185 M143,19.2498457 C143,19.8519776 142.9877,20.2735625 142.9643,20.5136746 C142.8932,22.0305778 142.5245,23.433289 141.8597,24.7208822 C141.194,26.008784 140.2733,27.0442287 139.0973,27.8262903 C137.921,28.6086606 136.5602,29 135.0161,29 C133.685,29 132.5801,28.783035 131.7014,28.3497222 C130.8218,27.9167181 130.133,27.4111866 129.6338,26.8334362 L129.6338,27.6639523 C129.6338,27.9290632 129.5384,28.1574474 129.3485,28.3497222 C129.1586,28.5429229 128.9327,28.638906 128.6717,28.638906 L125.9627,28.638906 C125.7008,28.638906 125.4752,28.5429229 125.2856,28.3497222 C125.0951,28.1574474 125,27.9290632 125,27.6639523 L125,3.97495371 C125,3.71015146 125.0951,3.48207587 125.2856,3.28887517 C125.4752,3.09660035 125.7008,3 125.9627,3 L128.6717,3 C128.9327,3 129.1586,3.09660035 129.3485,3.28887517 C129.5384,3.48207587 129.6338,3.71015146 129.6338,3.97495371 L129.6338,11.6668724 C130.1561,11.0891221 130.8575,10.5835905 131.7368,10.1499691 C132.6158,9.71665638 133.709,9.50030863 135.0161,9.50030863 C136.5602,9.50030863 137.921,9.8919567 139.0973,10.6734011 C140.2733,11.45608 141.194,12.4915246 141.8597,13.7791178 C142.5245,15.0673282 142.8932,16.4697308 142.9643,17.9860168 C142.9877,18.2267461 143,18.6486397 143,19.2498457" id="Fill-7" fill="#F5EEFF"></path>
                <path d="M159.327473,20.4848533 L154.439863,21.3295717 C153.48152,21.4940648 152.780309,21.7343389 152.337438,22.0506948 C151.893962,22.3673515 151.672224,22.7958754 151.672224,23.3350638 C151.672224,23.8047862 151.91786,24.1620398 152.40883,24.4080276 C152.899799,24.6543161 153.517216,24.7776107 154.260477,24.7776107 C155.313807,24.7776107 156.224656,24.590263 156.991512,24.2146656 C157.758368,23.8399702 158.339484,23.3525055 158.734861,22.754677 C159.130238,22.1565478 159.327473,21.5178215 159.327473,20.8369947 L159.327473,20.4848533 Z M161.825578,11.8996391 C163.27489,13.1662657 164,14.9847108 164,17.3534709 L164,27.6981894 C164,27.9565066 163.903803,28.1790383 163.712316,28.366386 C163.520829,28.5546358 163.293041,28.6481593 163.029859,28.6481593 L160.298219,28.6481593 C160.034432,28.6481593 159.806947,28.5546358 159.615157,28.366386 C159.423368,28.1790383 159.327473,27.9565066 159.327473,27.6981894 L159.327473,26.5368143 C158.776305,27.28831 158.016104,27.8861385 157.045358,28.3312019 C156.074915,28.7765661 154.907237,29 153.541114,29 C151.528836,29 149.934925,28.4899813 148.760895,27.4696433 C147.586562,26.4490045 147,25.1297521 147,23.5109841 C147,21.9397297 147.569016,20.6908455 148.707653,19.7637302 C149.844778,18.8372163 151.432639,18.1978886 153.46942,17.8463486 L159.327473,16.8608939 C159.327473,15.9698648 159.022243,15.3073818 158.411481,14.8728435 C157.800416,14.4392074 156.979109,14.2217879 155.949375,14.2217879 C155.397601,14.2217879 154.948378,14.2984711 154.601705,14.4509354 C154.254124,14.6033997 153.912896,14.8322465 153.577113,15.1368744 C153.218339,15.4655598 152.82266,15.6294514 152.390982,15.6294514 L149.048579,15.6294514 C148.808993,15.6294514 148.611154,15.5536703 148.455665,15.4009053 C148.299571,15.248441 148.233927,15.0662056 148.257825,14.8554019 C148.402121,14.1285651 148.779045,13.3896996 149.389807,12.6388054 C150.001174,11.8885126 150.863623,11.2609129 151.977757,10.7563072 C153.092194,10.2523029 154.415965,10 155.949375,10 C158.416926,10 160.375963,10.6330126 161.825578,11.8996391 Z" id="Fill-9" fill="#F5EEFF"></path>
                <path d="M173.692761,27.7180225 C173.487179,27.9064087 173.243719,28 172.962056,28 L170.038915,28 C169.756281,28 169.512497,27.9064087 169.307563,27.7180225 C169.102305,27.530539 169,27.307846 169,27.0493416 L169,3.95035751 C169,3.69245492 169.102305,3.47006284 169.307563,3.28167658 C169.512497,3.09419313 169.756281,3 170.038915,3 L172.962056,3 C173.243719,3 173.487179,3.09419313 173.692761,3.28167658 C173.897695,3.47006284 174,3.69245492 174,3.95035751 L174,27.0493416 C174,27.307846 173.897695,27.530539 173.692761,27.7180225" id="Fill-11" fill="#F5EEFF"></path>
                <path d="M184.692153,27.7180225 C184.486598,27.9064087 184.24317,28 183.96122,28 L181.038457,28 C180.755859,28 180.513078,27.9064087 180.307847,27.7180225 C180.101968,27.530539 180,27.307846 180,27.0493416 L180,3.95035751 C180,3.69245492 180.101968,3.47006284 180.307847,3.28167658 C180.513078,3.09419313 180.755859,3 181.038457,3 L183.96122,3 C184.24317,3 184.486598,3.09419313 184.692153,3.28167658 C184.897061,3.47006284 185,3.69245492 185,3.95035751 L185,27.0493416 C185,27.307846 184.897061,27.530539 184.692153,27.7180225" id="Fill-13" fill="#F5EEFF"></path>
                <text id="EVERYTHING-CRICKET" font-family="Rubik-Light, Rubik" font-size="11" font-weight="300" letter-spacing="0.819999993" fill="#F5EEFF">
                    <tspan x="62" y="43">EVERYTHING CRICKE</tspan>
                    <tspan x="180.825" y="43">T</tspan>
                </text>
                <path d="M5.33262084,27.8173877 C4.0454413,26.6645201 2.03585568,26.7403862 0.84454628,27.9866733 C-0.346455841,29.2332579 -0.268407715,31.1787034 1.01938637,32.332166 L8.66718095,39.1824309 C9.27804582,39.7295596 10.0514597,40 10.82303,40 C11.6775648,40 12.5293341,39.6682716 13.1555628,39.0131453 C14.3465649,37.7665607 14.2682095,35.8211153 12.9807227,34.6673551 L5.33262084,27.8173877 Z" id="Fill-33" fill="#038CFF"></path>
                <path d="M24.3297226,25.8713205 C25.04696,21.7871856 27.6076527,18.4965345 31,16.7033283 C28.5701567,15.4188439 25.714292,14.9009559 22.8003058,15.4167051 C20.3433797,15.8517921 18.1761482,16.9633417 16.4495444,18.5243385 L13.2285186,2.53275196 C12.8837456,0.822957767 11.2216536,-0.283397628 9.52243696,0.0636942607 C7.81956868,0.409563995 6.71860774,2.07566617 7.06307645,3.78484929 L12.3128769,29.8454616 C12.3356995,30.0125912 12.3585221,30.1800264 12.3880393,30.3474615 C13.619241,37.3574344 20.2767378,42.0379808 27.2580109,40.802077 C28.5999782,40.5643679 29.8549154,40.1237812 31,39.5200369 C26.1871757,36.982844 23.335267,31.5341736 24.3297226,25.8713205" id="Fill-34" fill="#038CFF"></path>
                <path d="M53.4778778,0.0638683827 C51.7765302,-0.283833104 50.1156546,0.823128659 49.7714901,2.53291558 L46.5504626,18.5244341 C44.8241623,16.9634439 42.6566254,15.8515935 40.2000024,15.4168139 C37.2860149,14.9010669 34.4301488,15.4186471 32,16.7034316 C35.3920447,18.4966302 37.9530429,21.7872673 38.670585,25.8713849 C39.6647368,31.5342138 36.8128266,36.9828611 32,39.5200432 C33.1453894,40.1237849 34.4003273,40.5643698 35.7419909,40.8020778 C42.7235717,42.0379763 49.3810717,37.3574499 50.6122741,30.3475068 C50.641487,30.1812945 50.6640053,30.0156933 50.6865235,29.8500921 L55.9369352,3.78500758 C56.281404,2.07522066 55.1801383,0.409125571 53.4778778,0.0638683827" id="Fill-35" fill="#FF0653"></path>
                <path d="M31.9997914,17 C28.5422978,18.8076114 25.9321956,22.124697 25.2008087,26.2416407 C24.187475,31.9499846 27.0944123,37.4424254 31.9997914,40 C36.9057909,37.4424254 39.8127282,31.9499846 38.7990843,26.2416407 C38.0680075,22.124697 35.4575952,18.8076114 31.9997914,17 Z" id="Fill-36" fill="#F5EEFF"></path>
            </g>
        </g>
    </g>
</svg>