<svg xmlns="http://www.w3.org/2000/svg" viewBox="0 0 642.51 149.6"><defs><style>.cls-1{fill:#f5eeff;}.cls-2{fill:#038cff;}.cls-3{fill:#ff0653;}</style></defs><title>Asset 2</title><g id="Layer_2" data-name="Layer 2"><g id="Layer_1-2" data-name="Layer 1"><path class="cls-1" d="M244.53,29.09a3,3,0,0,1,.95-2.23,3.1,3.1,0,0,1,2.26-.93h9a3.1,3.1,0,0,1,2.25.93,3,3,0,0,1,1,2.23v76.75a3,3,0,0,1-1,2.23,3.1,3.1,0,0,1-2.25.93h-9a3.1,3.1,0,0,1-2.26-.93,3,3,0,0,1-.95-2.23v-2.69a21.59,21.59,0,0,1-6.89,4.92,25.62,25.62,0,0,1-11,2.1,24.52,24.52,0,0,1-13.6-3.8,26.62,26.62,0,0,1-9.21-10.06,32,32,0,0,1-3.69-13.63l-.11-4.1.11-4.09a32,32,0,0,1,3.69-13.64A26.62,26.62,0,0,1,213,50.79a24.52,24.52,0,0,1,13.6-3.8,25.3,25.3,0,0,1,10.93,2.1,23.17,23.17,0,0,1,7,4.92ZM219.4,91.8q4,4.33,10.75,4.33A14.37,14.37,0,0,0,240,92.68,14.07,14.07,0,0,0,244.53,83a41.38,41.38,0,0,0,0-8.9A13.91,13.91,0,0,0,230.15,61a14.41,14.41,0,0,0-10,3.51Q216.26,68,215.54,75.3c-.08.78-.12,1.88-.12,3.28Q215.42,87.48,219.4,91.8Z"/><path class="cls-1" d="M336,78.7q0,3-.24,5.85a27.57,27.57,0,0,1-4.39,13,26.61,26.61,0,0,1-10.4,9.25,35,35,0,0,1-30.06,0,26.58,26.58,0,0,1-10.39-9.25,27.58,27.58,0,0,1-4.4-13Q276,83.14,276,78.7t.12-6a27.82,27.82,0,0,1,4.4-13.1,26.74,26.74,0,0,1,10.39-9.25,35,35,0,0,1,30.06,0,26.77,26.77,0,0,1,10.4,9.25,27.8,27.8,0,0,1,4.39,13.1Q336,75.54,336,78.7ZM296.27,63.84q-4,2.8-4.69,9.47c-.08.79-.12,2.54-.12,5.27s0,4.49.12,5.27q.71,6.66,4.69,9.47a18.1,18.1,0,0,0,19.37,0q4-2.8,4.69-9.47a58,58,0,0,0,0-10.54q-.72-6.66-4.69-9.47a18.1,18.1,0,0,0-19.37,0Z"/><path class="cls-1" d="M374,92.91Q376,95,381.16,95h7.24a3.07,3.07,0,0,1,2.26.94,3,3,0,0,1,.95,2.22v7.72a3,3,0,0,1-.95,2.23,3.1,3.1,0,0,1-2.26.93h-8.79q-11.28,0-17.22-5.44t-5.94-16.2V62.2H348.6a3.07,3.07,0,0,1-2.25-.94,3,3,0,0,1-1-2.22V51.32a3,3,0,0,1,1-2.23,3.1,3.1,0,0,1,2.25-.93h7.85V29.09a3,3,0,0,1,.95-2.23,3.1,3.1,0,0,1,2.25-.93h9a3.12,3.12,0,0,1,2.26.93,3,3,0,0,1,.95,2.23V48.16h15.33a3.1,3.1,0,0,1,2.25.93,3,3,0,0,1,.95,2.23V59a3,3,0,0,1-.95,2.22,3.07,3.07,0,0,1-2.25.94H371.89V87A7.9,7.9,0,0,0,374,92.91Z"/><path class="cls-1" d="M465.63,78.58c0,2,0,3.32-.12,4.1a31.82,31.82,0,0,1-3.68,13.63,26.78,26.78,0,0,1-9.21,10.06,24.52,24.52,0,0,1-13.6,3.8,25.59,25.59,0,0,1-11-2.1,21.59,21.59,0,0,1-6.89-4.92v2.69a3,3,0,0,1-.95,2.23,3.14,3.14,0,0,1-2.26.93h-9a3.14,3.14,0,0,1-2.26-.93,3,3,0,0,1-.95-2.23V29.09a3,3,0,0,1,.95-2.23,3.14,3.14,0,0,1,2.26-.93h9a3.14,3.14,0,0,1,2.26.93,3,3,0,0,1,.95,2.23V54a23.17,23.17,0,0,1,7-4.92A25.27,25.27,0,0,1,439,47a24.52,24.52,0,0,1,13.6,3.8,26.78,26.78,0,0,1,9.21,10.06,31.86,31.86,0,0,1,3.68,13.64C465.59,75.27,465.63,76.63,465.63,78.58Zm-40-14a14.16,14.16,0,0,0-4.57,9.53c-.08.79-.12,2.27-.12,4.45s0,3.67.12,4.45a14.07,14.07,0,0,0,4.51,9.65,15.88,15.88,0,0,0,19.84-.06q3.93-3.51,4.64-10.76c.16-1.56.23-2.65.23-3.28q0-8.89-4-13.22T435.45,61A14.14,14.14,0,0,0,425.65,64.6Z"/><path class="cls-1" d="M526.4,53.31q7.19,6.31,7.19,18.13v34.4a3,3,0,0,1-1,2.23,3.14,3.14,0,0,1-2.26.93h-9a3.14,3.14,0,0,1-2.26-.93,3,3,0,0,1-1-2.23V102a18.83,18.83,0,0,1-7.54,6A27.5,27.5,0,0,1,499,110.17q-10,0-15.81-5.09a16.67,16.67,0,0,1-5.82-13.16A15.24,15.24,0,0,1,483,79.46q5.64-4.62,15.74-6.38l19.36-3.28q0-4.44-3-6.61A13.74,13.74,0,0,0,507,61a11.07,11.07,0,0,0-4.46.76,12.78,12.78,0,0,0-3.39,2.28,5.62,5.62,0,0,1-3.92,1.64h-11a2.68,2.68,0,0,1-2-.76,2.11,2.11,0,0,1-.65-1.81,17.14,17.14,0,0,1,3.74-7.37,22.87,22.87,0,0,1,8.56-6.26A31.42,31.42,0,0,1,507,47Q519.2,47,526.4,53.31Zm-8.26,28.55L502,84.66a17.3,17.3,0,0,0-6.95,2.4,5,5,0,0,0-2.2,4.27,3.85,3.85,0,0,0,2.43,3.57,13.53,13.53,0,0,0,6.12,1.23,20.19,20.19,0,0,0,9-1.87,14.09,14.09,0,0,0,5.76-4.86,11.37,11.37,0,0,0,2-6.37Z"/><path class="cls-1" d="M566.26,108.07A3.1,3.1,0,0,1,564,109h-9a3.1,3.1,0,0,1-2.26-.93,3,3,0,0,1-1-2.23V29.09a3,3,0,0,1,1-2.23,3.1,3.1,0,0,1,2.26-.93h9a3.1,3.1,0,0,1,2.25.93,3,3,0,0,1,1,2.23v76.75A3,3,0,0,1,566.26,108.07Z"/><path class="cls-1" d="M600.48,108.07a3.14,3.14,0,0,1-2.26.93h-9a3.14,3.14,0,0,1-2.26-.93,3,3,0,0,1-.95-2.23V29.09a3,3,0,0,1,.95-2.23,3.14,3.14,0,0,1,2.26-.93h9a3.14,3.14,0,0,1,2.26.93,3,3,0,0,1,.95,2.23v76.75A3,3,0,0,1,600.48,108.07Z"/><path class="cls-1" d="M205.91,144.59a.38.38,0,0,1-.11-.29V132.51a.4.4,0,0,1,.11-.3.37.37,0,0,1,.29-.12h7.13a.43.43,0,0,1,.31.11.45.45,0,0,1,.11.31v.27a.37.37,0,0,1-.12.29.44.44,0,0,1-.3.1H207v4.59h6a.38.38,0,0,1,.42.42v.27a.37.37,0,0,1-.12.29.44.44,0,0,1-.3.1h-6v4.78h6.52a.41.41,0,0,1,.31.1.39.39,0,0,1,.11.31v.27a.42.42,0,0,1-.11.29.45.45,0,0,1-.31.11H206.2A.4.4,0,0,1,205.91,144.59Z"/><path class="cls-1" d="M213.47,145.1H206.2a.79.79,0,0,1-.8-.8V132.51a.78.78,0,0,1,.22-.57.76.76,0,0,1,.58-.25h7.13a.79.79,0,0,1,.82.82v.27a.78.78,0,0,1-.25.58.85.85,0,0,1-.57.22h-6v3.78h5.58a.83.83,0,0,1,.59.23.81.81,0,0,1,.23.59v.27a.78.78,0,0,1-.25.58.87.87,0,0,1-.57.22h-5.58v4h6.12a.84.84,0,0,1,.6.23.81.81,0,0,1,.23.59v.27a.78.78,0,0,1-.25.58A.85.85,0,0,1,213.47,145.1Zm-7.27-.81h7.27l0-.26h-6.94v-5.58h6.38l0-.26h-6.4v-5.4h6.78l0-.26H206.2Z"/><path class="cls-1" d="M232.46,144.26l-4.24-11.61,0-.19a.34.34,0,0,1,.11-.26.36.36,0,0,1,.25-.11h.39a.34.34,0,0,1,.26.1.47.47,0,0,1,.14.18l4,11,4-11a.47.47,0,0,1,.14-.18.36.36,0,0,1,.27-.1h.38a.38.38,0,0,1,.37.37l0,.19-4.24,11.61a.62.62,0,0,1-.62.44h-.51A.62.62,0,0,1,232.46,144.26Z"/><path class="cls-1" d="M233.6,145.1h-.51a1,1,0,0,1-1-.7h0l-4.3-11.87a.79.79,0,0,1,.23-.61.72.72,0,0,1,.53-.23h.39a.76.76,0,0,1,.53.2.82.82,0,0,1,.24.32l3.63,10,3.63-10a.81.81,0,0,1,.25-.34.74.74,0,0,1,.53-.2h.38a.76.76,0,0,1,.54.23.74.74,0,0,1,.23.54l-.05.27-4.26,11.67A1,1,0,0,1,233.6,145.1Zm-.16-.81h.16a.21.21,0,0,0,.24-.17l4.25-11.63h-.34Zm-.6-.17a.22.22,0,0,0,.25.17h.16L229,132.5h-.36l0,.08Z"/><path class="cls-1" d="M253.8,144.59a.38.38,0,0,1-.12-.29V132.51a.41.41,0,0,1,.12-.3.36.36,0,0,1,.29-.12h7.13a.38.38,0,0,1,.42.42v.27a.37.37,0,0,1-.12.29.44.44,0,0,1-.3.1h-6.38v4.59h6a.42.42,0,0,1,.31.11.41.41,0,0,1,.11.31v.27a.4.4,0,0,1-.11.29.46.46,0,0,1-.31.1h-6v4.78h6.52a.41.41,0,0,1,.31.1.39.39,0,0,1,.11.31v.27a.38.38,0,0,1-.12.29.44.44,0,0,1-.3.11h-7.27A.38.38,0,0,1,253.8,144.59Z"/><path class="cls-1" d="M261.36,145.1h-7.27a.83.83,0,0,1-.58-.23.78.78,0,0,1-.23-.57V132.51a.83.83,0,0,1,.22-.57.78.78,0,0,1,.59-.25h7.13a.83.83,0,0,1,.59.23.81.81,0,0,1,.23.59v.27a.78.78,0,0,1-.25.58.85.85,0,0,1-.57.22h-6v3.78h5.57a.84.84,0,0,1,.6.23.81.81,0,0,1,.22.59v.27a.74.74,0,0,1-.25.58.83.83,0,0,1-.57.22h-5.57v4h6.12a.81.81,0,0,1,.59.23.78.78,0,0,1,.23.59v.27a.74.74,0,0,1-.25.58A.83.83,0,0,1,261.36,145.1Zm-7.27-.81h7.27l0-.26h-6.94v-5.58h6.37l0-.26h-6.39v-5.4h6.78l0-.26h-7.15Z"/><path class="cls-1" d="M277.41,144.59a.42.42,0,0,1-.11-.29V132.51a.44.44,0,0,1,.11-.3.37.37,0,0,1,.29-.12H282a4.73,4.73,0,0,1,3.09.92,3.33,3.33,0,0,1,1.11,2.72,3.51,3.51,0,0,1-.71,2.3,3.61,3.61,0,0,1-2.05,1.18l3,4.93a.54.54,0,0,1,0,.19.34.34,0,0,1-.11.26.36.36,0,0,1-.25.11h-.22a.59.59,0,0,1-.41-.12,1.32,1.32,0,0,1-.29-.37l-2.9-4.84h-3.77v4.93a.38.38,0,0,1-.12.29.44.44,0,0,1-.3.11h-.33A.4.4,0,0,1,277.41,144.59Zm4.46-6.3a3.72,3.72,0,0,0,2.37-.64,2.78,2.78,0,0,0,0-3.84,3.72,3.72,0,0,0-2.37-.64h-3.42v5.12Z"/><path class="cls-1" d="M286,145.1h-.22a1,1,0,0,1-.67-.22,1.57,1.57,0,0,1-.37-.47L282,139.77h-3.14v4.53a.78.78,0,0,1-.25.58.83.83,0,0,1-.57.22h-.33a.8.8,0,0,1-.57-.23.78.78,0,0,1-.23-.57V132.51a.8.8,0,0,1,.8-.82H282a5.12,5.12,0,0,1,3.34,1,3.71,3.71,0,0,1,1.26,3,3.93,3.93,0,0,1-.8,2.55,3.77,3.77,0,0,1-1.75,1.17l2.68,4.48a.86.86,0,0,1,.11.4.79.79,0,0,1-.76.77Zm-8-6.13h4.39l3,5a1,1,0,0,0,.2.27.35.35,0,0,0,.16,0H286l-3.26-5.35.53-.12a3.22,3.22,0,0,0,1.83-1,3.14,3.14,0,0,0,.62-2,2.93,2.93,0,0,0-1-2.41,4.39,4.39,0,0,0-2.84-.82H277.7v11.79H278Zm3.82-.28h-3.82v-5.92h3.82a4,4,0,0,1,2.62.74,2.72,2.72,0,0,1,.92,2.22,2.75,2.75,0,0,1-.92,2.23A4.09,4.09,0,0,1,281.87,138.69Zm-3-.8h3a3.33,3.33,0,0,0,2.11-.55,2.37,2.37,0,0,0,0-3.22,3.34,3.34,0,0,0-2.11-.54h-3Z"/><path class="cls-1" d="M305,144.59a.42.42,0,0,1-.11-.29v-4.41l-4.46-7.2a.71.71,0,0,1-.07-.23.38.38,0,0,1,.11-.26.36.36,0,0,1,.26-.11H301a.5.5,0,0,1,.42.28l4,6.35,4-6.35a.48.48,0,0,1,.42-.28h.36a.38.38,0,0,1,.37.37.57.57,0,0,1-.08.23l-4.46,7.2v4.41a.42.42,0,0,1-.11.29.47.47,0,0,1-.31.11h-.34A.42.42,0,0,1,305,144.59Z"/><path class="cls-1" d="M305.59,145.1h-.34a.83.83,0,0,1-.58-.23.78.78,0,0,1-.23-.57V140l-4.39-7.1a1,1,0,0,1-.14-.44.79.79,0,0,1,.77-.77H301a.88.88,0,0,1,.76.47l3.63,5.8,3.63-5.81a.89.89,0,0,1,.76-.46h.36a.76.76,0,0,1,.54.23.74.74,0,0,1,.23.54.93.93,0,0,1-.12.41L306.41,140v4.3a.77.77,0,0,1-.24.58A.87.87,0,0,1,305.59,145.1Zm-.35-.81h.35l0-4.52,4.52-7.29-.31,0s-.06,0-.08.07l-4.31,6.9-4.31-6.89s-.05-.08-.08-.08h-.36l4.56,7.27Z"/><path class="cls-1" d="M328.62,144.59a.42.42,0,0,1-.11-.29V133.17h-3.62a.41.41,0,0,1-.29-.1.4.4,0,0,1-.11-.29v-.27a.44.44,0,0,1,.11-.3.38.38,0,0,1,.29-.12h8.38a.38.38,0,0,1,.42.42v.27a.37.37,0,0,1-.12.29.44.44,0,0,1-.3.1h-3.6V144.3a.38.38,0,0,1-.12.29.44.44,0,0,1-.3.11h-.33A.42.42,0,0,1,328.62,144.59Z"/><path class="cls-1" d="M329.25,145.1h-.33a.83.83,0,0,1-.58-.23.78.78,0,0,1-.23-.57V133.58h-3.22a.79.79,0,0,1-.57-.23.78.78,0,0,1-.23-.57v-.27a.83.83,0,0,1,.22-.57.78.78,0,0,1,.58-.25h8.38a.79.79,0,0,1,.82.82v.27a.78.78,0,0,1-.25.58.85.85,0,0,1-.57.22h-3.2V144.3a.78.78,0,0,1-.25.58A.85.85,0,0,1,329.25,145.1Zm-.34-.81h.34V132.77h4l0-.26h-8.4v.28h4Z"/><path class="cls-1" d="M348.8,144.59a.42.42,0,0,1-.11-.29V132.51a.44.44,0,0,1,.11-.3.38.38,0,0,1,.29-.12h.33a.42.42,0,0,1,.31.11.41.41,0,0,1,.11.31v5.25h7.06v-5.25a.4.4,0,0,1,.11-.3.37.37,0,0,1,.29-.12h.33a.43.43,0,0,1,.31.11.45.45,0,0,1,.11.31V144.3a.38.38,0,0,1-.12.29.44.44,0,0,1-.3.11h-.33a.4.4,0,0,1-.29-.11.38.38,0,0,1-.11-.29v-5.46h-7.06v5.46a.38.38,0,0,1-.12.29.41.41,0,0,1-.3.11h-.33A.42.42,0,0,1,348.8,144.59Z"/><path class="cls-1" d="M357.63,145.1h-.33a.78.78,0,0,1-.57-.23.74.74,0,0,1-.23-.57v-5.05h-6.26v5.05a.74.74,0,0,1-.25.58.83.83,0,0,1-.57.22h-.33a.8.8,0,0,1-.57-.23.78.78,0,0,1-.23-.57V132.51a.83.83,0,0,1,.22-.57.78.78,0,0,1,.58-.25h.33a.81.81,0,0,1,.59.23.78.78,0,0,1,.23.59v4.85h6.26v-4.85a.8.8,0,0,1,.8-.82h.33a.81.81,0,0,1,.59.23.78.78,0,0,1,.23.59V144.3a.78.78,0,0,1-.25.58A.83.83,0,0,1,357.63,145.1Zm-8.19-6.66h7.86v5.86h.33l0-11.78h-.35v5.67h-7.86v-5.66h-.35v11.79h.33Z"/><path class="cls-1" d="M374.39,144.59a.42.42,0,0,1-.11-.29V132.49a.42.42,0,0,1,.11-.29.4.4,0,0,1,.29-.11H375a.4.4,0,0,1,.29.11.38.38,0,0,1,.11.29V144.3a.38.38,0,0,1-.11.29.4.4,0,0,1-.29.11h-.35A.4.4,0,0,1,374.39,144.59Z"/><path class="cls-1" d="M375,145.1h-.35a.8.8,0,0,1-.57-.23.78.78,0,0,1-.23-.57V132.49a.78.78,0,0,1,.23-.57.8.8,0,0,1,.57-.23H375a.76.76,0,0,1,.57.23.74.74,0,0,1,.23.57V144.3a.74.74,0,0,1-.23.57A.76.76,0,0,1,375,145.1Zm-.35-.81H375v-11.8h-.35Z"/><path class="cls-1" d="M391.77,144.59a.42.42,0,0,1-.11-.29V132.51a.44.44,0,0,1,.11-.3.38.38,0,0,1,.29-.12h.39a.45.45,0,0,1,.38.22l6.75,10.15v-10a.4.4,0,0,1,.11-.3.37.37,0,0,1,.29-.12h.33a.43.43,0,0,1,.31.11.45.45,0,0,1,.11.31v11.77a.44.44,0,0,1-.11.3.37.37,0,0,1-.29.12h-.41a.47.47,0,0,1-.38-.22l-6.73-10.12v9.94a.42.42,0,0,1-.11.29.45.45,0,0,1-.31.11h-.33A.42.42,0,0,1,391.77,144.59Z"/><path class="cls-1" d="M400.33,145.1h-.41a.83.83,0,0,1-.71-.4l-6-9v8.61a.74.74,0,0,1-.25.58.81.81,0,0,1-.57.22h-.33a.8.8,0,0,1-.57-.23.78.78,0,0,1-.23-.57V132.51a.83.83,0,0,1,.22-.57.78.78,0,0,1,.58-.25h.39a.83.83,0,0,1,.71.4l6,9v-8.63a.82.82,0,0,1,.21-.57.8.8,0,0,1,.59-.25h.33a.79.79,0,0,1,.82.82v11.77a.83.83,0,0,1-.22.57A.78.78,0,0,1,400.33,145.1ZM392.41,133l7.46,11.22.46,0V132.51H400v11.29l-7.48-11.26-.44,0v11.79h.33Z"/><path class="cls-1" d="M417.8,143.58a5,5,0,0,1-1.33-3.47c0-.36,0-.94,0-1.71s0-1.36,0-1.71a5,5,0,0,1,1.33-3.48,4.73,4.73,0,0,1,3.55-1.29,5.47,5.47,0,0,1,2.61.57,4.39,4.39,0,0,1,1.58,1.36,3,3,0,0,1,.56,1.4v0a.27.27,0,0,1-.11.23.39.39,0,0,1-.28.1h-.4a.33.33,0,0,1-.24-.08.87.87,0,0,1-.14-.28,3.25,3.25,0,0,0-1.2-1.61,4,4,0,0,0-2.38-.64,3.75,3.75,0,0,0-2.68.91,4,4,0,0,0-1.05,2.87c0,.35,0,.89,0,1.62s0,1.26,0,1.61a4,4,0,0,0,1.05,2.87,3.75,3.75,0,0,0,2.68.91,3.89,3.89,0,0,0,2.74-.95,3.66,3.66,0,0,0,1-2.83v-.91H422a.37.37,0,0,1-.29-.12.4.4,0,0,1-.11-.3v-.25a.38.38,0,0,1,.4-.41h3.91a.43.43,0,0,1,.31.1.45.45,0,0,1,.11.31V140a5.29,5.29,0,0,1-.58,2.54,4.06,4.06,0,0,1-1.7,1.71,5.43,5.43,0,0,1-2.65.62A4.74,4.74,0,0,1,417.8,143.58Z"/><path class="cls-1" d="M421.35,145.28a5.15,5.15,0,0,1-3.84-1.42,5.42,5.42,0,0,1-1.44-3.74c0-.36,0-.94,0-1.72s0-1.37,0-1.73a5.42,5.42,0,0,1,1.44-3.74,5.15,5.15,0,0,1,3.84-1.42,5.88,5.88,0,0,1,2.8.63,4.63,4.63,0,0,1,1.72,1.49,3.34,3.34,0,0,1,.63,1.59.73.73,0,0,1-.26.61.85.85,0,0,1-.53.18h-.4a.74.74,0,0,1-.52-.19,1.24,1.24,0,0,1-.24-.45,2.76,2.76,0,0,0-1.05-1.4,3.61,3.61,0,0,0-2.15-.57,3.33,3.33,0,0,0-2.41.81,3.57,3.57,0,0,0-.92,2.58c0,.35,0,.89,0,1.61s0,1.25,0,1.6a3.62,3.62,0,0,0,.92,2.59,3.37,3.37,0,0,0,2.41.8,3.49,3.49,0,0,0,2.47-.84,3.27,3.27,0,0,0,.91-2.54v-.51H422a.8.8,0,0,1-.59-.25.82.82,0,0,1-.21-.57v-.25a.82.82,0,0,1,.21-.57.81.81,0,0,1,.59-.24h3.91a.81.81,0,0,1,.59.22.78.78,0,0,1,.23.59V140a5.73,5.73,0,0,1-.63,2.73,4.53,4.53,0,0,1-1.86,1.87A5.84,5.84,0,0,1,421.35,145.28Zm0-13a4.3,4.3,0,0,0-3.26,1.17,4.63,4.63,0,0,0-1.22,3.21c0,.36,0,.92,0,1.7s0,1.33,0,1.69a4.57,4.57,0,0,0,1.22,3.21,4.3,4.3,0,0,0,3.26,1.17,5,5,0,0,0,2.45-.56,3.77,3.77,0,0,0,1.54-1.55,4.91,4.91,0,0,0,.54-2.35v-1.58H422v.26l3.58,0V140a4.06,4.06,0,0,1-1.17,3.13,4.32,4.32,0,0,1-3,1.06,4.18,4.18,0,0,1-3-1,4.4,4.4,0,0,1-1.17-3.14c0-.36,0-.91,0-1.63s0-1.28,0-1.64a4.4,4.4,0,0,1,1.17-3.14,4.18,4.18,0,0,1,3-1,4.37,4.37,0,0,1,2.62.73,3.63,3.63,0,0,1,1.34,1.8.34.34,0,0,0,0,.08h.37a2.91,2.91,0,0,0-.5-1.14,4,4,0,0,0-1.44-1.23A5.07,5.07,0,0,0,421.35,132.32Z"/><path class="cls-1" d="M460.17,143.55a5.46,5.46,0,0,1-1.28-3.55c0-.33,0-.85,0-1.59s0-1.28,0-1.62a5.48,5.48,0,0,1,1.28-3.55,4.55,4.55,0,0,1,3.56-1.32,5.64,5.64,0,0,1,2.71.58A4,4,0,0,1,468,134a4,4,0,0,1,.57,1.82v0a.26.26,0,0,1-.11.23.4.4,0,0,1-.27.09h-.37c-.22,0-.35-.12-.4-.37a3.42,3.42,0,0,0-1.26-2.17,4.36,4.36,0,0,0-2.47-.62,3.6,3.6,0,0,0-2.67.95,4.24,4.24,0,0,0-1,2.93c0,.33,0,.83,0,1.5s0,1.18,0,1.53a4.24,4.24,0,0,0,1,2.93,3.6,3.6,0,0,0,2.67.95,4.36,4.36,0,0,0,2.47-.62,3.39,3.39,0,0,0,1.26-2.17c.05-.25.18-.37.4-.37h.37a.4.4,0,0,1,.28.1.27.27,0,0,1,.1.26,4,4,0,0,1-.57,1.82,4,4,0,0,1-1.6,1.48,5.63,5.63,0,0,1-2.71.59A4.55,4.55,0,0,1,460.17,143.55Z"/><path class="cls-1" d="M463.73,145.28a4.94,4.94,0,0,1-3.86-1.46,5.88,5.88,0,0,1-1.38-3.81c0-.33,0-.86,0-1.6s0-1.29,0-1.63a5.88,5.88,0,0,1,1.38-3.81,4.94,4.94,0,0,1,3.86-1.46,6.07,6.07,0,0,1,2.9.64,4.38,4.38,0,0,1,1.75,1.62,4.5,4.5,0,0,1,.63,2,.73.73,0,0,1-.25.6.83.83,0,0,1-.53.18h-.37a.78.78,0,0,1-.79-.7A3.08,3.08,0,0,0,466,134a3.93,3.93,0,0,0-2.24-.55,3.19,3.19,0,0,0-2.38.83,3.86,3.86,0,0,0-.91,2.67c0,.32,0,.81,0,1.48s0,1.17,0,1.51a3.86,3.86,0,0,0,.91,2.67,3.19,3.19,0,0,0,2.38.83,3.93,3.93,0,0,0,2.24-.55,3.08,3.08,0,0,0,1.1-1.92.78.78,0,0,1,.79-.69h.37a.81.81,0,0,1,.54.19.67.67,0,0,1,.24.61,4.5,4.5,0,0,1-.63,2,4.38,4.38,0,0,1-1.75,1.62A6.07,6.07,0,0,1,463.73,145.28Zm0-13a4.2,4.2,0,0,0-3.27,1.19,5.06,5.06,0,0,0-1.17,3.3c0,.33,0,.87,0,1.6s0,1.25,0,1.57a5.06,5.06,0,0,0,1.17,3.3,4.2,4.2,0,0,0,3.27,1.19,5.38,5.38,0,0,0,2.52-.53,3.59,3.59,0,0,0,1.44-1.33,3.7,3.7,0,0,0,.52-1.65l-.35.07a3.8,3.8,0,0,1-1.43,2.46,4.69,4.69,0,0,1-2.7.71,4,4,0,0,1-3-1.08,4.62,4.62,0,0,1-1.14-3.2c0-.35,0-.87,0-1.54s0-1.18,0-1.51a4.62,4.62,0,0,1,1.14-3.2,4,4,0,0,1,3-1.08,4.69,4.69,0,0,1,2.7.71,3.76,3.76,0,0,1,1.42,2.4l.38.06a4,4,0,0,0-.54-1.58,3.66,3.66,0,0,0-1.44-1.33A5.38,5.38,0,0,0,463.73,132.32Z"/><path class="cls-1" d="M484.2,144.59a.42.42,0,0,1-.11-.29V132.51a.44.44,0,0,1,.11-.3.38.38,0,0,1,.29-.12h4.26a4.73,4.73,0,0,1,3.09.92,3.3,3.3,0,0,1,1.12,2.72,3.52,3.52,0,0,1-.72,2.3,3.58,3.58,0,0,1-2,1.18l2.94,4.93a.38.38,0,0,1,.05.19.37.37,0,0,1-.1.26.38.38,0,0,1-.26.11h-.22a.61.61,0,0,1-.41-.12,1.31,1.31,0,0,1-.28-.37L489,139.37h-3.77v4.93a.42.42,0,0,1-.11.29.45.45,0,0,1-.31.11h-.33A.42.42,0,0,1,484.2,144.59Zm4.46-6.3a3.72,3.72,0,0,0,2.37-.64,2.75,2.75,0,0,0,0-3.84,3.72,3.72,0,0,0-2.37-.64h-3.42v5.12Z"/><path class="cls-1" d="M492.83,145.1h-.22a1,1,0,0,1-.67-.22,1.57,1.57,0,0,1-.37-.47l-2.79-4.64h-3.14v4.53a.74.74,0,0,1-.25.58.81.81,0,0,1-.57.22h-.33a.8.8,0,0,1-.57-.23.78.78,0,0,1-.23-.57V132.51a.83.83,0,0,1,.22-.57.78.78,0,0,1,.58-.25h4.26a5.15,5.15,0,0,1,3.35,1,3.74,3.74,0,0,1,1.26,3,3.88,3.88,0,0,1-.81,2.55,3.74,3.74,0,0,1-1.74,1.17l2.67,4.48a.86.86,0,0,1,.11.4.73.73,0,0,1-.22.54A.76.76,0,0,1,492.83,145.1Zm-8-6.13h4.4l3,5a.84.84,0,0,0,.2.27s.05,0,.15,0h.22l-3.26-5.35.54-.12a3.23,3.23,0,0,0,1.82-1,3.09,3.09,0,0,0,.63-2,2.93,2.93,0,0,0-1-2.41,4.37,4.37,0,0,0-2.84-.82h-4.26v11.79h.33Zm3.82-.28h-3.82v-5.92h3.82a4,4,0,0,1,2.62.74,2.7,2.7,0,0,1,.93,2.22,2.73,2.73,0,0,1-.93,2.23A4.09,4.09,0,0,1,488.66,138.69Zm-3-.8h3a3.33,3.33,0,0,0,2.11-.55,2.35,2.35,0,0,0,0-3.22,3.34,3.34,0,0,0-2.11-.54h-3Z"/><path class="cls-1" d="M508.69,144.59a.42.42,0,0,1-.11-.29V132.49a.42.42,0,0,1,.11-.29.42.42,0,0,1,.3-.11h.34a.42.42,0,0,1,.3.11.42.42,0,0,1,.11.29V144.3a.42.42,0,0,1-.11.29.42.42,0,0,1-.3.11H509A.42.42,0,0,1,508.69,144.59Z"/><path class="cls-1" d="M509.33,145.1H509a.83.83,0,0,1-.58-.23.78.78,0,0,1-.23-.57V132.49a.78.78,0,0,1,.23-.57.83.83,0,0,1,.58-.23h.34a.8.8,0,0,1,.58.23.78.78,0,0,1,.23.57V144.3a.78.78,0,0,1-.23.57A.8.8,0,0,1,509.33,145.1Zm-.35-.81h.35v-11.8H509Z"/><path class="cls-1" d="M526.73,143.55a5.51,5.51,0,0,1-1.28-3.55c0-.33,0-.85,0-1.59s0-1.28,0-1.62a5.53,5.53,0,0,1,1.28-3.55,4.57,4.57,0,0,1,3.57-1.32,5.62,5.62,0,0,1,2.7.58,3.91,3.91,0,0,1,1.6,1.48,4,4,0,0,1,.58,1.82v0a.28.28,0,0,1-.11.23.43.43,0,0,1-.28.09h-.36c-.22,0-.35-.12-.4-.37a3.42,3.42,0,0,0-1.26-2.17,4.38,4.38,0,0,0-2.47-.62,3.57,3.57,0,0,0-2.67.95,4.19,4.19,0,0,0-1,2.93c0,.33,0,.83,0,1.5s0,1.18,0,1.53a4.19,4.19,0,0,0,1,2.93,3.57,3.57,0,0,0,2.67.95,4.38,4.38,0,0,0,2.47-.62A3.39,3.39,0,0,0,534,141c.05-.25.18-.37.4-.37h.36a.43.43,0,0,1,.29.1.27.27,0,0,1,.1.26,4,4,0,0,1-.58,1.82,3.91,3.91,0,0,1-1.6,1.48,5.62,5.62,0,0,1-2.7.59A4.57,4.57,0,0,1,526.73,143.55Z"/><path class="cls-1" d="M530.3,145.28a4.91,4.91,0,0,1-3.86-1.46,5.88,5.88,0,0,1-1.39-3.81c0-.33,0-.86,0-1.6s0-1.29,0-1.63a5.88,5.88,0,0,1,1.39-3.81,4.91,4.91,0,0,1,3.86-1.46,6,6,0,0,1,2.89.64,4.35,4.35,0,0,1,2.39,3.63.71.71,0,0,1-.26.6.81.81,0,0,1-.53.18h-.36a.8.8,0,0,1-.8-.7,3,3,0,0,0-1.09-1.91,3.93,3.93,0,0,0-2.24-.55,3.2,3.2,0,0,0-2.39.83,3.91,3.91,0,0,0-.9,2.67c0,.32,0,.81,0,1.48s0,1.17,0,1.51a3.91,3.91,0,0,0,.9,2.67,3.2,3.2,0,0,0,2.39.83,3.93,3.93,0,0,0,2.24-.55,3.08,3.08,0,0,0,1.1-1.92.78.78,0,0,1,.79-.69h.36a.79.79,0,0,1,.54.19.68.68,0,0,1,.25.61,4.36,4.36,0,0,1-2.39,3.61A6,6,0,0,1,530.3,145.28Zm0-13a4.2,4.2,0,0,0-3.27,1.19,5.12,5.12,0,0,0-1.18,3.3c0,.33,0,.87,0,1.6s0,1.25,0,1.57a5.12,5.12,0,0,0,1.18,3.3,4.2,4.2,0,0,0,3.27,1.19,5.31,5.31,0,0,0,2.51-.53,3.62,3.62,0,0,0,1.45-1.33,3.7,3.7,0,0,0,.52-1.65l-.35.07a3.85,3.85,0,0,1-1.44,2.46,4.63,4.63,0,0,1-2.69.71,4,4,0,0,1-2.95-1.08,4.58,4.58,0,0,1-1.14-3.2c0-.35,0-.87,0-1.54s0-1.18,0-1.51a4.58,4.58,0,0,1,1.14-3.2,4,4,0,0,1,2.95-1.08,4.63,4.63,0,0,1,2.69.71,3.81,3.81,0,0,1,1.43,2.4l.37.06a3.84,3.84,0,0,0-.53-1.58,3.69,3.69,0,0,0-1.45-1.33A5.31,5.31,0,0,0,530.3,132.32Z"/><path class="cls-1" d="M550.77,144.59a.42.42,0,0,1-.11-.29V132.51a.44.44,0,0,1,.11-.3.37.37,0,0,1,.29-.12h.33a.43.43,0,0,1,.31.11.45.45,0,0,1,.11.31v4.68l5.54-4.82a1.66,1.66,0,0,1,.3-.19.75.75,0,0,1,.39-.09h.3a.36.36,0,0,1,.25.11.34.34,0,0,1,.11.26.32.32,0,0,1-.09.23l-6.2,5.43,6.58,6a.34.34,0,0,1,.11.25.38.38,0,0,1-.36.37h-.31a.82.82,0,0,1-.4-.09,1.66,1.66,0,0,1-.3-.19l-5.92-5.32v5.2a.38.38,0,0,1-.12.29.44.44,0,0,1-.3.11h-.33A.4.4,0,0,1,550.77,144.59Z"/><path class="cls-1" d="M558.74,145.1h-.31a1.31,1.31,0,0,1-.58-.13,3.48,3.48,0,0,1-.36-.22L552.21,140v4.31a.74.74,0,0,1-.25.58.83.83,0,0,1-.57.22h-.33a.8.8,0,0,1-.57-.23.78.78,0,0,1-.23-.57V132.51a.83.83,0,0,1,.22-.57.78.78,0,0,1,.58-.25h.33a.81.81,0,0,1,.59.23.78.78,0,0,1,.23.59v3.8l4.88-4.25a3.28,3.28,0,0,1,.37-.24,1.34,1.34,0,0,1,.58-.13h.3a.79.79,0,0,1,.76.77.68.68,0,0,1-.21.51L553,138.13l6.24,5.66a.75.75,0,0,1,.24.54.77.77,0,0,1-.22.54A.76.76,0,0,1,558.74,145.1Zm-7.33-6.9,6.59,5.93a1.83,1.83,0,0,0,.22.13.56.56,0,0,0,.21,0h.31l-6.93-6.17,6.42-5.63H558a.49.49,0,0,0-.2,0,1.32,1.32,0,0,0-.25.16l-6.18,5.38v-5.56h-.35v11.79h.33Z"/><path class="cls-1" d="M574.07,144.59a.42.42,0,0,1-.11-.29V132.51a.44.44,0,0,1,.11-.3.39.39,0,0,1,.3-.12h7.12a.42.42,0,0,1,.31.11.41.41,0,0,1,.11.31v.27a.4.4,0,0,1-.11.29.45.45,0,0,1-.31.1h-6.38v4.59h6a.42.42,0,0,1,.31.11.41.41,0,0,1,.11.31v.27a.37.37,0,0,1-.12.29.44.44,0,0,1-.3.1h-6v4.78h6.53a.37.37,0,0,1,.42.41v.27a.38.38,0,0,1-.12.29.44.44,0,0,1-.3.11h-7.27A.42.42,0,0,1,574.07,144.59Z"/><path class="cls-1" d="M581.64,145.1h-7.27a.83.83,0,0,1-.58-.23.78.78,0,0,1-.23-.57V132.51a.83.83,0,0,1,.22-.57.78.78,0,0,1,.59-.25h7.12a.84.84,0,0,1,.6.23.81.81,0,0,1,.22.59v.27a.74.74,0,0,1-.25.58.83.83,0,0,1-.57.22h-6v3.78h5.58a.81.81,0,0,1,.59.23.78.78,0,0,1,.23.59v.27a.74.74,0,0,1-.25.58.83.83,0,0,1-.57.22h-5.58v4h6.13a.81.81,0,0,1,.59.23.78.78,0,0,1,.23.59v.27a.78.78,0,0,1-.25.58A.83.83,0,0,1,581.64,145.1Zm-7.28-.81h7.28l0-.26h-6.95v-5.58h6.38l0-.26h-6.4v-5.4h6.78l0-.26h-7.14Z"/><path class="cls-1" d="M600.48,144.59a.41.41,0,0,1-.1-.29V133.17h-3.62a.42.42,0,0,1-.3-.1.4.4,0,0,1-.11-.29v-.27a.44.44,0,0,1,.11-.3.39.39,0,0,1,.3-.12h8.37a.43.43,0,0,1,.31.11.45.45,0,0,1,.11.31v.27a.37.37,0,0,1-.12.29.44.44,0,0,1-.3.1h-3.6V144.3a.38.38,0,0,1-.12.29.44.44,0,0,1-.3.11h-.33A.44.44,0,0,1,600.48,144.59Z"/><path class="cls-1" d="M601.11,145.1h-.33a.83.83,0,0,1-.58-.23.78.78,0,0,1-.23-.57V133.58h-3.21a.8.8,0,0,1-.58-.23.78.78,0,0,1-.23-.57v-.27a.83.83,0,0,1,.22-.57.78.78,0,0,1,.59-.25h8.37a.79.79,0,0,1,.82.82v.27a.78.78,0,0,1-.25.58.85.85,0,0,1-.57.22h-3.2V144.3a.78.78,0,0,1-.25.58A.85.85,0,0,1,601.11,145.1Zm-.33-.81h.33l0-11.52h4l0-.26h-8.39v.28h4Z"/><path class="cls-2" d="M17.35,106.68a10.34,10.34,0,0,0-14,15.18l24.89,23a10.33,10.33,0,1,0,14-15.17Z"/><path class="cls-2" d="M80.72,100.08a42.11,42.11,0,0,1,21.92-30,42.14,42.14,0,0,0-47.81,6L44.24,23.7A10.34,10.34,0,0,0,24,27.8l17.25,85.29c.08.55.15,1.09.25,1.64a42.18,42.18,0,0,0,61.16,30A42.19,42.19,0,0,1,80.72,100.08Z"/><path class="cls-3" d="M173.22,15.62A10.33,10.33,0,0,0,161,23.7L150.46,76a42.16,42.16,0,0,0-47.82-6,42.17,42.17,0,0,1,0,74.67,42.19,42.19,0,0,0,61.17-30c.09-.54.17-1.08.24-1.63L181.3,27.8A10.32,10.32,0,0,0,173.22,15.62Z"/><path class="cls-1" d="M124.56,100.08a42.08,42.08,0,0,0-21.92-30,42.17,42.17,0,0,0,0,74.67A42.18,42.18,0,0,0,124.56,100.08Z"/><path class="cls-1" d="M622,12.33h-2.45v-.89h6v.89h-2.47v7.19H622Z"/><path class="cls-1" d="M626.46,19.52V11.44h1.14l2.59,4.09a23,23,0,0,1,1.45,2.62h0c-.1-1.08-.12-2.06-.12-3.32V11.44h1v8.08h-1l-2.57-4.1a26.34,26.34,0,0,1-1.51-2.7h0c.06,1,.09,2,.09,3.34v3.45Z"/><path class="cls-1" d="M626.51,32a16,16,0,1,1,16-16A16,16,0,0,1,626.51,32Zm0-31a15,15,0,1,0,15,15A15,15,0,0,0,626.51,1Z"/></g></g></svg>