<?xml version="1.0" encoding="UTF-8"?>
<svg width="22px" height="22px" viewBox="0 0 22 22" version="1.1" xmlns="http://www.w3.org/2000/svg" xmlns:xlink="http://www.w3.org/1999/xlink">
    <!-- Generator: Sketch 51.2 (57519) - http://www.bohemiancoding.com/sketch -->
    <title>Group 4</title>
    <desc>Created with Sketch.</desc>
    <defs></defs>
    <g id="Page-1" stroke="none" stroke-width="1" fill="none" fill-rule="evenodd">
        <g id="Desktop-HD" transform="translate(-1259.000000, -1970.000000)">
            <g id="Group-4" transform="translate(1259.000000, 1970.000000)">
                <path d="M10.767,0 C4.821,0 0,4.821 0,10.767 C0,16.713 4.821,21.533 10.767,21.533 C16.714,21.533 21.533,16.713 21.533,10.767 C21.533,4.821 16.714,0 10.767,0" id="Fill-6" fill="#038CFF"></path>
                <g id="Group-2" transform="translate(6.000000, 6.000000)" fill="#FFFFFF">
                    <path d="M4.7432,2.5273 C3.8292,2.5273 3.1002,3.2553 3.1002,4.1703 C3.1002,5.0853 3.8292,5.8133 4.7432,5.8133 C5.6582,5.8133 6.3872,5.0853 6.3872,4.1703 C6.3872,3.2553 5.6582,2.5273 4.7432,2.5273" id="Fill-8"></path>
                    <path d="M7.3945,2.0449 C7.0585,2.0449 6.7965,1.7649 6.7965,1.4469 C6.7965,1.1109 7.0585,0.8499 7.3945,0.8499 C7.7115,0.8499 7.9735,1.1109 7.9735,1.4469 C7.9735,1.7649 7.7115,2.0449 7.3945,2.0449 M4.7435,6.7089 C3.3435,6.7089 2.2045,5.5699 2.2045,4.1699 C2.2045,2.7699 3.3435,1.6309 4.7435,1.6309 C6.1435,1.6309 7.2825,2.7699 7.2825,4.1699 C7.2825,5.5699 6.1435,6.7089 4.7435,6.7089 M8.6085,1.2579 C8.5145,1.0329 8.4035,0.8649 8.2345,0.6969 C8.0475,0.5109 7.8985,0.4179 7.6565,0.3239 C7.4885,0.2489 7.2265,0.1749 6.7415,0.1559 C6.2185,0.1179 6.0695,0.1179 4.7435,0.1179 C3.4175,0.1179 3.2685,0.1179 2.7465,0.1559 C2.2605,0.1749 1.9985,0.2489 1.8315,0.3239 C1.6065,0.4179 1.4385,0.5109 1.2705,0.6969 C1.0835,0.8649 0.9915,1.0329 0.8975,1.2579 C0.8235,1.4259 0.7485,1.6879 0.7295,2.1729 C0.6925,2.6949 0.6925,2.8449 0.6925,4.1699 C0.6925,5.4949 0.6925,5.6449 0.7295,6.1679 C0.7485,6.6529 0.8235,6.9149 0.8975,7.0829 C0.9915,7.3249 1.0835,7.4749 1.2705,7.6609 C1.4385,7.8289 1.6065,7.9409 1.8315,8.0349 C1.9985,8.0909 2.2605,8.1649 2.7465,8.2029 C3.2685,8.2219 3.4175,8.2219 4.7435,8.2219 C6.0695,8.2219 6.2185,8.2219 6.7415,8.2029 C7.2265,8.1649 7.4885,8.0909 7.6565,8.0349 C7.8985,7.9409 8.0475,7.8289 8.2345,7.6609 C8.4035,7.4749 8.5145,7.3249 8.6085,7.0829 C8.6645,6.9149 8.7395,6.6529 8.7765,6.1679 C8.7945,5.6449 8.7945,5.4949 8.7945,4.1699 C8.7945,2.8449 8.7945,2.6949 8.7765,2.1729 C8.7395,1.6879 8.6645,1.4259 8.6085,1.2579" id="Fill-4"></path>
                </g>
            </g>
        </g>
    </g>
</svg>