<?xml version="1.0" encoding="utf-8"?>
<!-- Generator: Adobe Illustrator 16.0.0, SVG Export Plug-In . SVG Version: 6.00 Build 0)  -->
<!DOCTYPE svg PUBLIC "-//W3C//DTD SVG 1.1//EN" "http://www.w3.org/Graphics/SVG/1.1/DTD/svg11.dtd">
<svg version="1.1" id="Layer_1" xmlns="http://www.w3.org/2000/svg" xmlns:xlink="http://www.w3.org/1999/xlink" x="0px" y="0px"
	 width="254.333px" height="63px" viewBox="0 0 254.333 63" enable-background="new 0 0 254.333 63" xml:space="preserve">
<g>
	<defs>
		<rect id="SVGID_1_" x="-14.333" y="-13.798" width="283.465" height="235.465"/>
	</defs>
	<clipPath id="SVGID_2_">
		<use xlink:href="#SVGID_1_"  overflow="visible"/>
	</clipPath>
	<g clip-path="url(#SVGID_2_)">
		<path fill="#F5EEFF" d="M103.48,11.02c0-0.353,0.13-0.657,0.392-0.914c0.259-0.257,0.568-0.385,0.927-0.385h3.714
			c0.358,0,0.668,0.128,0.929,0.385c0.26,0.257,0.391,0.561,0.391,0.914v31.569c0,0.353-0.131,0.658-0.391,0.914
			c-0.261,0.257-0.571,0.385-0.929,0.385h-3.714c-0.359,0-0.668-0.128-0.927-0.385c-0.262-0.256-0.392-0.561-0.392-0.914v-1.107
			c-0.684,0.77-1.629,1.444-2.835,2.021c-1.205,0.577-2.72,0.866-4.544,0.866c-2.117,0-3.982-0.521-5.594-1.564
			c-1.613-1.042-2.876-2.422-3.788-4.138c-0.912-1.716-1.417-3.585-1.514-5.607l-0.05-1.684l0.05-1.685
			c0.097-2.021,0.602-3.889,1.514-5.606c0.912-1.715,2.175-3.096,3.788-4.138c1.612-1.042,3.477-1.564,5.594-1.564
			c1.792,0,3.291,0.288,4.496,0.866c1.205,0.578,2.166,1.252,2.883,2.022V11.02z M93.146,36.814c1.091,1.188,2.565,1.78,4.422,1.78
			c1.629,0,2.981-0.473,4.056-1.419c1.075-0.946,1.693-2.269,1.857-3.97c0.065-0.642,0.098-1.251,0.098-1.829
			c0-0.578-0.033-1.188-0.098-1.829c-0.164-1.636-0.79-2.942-1.881-3.922c-1.092-0.978-2.436-1.468-4.032-1.468
			c-1.661,0-3.029,0.482-4.104,1.444c-1.075,0.963-1.711,2.439-1.906,4.427c-0.033,0.322-0.049,0.77-0.049,1.348
			C91.508,33.814,92.054,35.627,93.146,36.814"/>
		<path fill="#F5EEFF" d="M141.106,31.424c0,0.835-0.033,1.637-0.098,2.407c-0.164,1.957-0.766,3.737-1.808,5.341
			c-1.043,1.605-2.468,2.872-4.275,3.802c-1.809,0.93-3.869,1.396-6.182,1.396c-2.314,0-4.374-0.466-6.182-1.396
			c-1.808-0.93-3.234-2.197-4.275-3.802c-1.044-1.604-1.646-3.384-1.809-5.341c-0.033-0.386-0.048-1.187-0.048-2.407
			c0-1.251,0.015-2.069,0.048-2.454c0.163-1.989,0.765-3.785,1.809-5.389c1.041-1.604,2.467-2.872,4.275-3.802
			c1.808-0.93,3.868-1.396,6.182-1.396c2.313,0,4.373,0.466,6.182,1.396c1.808,0.93,3.232,2.198,4.275,3.802
			c1.042,1.604,1.644,3.4,1.808,5.389C141.073,29.74,141.106,30.558,141.106,31.424 M124.761,25.313
			c-1.092,0.77-1.735,2.069-1.93,3.898c-0.033,0.321-0.049,1.042-0.049,2.165c0,1.124,0.016,1.846,0.049,2.166
			c0.195,1.829,0.838,3.128,1.93,3.898c1.091,0.77,2.419,1.155,3.983,1.155s2.89-0.385,3.982-1.155
			c1.091-0.77,1.734-2.069,1.93-3.898c0.064-0.642,0.098-1.363,0.098-2.166c0-0.801-0.033-1.523-0.098-2.165
			c-0.195-1.829-0.839-3.128-1.93-3.898c-1.093-0.77-2.419-1.155-3.982-1.155S125.852,24.543,124.761,25.313"/>
		<path fill="#F5EEFF" d="M156.718,37.271c0.569,0.562,1.556,0.842,2.956,0.842h2.981c0.357,0,0.667,0.129,0.928,0.385
			c0.261,0.257,0.392,0.562,0.392,0.915v3.176c0,0.353-0.131,0.658-0.392,0.914c-0.261,0.257-0.57,0.385-0.928,0.385h-3.616
			c-3.096,0-5.457-0.746-7.086-2.238c-1.63-1.492-2.443-3.713-2.443-6.665V24.639h-3.226c-0.358,0-0.667-0.128-0.928-0.386
			c-0.261-0.256-0.391-0.56-0.391-0.914v-3.175c0-0.353,0.13-0.658,0.391-0.915c0.261-0.256,0.569-0.385,0.928-0.385h3.226v-7.844
			c0-0.353,0.13-0.657,0.392-0.915c0.26-0.256,0.569-0.384,0.928-0.384h3.714c0.358,0,0.668,0.128,0.929,0.384
			c0.26,0.258,0.392,0.562,0.392,0.915v7.844h6.303c0.358,0,0.668,0.129,0.929,0.385c0.261,0.257,0.391,0.562,0.391,0.915v3.175
			c0,0.354-0.13,0.658-0.391,0.914c-0.261,0.258-0.57,0.386-0.929,0.386h-6.303V34.84C155.864,35.899,156.148,36.71,156.718,37.271"
			/>
		<path fill="#F5EEFF" d="M194.417,31.376c0,0.802-0.017,1.364-0.049,1.684c-0.098,2.022-0.603,3.891-1.515,5.607
			c-0.912,1.716-2.175,3.096-3.787,4.138c-1.613,1.043-3.478,1.564-5.595,1.564c-1.825,0-3.34-0.289-4.545-0.866
			c-1.205-0.577-2.149-1.251-2.834-2.021v1.107c0,0.353-0.131,0.658-0.392,0.914c-0.26,0.257-0.57,0.385-0.928,0.385h-3.714
			c-0.358,0-0.668-0.128-0.929-0.385c-0.26-0.256-0.391-0.561-0.391-0.914V11.021c0-0.353,0.131-0.657,0.391-0.915
			c0.261-0.256,0.57-0.384,0.929-0.384h3.714c0.357,0,0.668,0.128,0.928,0.384c0.261,0.258,0.392,0.562,0.392,0.915v10.251
			c0.716-0.771,1.678-1.444,2.883-2.022c1.205-0.578,2.704-0.866,4.496-0.866c2.117,0,3.981,0.522,5.595,1.564
			c1.612,1.042,2.875,2.423,3.787,4.138c0.912,1.717,1.417,3.585,1.515,5.606C194.401,30.013,194.417,30.575,194.417,31.376
			 M177.975,25.625c-1.093,0.979-1.72,2.286-1.882,3.922c-0.033,0.322-0.049,0.931-0.049,1.829s0.016,1.508,0.049,1.829
			c0.162,1.701,0.781,3.024,1.856,3.97s2.427,1.419,4.057,1.419c1.66,0,3.029-0.481,4.104-1.443c1.074-0.963,1.71-2.438,1.905-4.428
			c0.065-0.641,0.098-1.09,0.098-1.347c0-2.438-0.554-4.251-1.661-5.438c-1.108-1.187-2.59-1.781-4.446-1.781
			C180.41,24.157,179.066,24.647,177.975,25.625"/>
		<path fill="#F5EEFF" d="M219.411,20.981c1.972,1.732,2.957,4.22,2.957,7.459v14.149c0,0.353-0.131,0.657-0.391,0.914
			c-0.261,0.257-0.57,0.385-0.929,0.385h-3.714c-0.358,0-0.668-0.128-0.928-0.385c-0.262-0.257-0.392-0.561-0.392-0.914V41
			c-0.749,1.028-1.783,1.846-3.104,2.454c-1.318,0.609-2.906,0.915-4.764,0.915c-2.737,0-4.904-0.698-6.499-2.093
			c-1.597-1.396-2.395-3.2-2.395-5.414c0-2.149,0.773-3.858,2.321-5.125c1.547-1.267,3.705-2.142,6.475-2.623l7.965-1.348
			c0-1.218-0.415-2.124-1.246-2.718c-0.83-0.594-1.946-0.891-3.347-0.891c-0.75,0-1.361,0.105-1.833,0.314
			c-0.473,0.208-0.937,0.521-1.393,0.938c-0.488,0.449-1.025,0.673-1.612,0.673h-4.545c-0.325,0-0.594-0.103-0.806-0.313
			c-0.213-0.208-0.302-0.457-0.269-0.746c0.195-0.993,0.708-2.004,1.539-3.031c0.831-1.026,2.003-1.885,3.519-2.575
			c1.514-0.689,3.314-1.034,5.399-1.034C214.777,18.383,217.441,19.25,219.411,20.981 M216.015,32.724l-6.646,1.155
			c-1.302,0.225-2.255,0.554-2.857,0.987c-0.603,0.433-0.904,1.019-0.904,1.756c0,0.643,0.334,1.131,1.002,1.468
			c0.667,0.337,1.507,0.505,2.517,0.505c1.433,0,2.671-0.256,3.714-0.77c1.042-0.513,1.833-1.179,2.37-1.997
			c0.537-0.818,0.806-1.691,0.806-2.623V32.724z"/>
		<path fill="#F5EEFF" d="M235.806,43.503c-0.261,0.257-0.57,0.385-0.928,0.385h-3.715c-0.358,0-0.669-0.128-0.929-0.385
			c-0.26-0.256-0.391-0.561-0.391-0.914V11.02c0-0.353,0.131-0.657,0.391-0.914c0.26-0.257,0.57-0.385,0.929-0.385h3.715
			c0.357,0,0.667,0.128,0.928,0.385c0.26,0.257,0.391,0.561,0.391,0.914v31.569C236.197,42.942,236.066,43.247,235.806,43.503"/>
		<path fill="#F5EEFF" d="M249.878,43.503c-0.261,0.257-0.57,0.385-0.929,0.385h-3.714c-0.358,0-0.667-0.128-0.928-0.385
			c-0.262-0.256-0.391-0.561-0.391-0.914V11.02c0-0.353,0.129-0.657,0.391-0.914c0.261-0.257,0.569-0.385,0.928-0.385h3.714
			c0.358,0,0.668,0.128,0.929,0.385c0.261,0.257,0.392,0.561,0.392,0.914v31.569C250.27,42.942,250.139,43.247,249.878,43.503"/>
		<path fill="#038CFF" d="M10.046,40.817c-1.723-1.594-4.413-1.489-6.008,0.234c-1.594,1.724-1.489,4.413,0.235,6.008l10.236,9.469
			c0.818,0.756,1.853,1.131,2.886,1.131c1.144,0,2.284-0.459,3.122-1.364c1.594-1.724,1.489-4.414-0.234-6.008L10.046,40.817z"/>
		<path fill="#038CFF" d="M36.108,38.102c0.97-5.498,4.431-9.927,9.016-12.341c-3.285-1.73-7.144-2.427-11.083-1.732
			c-3.32,0.585-6.25,2.082-8.583,4.183L21.104,6.685c-0.466-2.301-2.713-3.79-5.01-3.323c-2.301,0.466-3.789,2.708-3.323,5.009
			l7.095,35.081c0.031,0.225,0.062,0.45,0.102,0.675c1.664,9.436,10.662,15.737,20.098,14.074c1.814-0.321,3.51-0.913,5.058-1.726
			C38.619,53.06,34.764,45.725,36.108,38.102"/>
		<path fill="#FF0653" d="M74.153,3.362c-2.299-0.468-4.544,1.022-5.009,3.324L64.79,28.212c-2.333-2.102-5.263-3.599-8.583-4.184
			c-3.939-0.694-7.799,0.002-11.083,1.732c4.585,2.414,8.046,6.844,9.015,12.341c1.345,7.623-2.51,14.958-9.015,18.373
			c1.548,0.813,3.244,1.406,5.057,1.726c9.436,1.663,18.435-4.637,20.099-14.073c0.04-0.224,0.07-0.447,0.101-0.67l7.096-35.087
			C77.942,6.07,76.454,3.827,74.153,3.362"/>
		<path fill="#F5EEFF" d="M54.139,38.102c-0.969-5.498-4.431-9.927-9.016-12.341c-4.584,2.414-8.046,6.843-9.015,12.341
			c-1.344,7.623,2.51,14.958,9.015,18.373C51.628,53.06,55.483,45.725,54.139,38.102"/>
		<path fill="#F5EEFF" d="M85.834,57.366c-0.03-0.03-0.046-0.07-0.046-0.12v-4.914c0-0.049,0.016-0.091,0.046-0.123
			c0.03-0.033,0.071-0.049,0.122-0.049h2.971c0.055,0,0.099,0.015,0.129,0.045c0.03,0.03,0.046,0.073,0.046,0.127v0.113
			c0,0.05-0.017,0.09-0.05,0.12c-0.033,0.03-0.074,0.045-0.125,0.045h-2.659v1.913h2.491c0.056,0,0.099,0.015,0.13,0.045
			c0.03,0.03,0.045,0.072,0.045,0.128v0.112c0,0.05-0.017,0.09-0.049,0.12c-0.033,0.03-0.075,0.045-0.126,0.045h-2.491v1.988h2.72
			c0.055,0,0.098,0.015,0.129,0.045c0.03,0.03,0.046,0.072,0.046,0.128v0.112c0,0.05-0.017,0.09-0.05,0.12
			c-0.033,0.03-0.075,0.045-0.125,0.045h-3.032C85.905,57.411,85.864,57.396,85.834,57.366"/>
		<path fill="none" stroke="#F5EEFF" stroke-width="0.333" stroke-miterlimit="10" d="M85.834,57.366
			c-0.03-0.03-0.046-0.07-0.046-0.12v-4.914c0-0.049,0.016-0.091,0.046-0.123c0.03-0.033,0.071-0.049,0.122-0.049h2.971
			c0.055,0,0.099,0.015,0.129,0.045c0.03,0.03,0.046,0.073,0.046,0.127v0.113c0,0.05-0.017,0.09-0.05,0.12
			c-0.033,0.03-0.074,0.045-0.125,0.045h-2.659v1.913h2.491c0.056,0,0.099,0.015,0.13,0.045c0.03,0.03,0.045,0.072,0.045,0.128
			v0.112c0,0.05-0.017,0.09-0.049,0.12c-0.033,0.03-0.075,0.045-0.126,0.045h-2.491v1.988h2.72c0.055,0,0.098,0.015,0.129,0.045
			c0.03,0.03,0.046,0.072,0.046,0.128v0.112c0,0.05-0.017,0.09-0.05,0.12c-0.033,0.03-0.075,0.045-0.125,0.045h-3.032
			C85.905,57.411,85.864,57.396,85.834,57.366z"/>
		<path fill="#F5EEFF" d="M96.826,57.23l-1.768-4.838l-0.015-0.083c0-0.04,0.015-0.075,0.046-0.105
			c0.03-0.03,0.066-0.045,0.107-0.045h0.16c0.045,0,0.082,0.012,0.11,0.038c0.028,0.025,0.047,0.05,0.057,0.075l1.668,4.59
			l1.669-4.59c0.01-0.025,0.029-0.05,0.057-0.075c0.028-0.026,0.065-0.038,0.11-0.038h0.16c0.041,0,0.077,0.015,0.107,0.045
			c0.031,0.03,0.046,0.065,0.046,0.105l-0.015,0.083l-1.768,4.838c-0.045,0.12-0.132,0.18-0.259,0.18h-0.213
			C96.958,57.41,96.871,57.35,96.826,57.23"/>
		<path fill="none" stroke="#F5EEFF" stroke-width="0.333" stroke-miterlimit="10" d="M96.826,57.23l-1.768-4.838l-0.015-0.083
			c0-0.04,0.015-0.075,0.046-0.105c0.03-0.03,0.066-0.045,0.107-0.045h0.16c0.045,0,0.082,0.012,0.11,0.038
			c0.028,0.025,0.047,0.05,0.057,0.075l1.668,4.59l1.669-4.59c0.01-0.025,0.029-0.05,0.057-0.075
			c0.028-0.026,0.065-0.038,0.11-0.038h0.16c0.041,0,0.077,0.015,0.107,0.045c0.031,0.03,0.046,0.065,0.046,0.105l-0.015,0.083
			l-1.768,4.838c-0.045,0.12-0.132,0.18-0.259,0.18h-0.213C96.958,57.41,96.871,57.35,96.826,57.23z"/>
		<path fill="#F5EEFF" d="M105.639,57.366c-0.03-0.03-0.046-0.07-0.046-0.12v-4.914c0-0.049,0.016-0.091,0.046-0.123
			c0.03-0.033,0.071-0.049,0.122-0.049h2.971c0.055,0,0.099,0.015,0.129,0.045c0.03,0.03,0.046,0.073,0.046,0.127v0.113
			c0,0.05-0.017,0.09-0.05,0.12c-0.033,0.03-0.074,0.045-0.125,0.045h-2.659v1.913h2.491c0.056,0,0.099,0.015,0.13,0.045
			c0.03,0.03,0.045,0.072,0.045,0.128v0.112c0,0.05-0.017,0.09-0.049,0.12c-0.033,0.03-0.075,0.045-0.126,0.045h-2.491v1.988h2.72
			c0.055,0,0.098,0.015,0.129,0.045c0.03,0.03,0.046,0.072,0.046,0.128v0.112c0,0.05-0.017,0.09-0.05,0.12
			c-0.033,0.03-0.075,0.045-0.125,0.045h-3.032C105.709,57.411,105.668,57.396,105.639,57.366"/>
		<path fill="none" stroke="#F5EEFF" stroke-width="0.333" stroke-miterlimit="10" d="M105.639,57.366
			c-0.03-0.03-0.046-0.07-0.046-0.12v-4.914c0-0.049,0.016-0.091,0.046-0.123c0.03-0.033,0.071-0.049,0.122-0.049h2.971
			c0.055,0,0.099,0.015,0.129,0.045c0.03,0.03,0.046,0.073,0.046,0.127v0.113c0,0.05-0.017,0.09-0.05,0.12
			c-0.033,0.03-0.074,0.045-0.125,0.045h-2.659v1.913h2.491c0.056,0,0.099,0.015,0.13,0.045c0.03,0.03,0.045,0.072,0.045,0.128
			v0.112c0,0.05-0.017,0.09-0.049,0.12c-0.033,0.03-0.075,0.045-0.126,0.045h-2.491v1.988h2.72c0.055,0,0.098,0.015,0.129,0.045
			c0.03,0.03,0.046,0.072,0.046,0.128v0.112c0,0.05-0.017,0.09-0.05,0.12c-0.033,0.03-0.075,0.045-0.125,0.045h-3.032
			C105.709,57.411,105.668,57.396,105.639,57.366z"/>
		<path fill="#F5EEFF" d="M115.405,57.365c-0.031-0.03-0.046-0.069-0.046-0.12v-4.913c0-0.05,0.015-0.092,0.046-0.124
			c0.03-0.032,0.071-0.049,0.122-0.049h1.774c0.549,0,0.978,0.128,1.288,0.383c0.309,0.255,0.465,0.633,0.465,1.133
			c0,0.395-0.1,0.713-0.298,0.956c-0.198,0.243-0.482,0.406-0.853,0.491l1.227,2.056c0.015,0.03,0.022,0.058,0.022,0.083
			c0,0.04-0.015,0.074-0.045,0.104c-0.031,0.03-0.067,0.045-0.107,0.045h-0.091c-0.077,0-0.134-0.016-0.172-0.048
			c-0.038-0.033-0.078-0.084-0.118-0.154l-1.211-2.018h-1.569v2.055c0,0.051-0.017,0.09-0.05,0.12
			c-0.033,0.03-0.075,0.045-0.126,0.045h-0.136C115.476,57.41,115.435,57.395,115.405,57.365 M117.263,54.74
			c0.442,0,0.771-0.089,0.987-0.267c0.216-0.177,0.324-0.443,0.324-0.798s-0.108-0.622-0.324-0.799
			c-0.216-0.178-0.545-0.266-0.987-0.266h-1.424v2.13H117.263z"/>
		<path fill="none" stroke="#F5EEFF" stroke-width="0.333" stroke-miterlimit="10" d="M115.405,57.365
			c-0.031-0.03-0.046-0.069-0.046-0.12v-4.913c0-0.05,0.015-0.092,0.046-0.124c0.03-0.032,0.071-0.049,0.122-0.049h1.774
			c0.549,0,0.978,0.128,1.288,0.383c0.309,0.255,0.465,0.633,0.465,1.133c0,0.395-0.1,0.713-0.298,0.956
			c-0.198,0.243-0.482,0.406-0.853,0.491l1.227,2.056c0.015,0.03,0.022,0.058,0.022,0.083c0,0.04-0.015,0.074-0.045,0.104
			c-0.031,0.03-0.067,0.045-0.107,0.045h-0.091c-0.077,0-0.134-0.016-0.172-0.048c-0.038-0.033-0.078-0.084-0.118-0.154
			l-1.211-2.018h-1.569v2.055c0,0.051-0.017,0.09-0.05,0.12c-0.033,0.03-0.075,0.045-0.126,0.045h-0.136
			C115.476,57.41,115.435,57.395,115.405,57.365z M117.263,54.74c0.442,0,0.771-0.089,0.987-0.267
			c0.216-0.177,0.324-0.443,0.324-0.798s-0.108-0.622-0.324-0.799c-0.216-0.178-0.545-0.266-0.987-0.266h-1.424v2.13H117.263z"/>
		<path fill="#F5EEFF" d="M126.807,57.366c-0.03-0.03-0.046-0.07-0.046-0.12v-1.838l-1.858-3c-0.021-0.041-0.031-0.073-0.031-0.098
			c0-0.04,0.016-0.075,0.046-0.105c0.031-0.03,0.066-0.045,0.107-0.045h0.152c0.071,0,0.13,0.038,0.175,0.112l1.653,2.648
			l1.652-2.648c0.045-0.074,0.104-0.112,0.176-0.112h0.152c0.04,0,0.076,0.015,0.106,0.045c0.03,0.03,0.046,0.065,0.046,0.105
			c0,0.025-0.011,0.057-0.031,0.098l-1.857,3v1.838c0,0.05-0.018,0.09-0.051,0.12c-0.032,0.03-0.074,0.045-0.125,0.045h-0.145
			C126.878,57.411,126.837,57.396,126.807,57.366"/>
		<path fill="none" stroke="#F5EEFF" stroke-width="0.333" stroke-miterlimit="10" d="M126.807,57.366
			c-0.03-0.03-0.046-0.07-0.046-0.12v-1.838l-1.858-3c-0.021-0.041-0.031-0.073-0.031-0.098c0-0.04,0.016-0.075,0.046-0.105
			c0.031-0.03,0.066-0.045,0.107-0.045h0.152c0.071,0,0.13,0.038,0.175,0.112l1.653,2.648l1.652-2.648
			c0.045-0.074,0.104-0.112,0.176-0.112h0.152c0.04,0,0.076,0.015,0.106,0.045c0.03,0.03,0.046,0.065,0.046,0.105
			c0,0.025-0.011,0.057-0.031,0.098l-1.857,3v1.838c0,0.05-0.018,0.09-0.051,0.12c-0.032,0.03-0.074,0.045-0.125,0.045h-0.145
			C126.878,57.411,126.837,57.396,126.807,57.366z"/>
		<path fill="#F5EEFF" d="M136.594,57.366c-0.03-0.03-0.045-0.07-0.045-0.12v-4.636h-1.509c-0.051,0-0.092-0.015-0.122-0.045
			c-0.03-0.03-0.045-0.07-0.045-0.12v-0.113c0-0.049,0.015-0.091,0.045-0.123c0.03-0.033,0.071-0.049,0.122-0.049h3.489
			c0.056,0,0.099,0.015,0.129,0.045c0.03,0.03,0.046,0.073,0.046,0.127v0.113c0,0.05-0.017,0.09-0.05,0.12
			c-0.033,0.03-0.074,0.045-0.125,0.045h-1.501v4.636c0,0.05-0.017,0.09-0.05,0.12c-0.033,0.03-0.074,0.045-0.125,0.045h-0.138
			C136.666,57.411,136.625,57.396,136.594,57.366"/>
		<path fill="none" stroke="#F5EEFF" stroke-width="0.333" stroke-miterlimit="10" d="M136.594,57.366
			c-0.03-0.03-0.045-0.07-0.045-0.12v-4.636h-1.509c-0.051,0-0.092-0.015-0.122-0.045c-0.03-0.03-0.045-0.07-0.045-0.12v-0.113
			c0-0.049,0.015-0.091,0.045-0.123c0.03-0.033,0.071-0.049,0.122-0.049h3.489c0.056,0,0.099,0.015,0.129,0.045
			c0.03,0.03,0.046,0.073,0.046,0.127v0.113c0,0.05-0.017,0.09-0.05,0.12c-0.033,0.03-0.074,0.045-0.125,0.045h-1.501v4.636
			c0,0.05-0.017,0.09-0.05,0.12c-0.033,0.03-0.074,0.045-0.125,0.045h-0.138C136.666,57.411,136.625,57.396,136.594,57.366z"/>
		<path fill="#F5EEFF" d="M144.928,57.366c-0.03-0.03-0.046-0.07-0.046-0.12v-4.914c0-0.049,0.016-0.091,0.046-0.123
			c0.03-0.033,0.071-0.049,0.122-0.049h0.137c0.056,0,0.1,0.015,0.13,0.045c0.03,0.03,0.046,0.073,0.046,0.127v2.191h2.939v-2.191
			c0-0.049,0.016-0.091,0.046-0.123c0.03-0.033,0.071-0.049,0.122-0.049h0.137c0.057,0,0.1,0.015,0.13,0.045
			c0.03,0.03,0.045,0.073,0.045,0.127v4.914c0,0.05-0.016,0.09-0.049,0.12c-0.034,0.03-0.076,0.045-0.126,0.045h-0.137
			c-0.051,0-0.092-0.015-0.122-0.045c-0.03-0.03-0.046-0.07-0.046-0.12v-2.273h-2.939v2.273c0,0.05-0.017,0.09-0.05,0.12
			c-0.033,0.03-0.075,0.045-0.126,0.045h-0.137C145,57.411,144.958,57.396,144.928,57.366"/>
		<path fill="none" stroke="#F5EEFF" stroke-width="0.333" stroke-miterlimit="10" d="M144.928,57.366
			c-0.03-0.03-0.046-0.07-0.046-0.12v-4.914c0-0.049,0.016-0.091,0.046-0.123c0.03-0.033,0.071-0.049,0.122-0.049h0.137
			c0.056,0,0.1,0.015,0.13,0.045c0.03,0.03,0.046,0.073,0.046,0.127v2.191h2.939v-2.191c0-0.049,0.016-0.091,0.046-0.123
			c0.03-0.033,0.071-0.049,0.122-0.049h0.137c0.057,0,0.1,0.015,0.13,0.045c0.03,0.03,0.045,0.073,0.045,0.127v4.914
			c0,0.05-0.016,0.09-0.049,0.12c-0.034,0.03-0.076,0.045-0.126,0.045h-0.137c-0.051,0-0.092-0.015-0.122-0.045
			c-0.03-0.03-0.046-0.07-0.046-0.12v-2.273h-2.939v2.273c0,0.05-0.017,0.09-0.05,0.12c-0.033,0.03-0.075,0.045-0.126,0.045h-0.137
			C145,57.411,144.958,57.396,144.928,57.366z"/>
		<path fill="#F5EEFF" d="M155.516,57.366c-0.03-0.03-0.046-0.07-0.046-0.12v-4.921c0-0.05,0.016-0.09,0.046-0.12
			c0.03-0.03,0.071-0.045,0.122-0.045h0.145c0.051,0,0.092,0.015,0.122,0.045c0.03,0.03,0.046,0.07,0.046,0.12v4.921
			c0,0.05-0.016,0.09-0.046,0.12c-0.03,0.03-0.071,0.045-0.122,0.045h-0.145C155.587,57.411,155.546,57.396,155.516,57.366"/>
		<path fill="none" stroke="#F5EEFF" stroke-width="0.333" stroke-miterlimit="10" d="M155.516,57.366
			c-0.03-0.03-0.046-0.07-0.046-0.12v-4.921c0-0.05,0.016-0.09,0.046-0.12c0.03-0.03,0.071-0.045,0.122-0.045h0.145
			c0.051,0,0.092,0.015,0.122,0.045c0.03,0.03,0.046,0.07,0.046,0.12v4.921c0,0.05-0.016,0.09-0.046,0.12
			c-0.03,0.03-0.071,0.045-0.122,0.045h-0.145C155.587,57.411,155.546,57.396,155.516,57.366z"/>
		<path fill="#F5EEFF" d="M162.684,57.366c-0.03-0.03-0.046-0.07-0.046-0.12v-4.914c0-0.049,0.016-0.091,0.046-0.123
			c0.03-0.033,0.071-0.049,0.122-0.049h0.16c0.065,0,0.119,0.03,0.159,0.09l2.812,4.231v-4.149c0-0.049,0.015-0.091,0.045-0.123
			c0.031-0.033,0.071-0.049,0.122-0.049h0.138c0.056,0,0.099,0.015,0.13,0.045c0.029,0.03,0.045,0.073,0.045,0.127v4.907
			c0,0.049-0.016,0.091-0.045,0.123c-0.031,0.033-0.072,0.049-0.123,0.049h-0.167c-0.066,0-0.119-0.03-0.16-0.09l-2.803-4.216v4.141
			c0,0.05-0.017,0.09-0.05,0.12c-0.033,0.03-0.075,0.045-0.126,0.045h-0.137C162.755,57.411,162.714,57.396,162.684,57.366"/>
		<path fill="none" stroke="#F5EEFF" stroke-width="0.333" stroke-miterlimit="10" d="M162.684,57.366
			c-0.03-0.03-0.046-0.07-0.046-0.12v-4.914c0-0.049,0.016-0.091,0.046-0.123c0.03-0.033,0.071-0.049,0.122-0.049h0.16
			c0.065,0,0.119,0.03,0.159,0.09l2.812,4.231v-4.149c0-0.049,0.015-0.091,0.045-0.123c0.031-0.033,0.071-0.049,0.122-0.049h0.138
			c0.056,0,0.099,0.015,0.13,0.045c0.029,0.03,0.045,0.073,0.045,0.127v4.907c0,0.049-0.016,0.091-0.045,0.123
			c-0.031,0.033-0.072,0.049-0.123,0.049h-0.167c-0.066,0-0.119-0.03-0.16-0.09l-2.803-4.216v4.141c0,0.05-0.017,0.09-0.05,0.12
			c-0.033,0.03-0.075,0.045-0.126,0.045h-0.137C162.755,57.411,162.714,57.396,162.684,57.366z"/>
		<path fill="#F5EEFF" d="M173.455,56.945c-0.351-0.36-0.536-0.842-0.556-1.448c-0.006-0.15-0.008-0.387-0.008-0.712
			c0-0.325,0.002-0.563,0.008-0.713c0.02-0.605,0.205-1.087,0.556-1.448c0.351-0.36,0.843-0.54,1.478-0.54
			c0.432,0,0.795,0.08,1.09,0.24c0.294,0.161,0.514,0.349,0.658,0.567c0.146,0.217,0.223,0.411,0.232,0.581v0.015
			c0,0.04-0.015,0.073-0.046,0.098c-0.03,0.025-0.068,0.037-0.114,0.037h-0.167c-0.046,0-0.079-0.01-0.1-0.03
			c-0.02-0.02-0.04-0.06-0.061-0.12c-0.086-0.265-0.253-0.487-0.499-0.668c-0.246-0.18-0.577-0.27-0.994-0.27
			c-0.472,0-0.844,0.128-1.115,0.383c-0.272,0.255-0.418,0.653-0.438,1.193c-0.005,0.149-0.008,0.375-0.008,0.675
			c0,0.3,0.003,0.525,0.008,0.675c0.021,0.54,0.166,0.938,0.438,1.193c0.271,0.255,0.644,0.382,1.115,0.382
			c0.473,0,0.854-0.132,1.143-0.397c0.29-0.265,0.435-0.658,0.435-1.178v-0.383h-1.325c-0.051,0-0.092-0.016-0.122-0.049
			c-0.03-0.032-0.046-0.073-0.046-0.123V54.8c0-0.05,0.016-0.091,0.046-0.124c0.03-0.032,0.071-0.049,0.122-0.049h1.63
			c0.056,0,0.099,0.015,0.129,0.045c0.031,0.03,0.046,0.073,0.046,0.128v0.66c0,0.4-0.081,0.753-0.243,1.058
			c-0.163,0.305-0.399,0.542-0.709,0.712c-0.31,0.171-0.678,0.256-1.104,0.256C174.297,57.486,173.805,57.305,173.455,56.945"/>
		<path fill="none" stroke="#F5EEFF" stroke-width="0.333" stroke-miterlimit="10" d="M173.455,56.945
			c-0.351-0.36-0.536-0.842-0.556-1.448c-0.006-0.15-0.008-0.387-0.008-0.712c0-0.325,0.002-0.563,0.008-0.713
			c0.02-0.605,0.205-1.087,0.556-1.448c0.351-0.36,0.843-0.54,1.478-0.54c0.432,0,0.795,0.08,1.09,0.24
			c0.294,0.161,0.514,0.349,0.658,0.567c0.146,0.217,0.223,0.411,0.232,0.581v0.015c0,0.04-0.015,0.073-0.046,0.098
			c-0.03,0.025-0.068,0.037-0.114,0.037h-0.167c-0.046,0-0.079-0.01-0.1-0.03c-0.02-0.02-0.04-0.06-0.061-0.12
			c-0.086-0.265-0.253-0.487-0.499-0.668c-0.246-0.18-0.577-0.27-0.994-0.27c-0.472,0-0.844,0.128-1.115,0.383
			c-0.272,0.255-0.418,0.653-0.438,1.193c-0.005,0.149-0.008,0.375-0.008,0.675c0,0.3,0.003,0.525,0.008,0.675
			c0.021,0.54,0.166,0.938,0.438,1.193c0.271,0.255,0.644,0.382,1.115,0.382c0.473,0,0.854-0.132,1.143-0.397
			c0.29-0.265,0.435-0.658,0.435-1.178v-0.383h-1.325c-0.051,0-0.092-0.016-0.122-0.049c-0.03-0.032-0.046-0.073-0.046-0.123V54.8
			c0-0.05,0.016-0.091,0.046-0.124c0.03-0.032,0.071-0.049,0.122-0.049h1.63c0.056,0,0.099,0.015,0.129,0.045
			c0.031,0.03,0.046,0.073,0.046,0.128v0.66c0,0.4-0.081,0.753-0.243,1.058c-0.163,0.305-0.399,0.542-0.709,0.712
			c-0.31,0.171-0.678,0.256-1.104,0.256C174.297,57.486,173.805,57.305,173.455,56.945z"/>
		<path fill="#F5EEFF" d="M190.959,56.934c-0.33-0.367-0.508-0.861-0.533-1.481c-0.005-0.135-0.008-0.355-0.008-0.661
			c0-0.31,0.003-0.535,0.008-0.674c0.025-0.621,0.203-1.115,0.533-1.482c0.33-0.368,0.825-0.552,1.485-0.552
			c0.452,0,0.828,0.082,1.127,0.244c0.3,0.163,0.522,0.368,0.667,0.615c0.145,0.248,0.225,0.502,0.239,0.762v0.015
			c0,0.04-0.015,0.072-0.045,0.097c-0.031,0.025-0.069,0.038-0.114,0.038h-0.152c-0.092,0-0.147-0.053-0.168-0.158
			c-0.097-0.425-0.271-0.725-0.525-0.9s-0.597-0.262-1.028-0.262c-0.478,0-0.849,0.132-1.112,0.397
			c-0.264,0.265-0.406,0.673-0.427,1.223c-0.005,0.135-0.008,0.342-0.008,0.623c0,0.28,0.003,0.492,0.008,0.637
			c0.021,0.55,0.163,0.958,0.427,1.223c0.264,0.265,0.635,0.398,1.112,0.398c0.432,0,0.774-0.088,1.028-0.263s0.429-0.475,0.525-0.9
			c0.021-0.106,0.076-0.158,0.168-0.158h0.152c0.045,0,0.085,0.014,0.119,0.041c0.031,0.028,0.046,0.064,0.04,0.109
			c-0.015,0.26-0.095,0.514-0.239,0.762c-0.145,0.247-0.367,0.453-0.667,0.615c-0.299,0.162-0.675,0.244-1.127,0.244
			C191.785,57.486,191.29,57.302,190.959,56.934"/>
		<path fill="none" stroke="#F5EEFF" stroke-width="0.333" stroke-miterlimit="10" d="M190.959,56.934
			c-0.33-0.367-0.508-0.861-0.533-1.481c-0.005-0.135-0.008-0.355-0.008-0.661c0-0.31,0.003-0.535,0.008-0.674
			c0.025-0.621,0.203-1.115,0.533-1.482c0.33-0.368,0.825-0.552,1.485-0.552c0.452,0,0.828,0.082,1.127,0.244
			c0.3,0.163,0.522,0.368,0.667,0.615c0.145,0.248,0.225,0.502,0.239,0.762v0.015c0,0.04-0.015,0.072-0.045,0.097
			c-0.031,0.025-0.069,0.038-0.114,0.038h-0.152c-0.092,0-0.147-0.053-0.168-0.158c-0.097-0.425-0.271-0.725-0.525-0.9
			s-0.597-0.262-1.028-0.262c-0.478,0-0.849,0.132-1.112,0.397c-0.264,0.265-0.406,0.673-0.427,1.223
			c-0.005,0.135-0.008,0.342-0.008,0.623c0,0.28,0.003,0.492,0.008,0.637c0.021,0.55,0.163,0.958,0.427,1.223
			c0.264,0.265,0.635,0.398,1.112,0.398c0.432,0,0.774-0.088,1.028-0.263s0.429-0.475,0.525-0.9
			c0.021-0.106,0.076-0.158,0.168-0.158h0.152c0.045,0,0.085,0.014,0.119,0.041c0.031,0.028,0.046,0.064,0.04,0.109
			c-0.015,0.26-0.095,0.514-0.239,0.762c-0.145,0.247-0.367,0.453-0.667,0.615c-0.299,0.162-0.675,0.244-1.127,0.244
			C191.785,57.486,191.29,57.302,190.959,56.934z"/>
		<path fill="#F5EEFF" d="M200.9,57.365c-0.03-0.03-0.046-0.069-0.046-0.12v-4.913c0-0.05,0.016-0.092,0.046-0.124
			s0.071-0.049,0.122-0.049h1.774c0.549,0,0.978,0.128,1.287,0.383c0.311,0.255,0.465,0.633,0.465,1.133
			c0,0.395-0.099,0.713-0.297,0.956c-0.198,0.243-0.482,0.406-0.854,0.491l1.227,2.056c0.016,0.03,0.023,0.058,0.023,0.083
			c0,0.04-0.016,0.074-0.046,0.104c-0.031,0.03-0.066,0.045-0.106,0.045h-0.091c-0.077,0-0.134-0.016-0.172-0.048
			c-0.038-0.033-0.078-0.084-0.118-0.154l-1.212-2.018h-1.568v2.055c0,0.051-0.017,0.09-0.05,0.12
			c-0.033,0.03-0.075,0.045-0.126,0.045h-0.137C200.971,57.41,200.93,57.395,200.9,57.365 M202.758,54.74
			c0.442,0,0.771-0.089,0.986-0.267c0.216-0.177,0.324-0.443,0.324-0.798s-0.108-0.622-0.324-0.799
			c-0.215-0.178-0.544-0.266-0.986-0.266h-1.424v2.13H202.758z"/>
		<path fill="none" stroke="#F5EEFF" stroke-width="0.333" stroke-miterlimit="10" d="M200.9,57.365
			c-0.03-0.03-0.046-0.069-0.046-0.12v-4.913c0-0.05,0.016-0.092,0.046-0.124s0.071-0.049,0.122-0.049h1.774
			c0.549,0,0.978,0.128,1.287,0.383c0.311,0.255,0.465,0.633,0.465,1.133c0,0.395-0.099,0.713-0.297,0.956
			c-0.198,0.243-0.482,0.406-0.854,0.491l1.227,2.056c0.016,0.03,0.023,0.058,0.023,0.083c0,0.04-0.016,0.074-0.046,0.104
			c-0.031,0.03-0.066,0.045-0.106,0.045h-0.091c-0.077,0-0.134-0.016-0.172-0.048c-0.038-0.033-0.078-0.084-0.118-0.154
			l-1.212-2.018h-1.568v2.055c0,0.051-0.017,0.09-0.05,0.12c-0.033,0.03-0.075,0.045-0.126,0.045h-0.137
			C200.971,57.41,200.93,57.395,200.9,57.365z M202.758,54.74c0.442,0,0.771-0.089,0.986-0.267c0.216-0.177,0.324-0.443,0.324-0.798
			s-0.108-0.622-0.324-0.799c-0.215-0.178-0.544-0.266-0.986-0.266h-1.424v2.13H202.758z"/>
		<path fill="#F5EEFF" d="M211.031,57.366c-0.03-0.03-0.046-0.07-0.046-0.12v-4.921c0-0.05,0.016-0.09,0.046-0.12
			c0.03-0.03,0.071-0.045,0.122-0.045h0.145c0.051,0,0.092,0.015,0.122,0.045c0.03,0.03,0.046,0.07,0.046,0.12v4.921
			c0,0.05-0.016,0.09-0.046,0.12c-0.03,0.03-0.071,0.045-0.122,0.045h-0.145C211.102,57.411,211.061,57.396,211.031,57.366"/>
		<path fill="none" stroke="#F5EEFF" stroke-width="0.333" stroke-miterlimit="10" d="M211.031,57.366
			c-0.03-0.03-0.046-0.07-0.046-0.12v-4.921c0-0.05,0.016-0.09,0.046-0.12c0.03-0.03,0.071-0.045,0.122-0.045h0.145
			c0.051,0,0.092,0.015,0.122,0.045c0.03,0.03,0.046,0.07,0.046,0.12v4.921c0,0.05-0.016,0.09-0.046,0.12
			c-0.03,0.03-0.071,0.045-0.122,0.045h-0.145C211.102,57.411,211.061,57.396,211.031,57.366z"/>
		<path fill="#F5EEFF" d="M218.473,56.934c-0.33-0.367-0.508-0.861-0.533-1.481c-0.005-0.135-0.008-0.355-0.008-0.661
			c0-0.31,0.003-0.535,0.008-0.674c0.025-0.621,0.203-1.115,0.533-1.482c0.33-0.368,0.825-0.552,1.485-0.552
			c0.451,0,0.827,0.082,1.127,0.244c0.3,0.163,0.522,0.368,0.667,0.615c0.145,0.248,0.225,0.502,0.239,0.762v0.015
			c0,0.04-0.015,0.072-0.045,0.097c-0.031,0.025-0.069,0.038-0.114,0.038h-0.152c-0.092,0-0.147-0.053-0.168-0.158
			c-0.097-0.425-0.271-0.725-0.525-0.9s-0.597-0.262-1.028-0.262c-0.478,0-0.849,0.132-1.112,0.397
			c-0.264,0.265-0.406,0.673-0.427,1.223c-0.005,0.135-0.009,0.342-0.009,0.623c0,0.28,0.004,0.492,0.009,0.637
			c0.021,0.55,0.163,0.958,0.427,1.223c0.264,0.265,0.635,0.398,1.112,0.398c0.432,0,0.774-0.088,1.028-0.263s0.429-0.475,0.525-0.9
			c0.021-0.106,0.076-0.158,0.168-0.158h0.152c0.045,0,0.085,0.014,0.118,0.041c0.032,0.028,0.047,0.064,0.041,0.109
			c-0.015,0.26-0.095,0.514-0.239,0.762c-0.145,0.247-0.367,0.453-0.667,0.615c-0.3,0.162-0.676,0.244-1.127,0.244
			C219.298,57.486,218.803,57.302,218.473,56.934"/>
		<path fill="none" stroke="#F5EEFF" stroke-width="0.333" stroke-miterlimit="10" d="M218.473,56.934
			c-0.33-0.367-0.508-0.861-0.533-1.481c-0.005-0.135-0.008-0.355-0.008-0.661c0-0.31,0.003-0.535,0.008-0.674
			c0.025-0.621,0.203-1.115,0.533-1.482c0.33-0.368,0.825-0.552,1.485-0.552c0.451,0,0.827,0.082,1.127,0.244
			c0.3,0.163,0.522,0.368,0.667,0.615c0.145,0.248,0.225,0.502,0.239,0.762v0.015c0,0.04-0.015,0.072-0.045,0.097
			c-0.031,0.025-0.069,0.038-0.114,0.038h-0.152c-0.092,0-0.147-0.053-0.168-0.158c-0.097-0.425-0.271-0.725-0.525-0.9
			s-0.597-0.262-1.028-0.262c-0.478,0-0.849,0.132-1.112,0.397c-0.264,0.265-0.406,0.673-0.427,1.223
			c-0.005,0.135-0.009,0.342-0.009,0.623c0,0.28,0.004,0.492,0.009,0.637c0.021,0.55,0.163,0.958,0.427,1.223
			c0.264,0.265,0.635,0.398,1.112,0.398c0.432,0,0.774-0.088,1.028-0.263s0.429-0.475,0.525-0.9
			c0.021-0.106,0.076-0.158,0.168-0.158h0.152c0.045,0,0.085,0.014,0.118,0.041c0.032,0.028,0.047,0.064,0.041,0.109
			c-0.015,0.26-0.095,0.514-0.239,0.762c-0.145,0.247-0.367,0.453-0.667,0.615c-0.3,0.162-0.676,0.244-1.127,0.244
			C219.298,57.486,218.803,57.302,218.473,56.934z"/>
		<path fill="#F5EEFF" d="M228.414,57.366c-0.03-0.03-0.046-0.07-0.046-0.12v-4.914c0-0.049,0.016-0.091,0.046-0.123
			c0.03-0.033,0.071-0.049,0.122-0.049h0.137c0.056,0,0.1,0.015,0.13,0.045c0.03,0.03,0.046,0.073,0.046,0.127v1.951l2.308-2.011
			c0.041-0.03,0.083-0.056,0.126-0.078c0.043-0.023,0.098-0.034,0.163-0.034h0.122c0.041,0,0.076,0.015,0.106,0.045
			c0.031,0.03,0.046,0.065,0.046,0.105s-0.013,0.073-0.038,0.098l-2.582,2.265l2.742,2.483c0.03,0.03,0.046,0.065,0.046,0.105
			c0,0.04-0.016,0.075-0.046,0.105c-0.03,0.03-0.066,0.045-0.106,0.045h-0.13c-0.065,0-0.12-0.011-0.163-0.034
			c-0.044-0.022-0.086-0.049-0.126-0.078l-2.468-2.221v2.168c0,0.05-0.017,0.09-0.05,0.12c-0.033,0.03-0.075,0.045-0.126,0.045
			h-0.137C228.485,57.411,228.444,57.396,228.414,57.366"/>
		<path fill="none" stroke="#F5EEFF" stroke-width="0.333" stroke-miterlimit="10" d="M228.414,57.366
			c-0.03-0.03-0.046-0.07-0.046-0.12v-4.914c0-0.049,0.016-0.091,0.046-0.123c0.03-0.033,0.071-0.049,0.122-0.049h0.137
			c0.056,0,0.1,0.015,0.13,0.045c0.03,0.03,0.046,0.073,0.046,0.127v1.951l2.308-2.011c0.041-0.03,0.083-0.056,0.126-0.078
			c0.043-0.023,0.098-0.034,0.163-0.034h0.122c0.041,0,0.076,0.015,0.106,0.045c0.031,0.03,0.046,0.065,0.046,0.105
			s-0.013,0.073-0.038,0.098l-2.582,2.265l2.742,2.483c0.03,0.03,0.046,0.065,0.046,0.105c0,0.04-0.016,0.075-0.046,0.105
			c-0.03,0.03-0.066,0.045-0.106,0.045h-0.13c-0.065,0-0.12-0.011-0.163-0.034c-0.044-0.022-0.086-0.049-0.126-0.078l-2.468-2.221
			v2.168c0,0.05-0.017,0.09-0.05,0.12c-0.033,0.03-0.075,0.045-0.126,0.045h-0.137C228.485,57.411,228.444,57.396,228.414,57.366z"
			/>
		<path fill="#F5EEFF" d="M238.049,57.366c-0.03-0.03-0.046-0.07-0.046-0.12v-4.914c0-0.049,0.016-0.091,0.046-0.123
			c0.03-0.033,0.071-0.049,0.122-0.049h2.971c0.056,0,0.099,0.015,0.129,0.045c0.031,0.03,0.046,0.073,0.046,0.127v0.113
			c0,0.05-0.017,0.09-0.049,0.12c-0.033,0.03-0.075,0.045-0.126,0.045h-2.658v1.913h2.49c0.056,0,0.1,0.015,0.13,0.045
			c0.03,0.03,0.046,0.072,0.046,0.128v0.112c0,0.05-0.017,0.09-0.05,0.12c-0.033,0.03-0.075,0.045-0.126,0.045h-2.49v1.988h2.719
			c0.056,0,0.1,0.015,0.13,0.045c0.029,0.03,0.046,0.072,0.046,0.128v0.112c0,0.05-0.017,0.09-0.05,0.12
			c-0.033,0.03-0.075,0.045-0.126,0.045h-3.031C238.121,57.411,238.08,57.396,238.049,57.366"/>
		<path fill="none" stroke="#F5EEFF" stroke-width="0.333" stroke-miterlimit="10" d="M238.049,57.366
			c-0.03-0.03-0.046-0.07-0.046-0.12v-4.914c0-0.049,0.016-0.091,0.046-0.123c0.03-0.033,0.071-0.049,0.122-0.049h2.971
			c0.056,0,0.099,0.015,0.129,0.045c0.031,0.03,0.046,0.073,0.046,0.127v0.113c0,0.05-0.017,0.09-0.049,0.12
			c-0.033,0.03-0.075,0.045-0.126,0.045h-2.658v1.913h2.49c0.056,0,0.1,0.015,0.13,0.045c0.03,0.03,0.046,0.072,0.046,0.128v0.112
			c0,0.05-0.017,0.09-0.05,0.12c-0.033,0.03-0.075,0.045-0.126,0.045h-2.49v1.988h2.719c0.056,0,0.1,0.015,0.13,0.045
			c0.029,0.03,0.046,0.072,0.046,0.128v0.112c0,0.05-0.017,0.09-0.05,0.12c-0.033,0.03-0.075,0.045-0.126,0.045h-3.031
			C238.121,57.411,238.08,57.396,238.049,57.366z"/>
		<path fill="#F5EEFF" d="M248.979,57.366c-0.03-0.03-0.045-0.07-0.045-0.12v-4.636h-1.509c-0.05,0-0.091-0.015-0.122-0.045
			c-0.03-0.03-0.045-0.07-0.045-0.12v-0.113c0-0.049,0.015-0.091,0.045-0.123c0.031-0.033,0.072-0.049,0.122-0.049h3.489
			c0.056,0,0.099,0.015,0.129,0.045c0.03,0.03,0.046,0.073,0.046,0.127v0.113c0,0.05-0.017,0.09-0.05,0.12
			c-0.033,0.03-0.074,0.045-0.125,0.045h-1.501v4.636c0,0.05-0.017,0.09-0.05,0.12c-0.033,0.03-0.074,0.045-0.125,0.045h-0.138
			C249.05,57.411,249.01,57.396,248.979,57.366"/>
		<path fill="none" stroke="#F5EEFF" stroke-width="0.333" stroke-miterlimit="10" d="M248.979,57.366
			c-0.03-0.03-0.045-0.07-0.045-0.12v-4.636h-1.509c-0.05,0-0.091-0.015-0.122-0.045c-0.03-0.03-0.045-0.07-0.045-0.12v-0.113
			c0-0.049,0.015-0.091,0.045-0.123c0.031-0.033,0.072-0.049,0.122-0.049h3.489c0.056,0,0.099,0.015,0.129,0.045
			c0.03,0.03,0.046,0.073,0.046,0.127v0.113c0,0.05-0.017,0.09-0.05,0.12c-0.033,0.03-0.074,0.045-0.125,0.045h-1.501v4.636
			c0,0.05-0.017,0.09-0.05,0.12c-0.033,0.03-0.074,0.045-0.125,0.045h-0.138C249.05,57.411,249.01,57.396,248.979,57.366z"/>
	</g>
</g>
</svg>
