<?xml version="1.0" encoding="UTF-8"?>
<svg width="164px" height="37px" viewBox="0 0 164 37" version="1.1" xmlns="http://www.w3.org/2000/svg" xmlns:xlink="http://www.w3.org/1999/xlink">
    <!-- Generator: Sketch 51.2 (57519) - http://www.bohemiancoding.com/sketch -->
    <title>Group 27</title>
    <desc>Created with Sketch.</desc>
    <defs>
        <polygon id="path-1" points="0.00358410596 0.222326471 16.2944318 0.222326471 16.2944318 17.4117647 0.00358410596 17.4117647"></polygon>
        <polygon id="path-3" points="0 0.0204070407 12.3709219 0.0204070407 12.3709219 11.9083956 0 11.9083956"></polygon>
        <polygon id="path-5" points="0.20975573 0.148816176 21.6245947 0.148816176 21.6245947 36.6561405 0.20975573 36.6561405"></polygon>
        <polygon id="path-7" points="0.174127815 0.148816176 21.5891496 0.148816176 21.5891496 36.6561949 0.174127815 36.6561949"></polygon>
    </defs>
    <g id="Page-1" stroke="none" stroke-width="1" fill="none" fill-rule="evenodd">
        <g id="Desktop-HD" transform="translate(-140.000000, -59.000000)">
            <g id="Group-27" transform="translate(140.000000, 59.000000)">
                <path d="M60.1155033,31.8534632 C60.8355828,32.6388971 61.8089934,33.0312059 63.0349205,33.0312059 C64.1098808,33.0312059 65.0029205,32.7183382 65.7126821,32.0920588 C66.4224437,31.4665956 66.830543,30.5911103 66.9383377,29.4661471 C66.9815099,29.0417353 67.0032318,28.6385441 67.0032318,28.2563015 C67.0032318,27.8746029 66.9815099,27.4716838 66.9383377,27.0467279 C66.830543,25.9644779 66.4170132,25.1001471 65.6966623,24.452375 C64.9757682,23.8051471 64.0884305,23.4813971 63.0349205,23.4813971 C61.9385099,23.4813971 61.0346093,23.7997059 60.3253907,24.4363235 C59.6156291,25.0732132 59.1961258,26.0496324 59.0668808,27.3650368 C59.0454305,27.5775147 59.0348411,27.8746029 59.0348411,28.2563015 C59.0348411,29.8693382 59.3946093,31.0688456 60.1155033,31.8534632 Z M66.9383377,14.7912941 C66.9383377,14.5578676 67.0241391,14.3568162 67.1968278,14.1865074 C67.3684305,14.0170147 67.5723444,13.9318603 67.8093841,13.9318603 L70.2612384,13.9318603 C70.4974636,13.9318603 70.7019205,14.0170147 70.8740662,14.1865074 C71.0459404,14.3568162 71.1322848,14.5578676 71.1322848,14.7912941 L71.1322848,35.6734412 C71.1322848,35.9071397 71.0459404,36.1084632 70.8740662,36.2779559 C70.7019205,36.4482647 70.4974636,36.532875 70.2612384,36.532875 L67.8093841,36.532875 C67.5723444,36.532875 67.3684305,36.4482647 67.1968278,36.2779559 C67.0241391,36.1084632 66.9383377,35.9071397 66.9383377,35.6734412 L66.9383377,34.9413309 C66.4865232,35.450625 65.8628344,35.8962574 65.0672715,36.2779559 C64.2714371,36.6599265 63.2714172,36.8511838 62.0669404,36.8511838 C60.6691391,36.8511838 59.4377815,36.5062132 58.3736821,35.8165441 C57.3090397,35.1271471 56.4754636,34.2143897 55.8732252,33.0790882 C55.2709868,31.9440588 54.9378278,30.7075515 54.8734768,29.3703824 L54.840894,28.2563015 L54.8734768,27.1422206 C54.9378278,25.8055956 55.2709868,24.5693603 55.8732252,23.4337868 C56.4754636,22.2987574 57.3090397,21.386 58.3736821,20.6960588 C59.4377815,20.0072059 60.6691391,19.6616912 62.0669404,19.6616912 C63.2496954,19.6616912 64.2393974,19.8526765 65.0355033,20.2346471 C65.8307947,20.6168897 66.4650728,21.06225 66.9383377,21.5718162 L66.9383377,14.7912941 Z" id="Fill-1" fill="#151B5E"></path>
                <g id="Group-5" transform="translate(75.483444, 19.439419)">
                    <mask id="mask-2" fill="white">
                        <use xlink:href="#path-1"></use>
                    </mask>
                    <g id="Clip-4"></g>
                    <path d="M5.50355762,4.80597353 C4.78266358,5.31553971 4.35827285,6.17470147 4.22957086,7.38454706 C4.20812053,7.59675294 4.19698808,8.07421618 4.19698808,8.81693676 C4.19698808,9.55992941 4.20812053,10.0373926 4.22957086,10.2493265 C4.35827285,11.4591721 4.78266358,12.3183338 5.50355762,12.8276279 C6.22390861,13.3371941 7.10038543,13.5918412 8.13271656,13.5918412 C9.16504768,13.5918412 10.0409815,13.3371941 10.7618755,12.8276279 C11.4822265,12.3183338 11.9071603,11.4591721 12.0361338,10.2493265 C12.0790344,9.82518676 12.1007563,9.34772353 12.1007563,8.81693676 C12.1007563,8.28669412 12.0790344,7.80950294 12.0361338,7.38454706 C11.9071603,6.17470147 11.4822265,5.31553971 10.7618755,4.80597353 C10.0409815,4.29667941 9.16504768,4.04203235 8.13271656,4.04203235 C7.10038543,4.04203235 6.22390861,4.29667941 5.50355762,4.80597353 M16.2944318,8.84876765 C16.2944318,9.40104706 16.2727099,9.93101765 16.2300808,10.4403118 C16.1220146,11.7350397 15.7245046,12.9127824 15.0361934,13.9738118 C14.3478821,15.0351132 13.4073258,15.8730544 12.2137099,16.4887235 C11.0198225,17.1038485 9.65949139,17.4118191 8.13271656,17.4118191 C6.6056702,17.4118191 5.2456106,17.1038485 4.0519947,16.4887235 C2.85810728,15.8730544 1.91727947,15.0351132 1.22951126,13.9738118 C0.540656954,12.9127824 0.142875497,11.7350397 0.0353523179,10.4403118 C0.0136304636,10.1856647 0.00358410596,9.65569412 0.00358410596,8.84876765 C0.00358410596,8.02116471 0.0136304636,7.48003971 0.0353523179,7.22539265 C0.142875497,5.90998824 0.540656954,4.72163529 1.22951126,3.66006176 C1.91727947,2.59930441 2.85810728,1.76109118 4.0519947,1.14542206 C5.2456106,0.530297059 6.6056702,0.222326471 8.13271656,0.222326471 C9.65949139,0.222326471 11.0198225,0.530297059 12.2137099,1.14542206 C13.4073258,1.76109118 14.3478821,2.59930441 15.0361934,3.66006176 C15.7245046,4.72163529 16.1220146,5.90998824 16.2300808,7.22539265 C16.2727099,7.73468676 16.2944318,8.27553971 16.2944318,8.84876765" id="Fill-3" fill="#151B5E" mask="url(#mask-2)"></path>
                </g>
                <path d="M102.084515,32.1559382 C102.460575,32.5272985 103.111416,32.7128426 104.035952,32.7128426 L106.003952,32.7128426 C106.240721,32.7128426 106.444634,32.7979971 106.61678,32.9674897 C106.788654,33.1377985 106.87527,33.3391221 106.87527,33.5725485 L106.87527,35.6733868 C106.87527,35.9070853 106.788654,36.1084088 106.61678,36.2779015 C106.444634,36.4482103 106.240721,36.5328206 106.003952,36.5328206 L103.616992,36.5328206 C101.573509,36.5328206 100.014423,36.0393059 98.9391907,35.0522765 C97.8631444,34.0655191 97.326343,32.5964015 97.326343,30.6438353 L97.326343,23.7999235 L95.1970583,23.7999235 C94.9600185,23.7999235 94.7563762,23.7153132 94.5842305,23.5452765 C94.4115417,23.3755118 94.3260119,23.1741882 94.3260119,22.9404897 L94.3260119,20.8396515 C94.3260119,20.606225 94.4115417,20.4049015 94.5842305,20.2345926 C94.7563762,20.0651 94.9600185,19.9799456 95.1970583,19.9799456 L97.326343,19.9799456 L97.326343,14.7912397 C97.326343,14.5578132 97.4118728,14.3567618 97.5845616,14.1864529 C97.7564358,14.0169603 97.9600781,13.9318059 98.1971179,13.9318059 L100.648972,13.9318059 C100.885469,13.9318059 101.089383,14.0169603 101.262072,14.1864529 C101.433946,14.3567618 101.520019,14.5578132 101.520019,14.7912397 L101.520019,19.9799456 L105.681383,19.9799456 C105.917879,19.9799456 106.122065,20.0651 106.294482,20.2345926 C106.466356,20.4049015 106.552158,20.606225 106.552158,20.8396515 L106.552158,22.9404897 C106.552158,23.1741882 106.466356,23.3755118 106.294482,23.5452765 C106.122065,23.7153132 105.917879,23.7999235 105.681383,23.7999235 L101.520019,23.7999235 L101.520019,30.5480706 C101.520019,31.2486221 101.708184,31.7845779 102.084515,32.1559382" id="Fill-6" fill="#151B5E"></path>
                <path d="M116.117566,24.4523478 C115.396672,25.1001199 114.982599,25.9644507 114.875348,27.0467007 C114.853897,27.2591787 114.843308,27.6623699 114.843308,28.2562743 C114.843308,28.8507228 114.853897,29.253914 114.875348,29.4661199 C114.982599,30.5910831 115.391513,31.4665684 116.101275,32.0923037 C116.811036,32.718311 117.703262,33.0311787 118.778765,33.0311787 C119.875447,33.0311787 120.779076,32.7128699 121.488566,32.0762522 C122.198328,31.4396346 122.61756,30.4637596 122.746805,29.147539 C122.789434,28.7233993 122.811156,28.4265831 122.811156,28.2562743 C122.811156,26.6437816 122.445414,25.4445463 121.714474,24.6591125 C120.98299,23.8744949 120.004692,23.4813699 118.778765,23.4813699 C117.724983,23.4813699 116.837646,23.8053919 116.117566,24.4523478 M126.972791,28.2562743 C126.972791,28.787061 126.961659,29.1586934 126.94048,29.3703551 C126.876129,30.7075243 126.542427,31.9440316 125.940732,33.079061 C125.338222,34.2143625 124.504917,35.1271199 123.440546,35.8165169 C122.375904,36.506186 121.144275,36.8511566 119.746745,36.8511566 C118.541997,36.8511566 117.541977,36.6598993 116.746685,36.2779287 C115.950579,35.8962301 115.327162,35.4505978 114.875348,34.9413037 L114.875348,35.673414 C114.875348,35.9071125 114.789003,36.108436 114.617129,36.2779287 C114.445255,36.4482375 114.240798,36.5328478 114.004573,36.5328478 L111.552719,36.5328478 C111.315679,36.5328478 111.111493,36.4482375 110.939891,36.2779287 C110.767474,36.108436 110.681401,35.9071125 110.681401,35.673414 L110.681401,14.7912669 C110.681401,14.5578404 110.767474,14.356789 110.939891,14.1864801 C111.111493,14.0169875 111.315679,13.9318331 111.552719,13.9318331 L114.004573,13.9318331 C114.240798,13.9318331 114.445255,14.0169875 114.617129,14.1864801 C114.789003,14.356789 114.875348,14.5578404 114.875348,14.7912669 L114.875348,21.571789 C115.34807,21.0624949 115.982891,20.6168625 116.778725,20.2346199 C117.574288,19.8526493 118.563719,19.661936 119.746745,19.661936 C121.144275,19.661936 122.375904,20.0071787 123.440546,20.6960316 C124.504917,21.3859728 125.338222,22.2987301 125.940732,23.4337596 C126.542427,24.5693331 126.876129,25.8055684 126.94048,27.1421934 C126.961659,27.3543993 126.972791,27.7263037 126.972791,28.2562743" id="Fill-8" fill="#151B5E"></path>
                <path d="M141.230799,29.1474846 L136.843799,29.9116978 C135.983614,30.060514 135.354223,30.277889 134.956713,30.5640949 C134.55866,30.8505728 134.359634,31.2382566 134.359634,31.7260581 C134.359634,32.151014 134.580111,32.4742199 135.020793,32.696764 C135.461475,32.9195801 136.015654,33.0311243 136.682786,33.0311243 C137.62823,33.0311243 138.445786,32.8616316 139.134097,32.5218301 C139.822409,32.1828449 140.344005,31.7418375 140.698885,31.2009846 C141.053766,30.6598596 141.230799,30.0820066 141.230799,29.4660654 L141.230799,29.1474846 Z M143.473038,21.3804772 C144.773905,22.526389 145.424746,24.1715287 145.424746,26.314536 L145.424746,35.6733596 C145.424746,35.9070581 145.338402,36.1083816 145.166528,36.2778743 C144.994654,36.4481831 144.790197,36.5327934 144.553972,36.5327934 L142.102117,36.5327934 C141.865349,36.5327934 141.661164,36.4481831 141.489018,36.2778743 C141.316872,36.1083816 141.230799,35.9070581 141.230799,35.6733596 L141.230799,34.6226684 C140.736084,35.3025434 140.053746,35.8433963 139.182428,36.2460434 C138.311382,36.6489625 137.263303,36.8511022 136.037104,36.8511022 C134.230932,36.8511022 132.800276,36.3896904 131.746495,35.4665949 C130.692442,34.5432272 130.165958,33.3497051 130.165958,31.8852125 C130.165958,30.4637051 130.676693,29.3338449 131.698707,28.4950875 C132.719362,27.6568743 134.144587,27.0784772 135.972753,26.7604404 L141.230799,25.8689037 C141.230799,25.0627934 140.956832,24.4634478 140.408627,24.0703228 C139.86015,23.678014 139.122965,23.4813154 138.1987,23.4813154 C137.703442,23.4813154 137.30023,23.5506904 136.989064,23.6886243 C136.677084,23.8265581 136.370806,24.0335949 136.069415,24.3091904 C135.747389,24.6065507 135.392236,24.7548228 135.004773,24.7548228 L132.004713,24.7548228 C131.789667,24.7548228 131.612091,24.686264 131.472528,24.5480581 C131.332422,24.4101243 131.273501,24.2452566 131.294952,24.0545434 C131.424468,23.3969772 131.762786,22.7285287 132.310991,22.0491978 C132.85974,21.370411 133.633852,20.8026243 134.633872,20.3461096 C135.634164,19.890139 136.822349,19.6618816 138.1987,19.6618816 C140.413515,19.6618816 142.171899,20.2345654 143.473038,21.3804772 Z" id="Fill-10" fill="#151B5E"></path>
                <path d="M154.29625,36.2780103 C154.123833,36.4483191 153.919648,36.5329294 153.683423,36.5329294 L151.23184,36.5329294 C150.9948,36.5329294 150.790343,36.4483191 150.618469,36.2780103 C150.446323,36.1085176 150.360522,35.9071941 150.360522,35.6734956 L150.360522,14.7910765 C150.360522,14.5579221 150.446323,14.3568706 150.618469,14.1865618 C150.790343,14.0170691 150.9948,13.9319147 151.23184,13.9319147 L153.683423,13.9319147 C153.919648,13.9319147 154.123833,14.0170691 154.29625,14.1865618 C154.468125,14.3568706 154.553926,14.5579221 154.553926,14.7910765 L154.553926,35.6734956 C154.553926,35.9071941 154.468125,36.1085176 154.29625,36.2780103" id="Fill-12" fill="#151B5E"></path>
                <path d="M163.58666,36.2780103 C163.414243,36.4483191 163.210058,36.5329294 162.973561,36.5329294 L160.521978,36.5329294 C160.284938,36.5329294 160.081296,36.4483191 159.90915,36.2780103 C159.736462,36.1085176 159.650932,35.9071941 159.650932,35.6734956 L159.650932,14.7910765 C159.650932,14.5579221 159.736462,14.3568706 159.90915,14.1865618 C160.081296,14.0170691 160.284938,13.9319147 160.521978,13.9319147 L162.973561,13.9319147 C163.210058,13.9319147 163.414243,14.0170691 163.58666,14.1865618 C163.758534,14.3568706 163.844879,14.5579221 163.844879,14.7910765 L163.844879,35.6734956 C163.844879,35.9071941 163.758534,36.1085176 163.58666,36.2780103" id="Fill-14" fill="#151B5E"></path>
                <g id="Group-18" transform="translate(0.000000, 24.336478)">
                    <mask id="mask-4" fill="white">
                        <use xlink:href="#path-3"></use>
                    </mask>
                    <g id="Clip-17"></g>
                    <path d="M4.71217616,0.767858824 C3.57449404,-0.286369118 1.79900397,-0.216994118 0.746308609,0.922660294 C-0.306115232,2.06258676 -0.237148344,3.84157941 0.900533775,4.89662353 L7.6587457,11.1607779 C8.19853377,11.6608221 8.88195762,11.9083956 9.56375232,11.9083956 C10.3188583,11.9083956 11.0715205,11.6047779 11.6246132,11.0057044 C12.6770371,9.86577794 12.6080702,8.08678529 11.4703881,7.03174118 L4.71217616,0.767858824 Z" id="Fill-16" fill="#038CFF" mask="url(#mask-4)"></path>
                </g>
                <g id="Group-21" transform="translate(6.245033, 0.123243)">
                    <mask id="mask-6" fill="white">
                        <use xlink:href="#path-5"></use>
                    </mask>
                    <g id="Clip-20"></g>
                    <path d="M15.6728066,23.1852066 C16.3127868,19.5485963 18.5979258,16.6185228 21.6245947,15.0218096 C19.4564821,13.8780743 16.9079656,13.4169346 14.3081311,13.8761699 C12.1161245,14.2635816 10.1820649,15.2533316 8.64144238,16.6432801 L5.76736954,2.40399338 C5.45946225,0.881552206 3.97667417,-0.103572794 2.46021722,0.205486029 C0.941045033,0.513456618 -0.0413258278,1.99699338 0.266038411,3.51889044 L4.95035629,26.7238757 C4.97044901,26.8726919 4.99108477,27.0217801 5.01715099,27.1708684 C6.11573377,33.412714 12.0563894,37.5803831 18.2859457,36.4799051 C19.4830914,36.2682434 20.602853,35.8762066 21.6245947,35.3386184 C17.3301841,33.0791699 14.7854689,28.2275449 15.6728066,23.1852066" id="Fill-19" fill="#038CFF" mask="url(#mask-6)"></path>
                </g>
                <g id="Group-24" transform="translate(27.695364, 0.123243)">
                    <mask id="mask-8" fill="white">
                        <use xlink:href="#path-7"></use>
                    </mask>
                    <g id="Clip-23"></g>
                    <path d="M19.3385053,0.205540441 C17.8206907,-0.1040625 16.3387172,0.881606618 16.0316245,2.40404779 L13.1572801,16.6433346 C11.6169291,15.253386 9.68286954,14.263636 7.49113444,13.8762243 C4.89102848,13.416989 2.34278344,13.8778566 0.174127815,15.021864 C3.20106821,16.6185772 5.48620728,19.5486507 6.12618742,23.185261 C7.01352517,28.2275993 4.46853841,33.0792243 0.174127815,35.3386728 C1.19614106,35.876261 2.31590265,36.2682978 3.51304834,36.4799596 C9.74260464,37.5804375 15.6832603,33.4127684 16.7815715,27.1709228 C16.8076377,27.0229228 16.828002,26.8754669 16.8480947,26.728011 L21.5329556,3.51894485 C21.8400483,1.99650368 20.8576775,0.512966912 19.3385053,0.205540441" id="Fill-22" fill="#FF0653" mask="url(#mask-8)"></path>
                </g>
                <path d="M33.8214974,23.3084493 C33.1817887,19.671839 30.8966497,16.7417654 27.8697093,15.1450522 C24.8430404,16.7417654 22.5579013,19.671839 21.9179212,23.3084493 C21.0305834,28.3507875 23.5752987,33.2024125 27.8697093,35.461861 C32.1641199,33.2024125 34.7088351,28.3507875 33.8214974,23.3084493" id="Fill-25" fill="#3950D8"></path>
            </g>
        </g>
    </g>
</svg>