<svg id="Layer_1" data-name="Layer 1" xmlns="http://www.w3.org/2000/svg" viewBox="0 0 50 50"><defs><style>.cls-1{fill:#151b5e;}.cls-2{fill:#fff;}</style></defs><title>Artboard 1 copy</title><rect class="cls-1" width="50" height="50" rx="25"/><path class="cls-2" d="M23.69,24.72a5.23,5.23,0,0,1-.35,1.91,4.54,4.54,0,0,1-2.56,2.57,5.18,5.18,0,0,1-2,.37,5.27,5.27,0,0,1-2-.37,4.57,4.57,0,0,1-1.56-1,4.46,4.46,0,0,1-1-1.54,5.27,5.27,0,0,1,0-3.83,4.42,4.42,0,0,1,1-1.53,4.57,4.57,0,0,1,1.56-1,5.46,5.46,0,0,1,2-.37,5.18,5.18,0,0,1,2,.38,4.48,4.48,0,0,1,2.56,2.56A5.23,5.23,0,0,1,23.69,24.72Zm-2.25,0a4.19,4.19,0,0,0-.18-1.27,2.82,2.82,0,0,0-.53-.95,2.31,2.31,0,0,0-.84-.6,2.83,2.83,0,0,0-1.12-.21,2.9,2.9,0,0,0-1.14.21,2.31,2.31,0,0,0-.84.6,2.64,2.64,0,0,0-.52.95,4.18,4.18,0,0,0-.19,1.27A4.13,4.13,0,0,0,16.27,26a2.61,2.61,0,0,0,.52,1,2.29,2.29,0,0,0,.84.59,2.9,2.9,0,0,0,1.14.21,2.83,2.83,0,0,0,1.12-.21,2.29,2.29,0,0,0,.84-.59,2.78,2.78,0,0,0,.53-1A4.14,4.14,0,0,0,21.44,24.72Z"/><path class="cls-2" d="M33.36,24.72a5,5,0,0,1-.36,1.9,4.43,4.43,0,0,1-1,1.5,4.53,4.53,0,0,1-1.55,1,5.46,5.46,0,0,1-2,.36H24.75V20h3.68a5.67,5.67,0,0,1,2,.35,4.68,4.68,0,0,1,1.55,1,4.58,4.58,0,0,1,1,1.51A4.89,4.89,0,0,1,33.36,24.72Zm-2.26,0a4.19,4.19,0,0,0-.18-1.27,2.76,2.76,0,0,0-.52-1,2.22,2.22,0,0,0-.84-.61,2.88,2.88,0,0,0-1.13-.21H27v6.1h1.47a2.88,2.88,0,0,0,1.13-.21,2.31,2.31,0,0,0,.84-.6,2.9,2.9,0,0,0,.52-1A4.14,4.14,0,0,0,31.1,24.72Z"/><path class="cls-2" d="M36.82,29.47H34.61V20h2.21Z"/></svg>