<?xml version="1.0" encoding="UTF-8"?>
<svg width="310px" height="62px" viewBox="0 0 310 62" version="1.1" xmlns="http://www.w3.org/2000/svg" xmlns:xlink="http://www.w3.org/1999/xlink">
    <!-- Generator: Sketch 51.2 (57519) - http://www.bohemiancoding.com/sketch -->
    <title>Group 4</title>
    <desc>Created with Sketch.</desc>
    <defs>
        <linearGradient x1="50%" y1="99.7089109%" x2="50%" y2="0.776721582%" id="linearGradient-1">
            <stop stop-color="#E09B3D" offset="0%"></stop>
            <stop stop-color="#C74C4D" offset="30%"></stop>
            <stop stop-color="#C21975" offset="60%"></stop>
            <stop stop-color="#7024C4" offset="100%"></stop>
        </linearGradient>
        <linearGradient x1="50%" y1="146.098873%" x2="50%" y2="-45.1596833%" id="linearGradient-2">
            <stop stop-color="#E09B3D" offset="0%"></stop>
            <stop stop-color="#C74C4D" offset="30%"></stop>
            <stop stop-color="#C21975" offset="60%"></stop>
            <stop stop-color="#7024C4" offset="100%"></stop>
        </linearGradient>
        <linearGradient x1="50%" y1="658.140556%" x2="50%" y2="-140.029283%" id="linearGradient-3">
            <stop stop-color="#E09B3D" offset="0%"></stop>
            <stop stop-color="#C74C4D" offset="30%"></stop>
            <stop stop-color="#C21975" offset="60%"></stop>
            <stop stop-color="#7024C4" offset="100%"></stop>
        </linearGradient>
    </defs>
    <g id="Page-1" stroke="none" stroke-width="1" fill="none" fill-rule="evenodd">
        <g id="Desktop-HD-Copy-11" transform="translate(-204.000000, -2398.000000)" fill-rule="nonzero">
            <g id="Group-4" transform="translate(204.000000, 2398.000000)">
                <g id="Group-2">
                    <g id="145802">
                        <circle id="Oval" fill="#3B5998" cx="14.8932743" cy="14.8932743" r="14.8932743"></circle>
                        <path d="M18.6374336,15.4762832 L15.9799115,15.4762832 L15.9799115,25.2122124 L11.9535398,25.2122124 L11.9535398,15.4762832 L10.0385841,15.4762832 L10.0385841,12.0546903 L11.9535398,12.0546903 L11.9535398,9.84053097 C11.9535398,8.25716814 12.7056637,5.77778761 16.0157522,5.77778761 L18.9982301,5.79026549 L18.9982301,9.11150442 L16.8342478,9.11150442 C16.479292,9.11150442 15.980177,9.28884956 15.980177,10.0441593 L15.980177,12.0578761 L18.9892035,12.0578761 L18.6374336,15.4762832 Z" id="Shape" fill="#FFFFFF"></path>
                    </g>
                    <g id="145812" transform="translate(56.000000, 0.000000)">
                        <circle id="Oval" fill="#55ACEE" cx="14.8935398" cy="14.8932743" r="14.8932743"></circle>
                        <path d="M24.0161947,10.7033628 C23.3779646,10.9863717 22.6914159,11.1777876 21.9714159,11.2632743 C22.7065487,10.8228319 23.270708,10.1259292 23.5369912,9.29415929 C22.849115,9.70221239 22.0869027,9.99823009 21.2763717,10.1577876 C20.6269912,9.46619469 19.7017699,9.0339823 18.6772566,9.0339823 C16.7115929,9.0339823 15.1173451,10.6282301 15.1173451,12.5938938 C15.1173451,12.8729204 15.1489381,13.1445133 15.21,13.4052212 C12.2514159,13.2568142 9.62814159,11.839646 7.87221239,9.68522124 C7.56584071,10.210885 7.3900885,10.8228319 7.3900885,11.4751327 C7.3900885,12.7099115 8.01902655,13.8 8.97371681,14.4382301 C8.39044248,14.4199115 7.84115044,14.259823 7.36141593,13.9924779 C7.36115044,14.0076106 7.36115044,14.0227434 7.36115044,14.0376106 C7.36115044,15.7624779 8.58876106,17.2011504 10.2169912,17.5279646 C9.91858407,17.6097345 9.60345133,17.6530088 9.27929204,17.6530088 C9.04938053,17.6530088 8.82663717,17.6309735 8.60946903,17.5895575 C9.06238938,19.0035398 10.3768142,20.0328319 11.9349558,20.0617699 C10.7163717,21.0167257 9.18159292,21.5856637 7.51327434,21.5856637 C7.22654867,21.5856637 6.94247788,21.5689381 6.66451327,21.5357522 C8.23911504,22.5461947 10.1107965,23.1353097 12.1210619,23.1353097 C18.6690265,23.1353097 22.2499115,17.710885 22.2499115,13.0061947 C22.2499115,12.8519469 22.2464602,12.6982301 22.2395575,12.5458407 C22.9356637,12.0440708 23.539115,11.4172566 24.0161947,10.7033628 Z" id="Shape" fill="#F1F2F2"></path>
                    </g>
                    <g id="174855" transform="translate(112.000000, 0.000000)">
                        <path d="M21.0259783,0 L8.92152174,0 C4.00217391,0 0,4.00217391 0,8.92152174 L0,21.0259783 C0,25.9453261 4.00217391,29.9475 8.92152174,29.9475 L21.0259783,29.9475 C25.9453261,29.9475 29.9475,25.9453261 29.9475,21.0259783 L29.9475,8.92152174 C29.9474457,4.00217391 25.9452717,0 21.0259783,0 Z M26.9347826,21.0259783 C26.9347826,24.2892935 24.2892935,26.9347826 21.0259783,26.9347826 L8.92152174,26.9347826 C5.65820652,26.9347826 3.01271739,24.2892935 3.01271739,21.0259783 L3.01271739,8.92152174 C3.01271739,5.65815217 5.65820652,3.01271739 8.92152174,3.01271739 L21.0259783,3.01271739 C24.2892935,3.01271739 26.9347826,5.65815217 26.9347826,8.92152174 L26.9347826,21.0259783 Z" id="Shape" fill="url(#linearGradient-1)"></path>
                        <path d="M14.97375,7.22826087 C10.7028804,7.22826087 7.22826087,10.7028804 7.22826087,14.9736957 C7.22826087,19.2445109 10.7028804,22.7191848 14.97375,22.7191848 C19.2446196,22.7191848 22.7192391,19.2445652 22.7192391,14.9736957 C22.7192391,10.7028261 19.2446196,7.22826087 14.97375,7.22826087 Z M14.97375,19.7065217 C12.3598913,19.7065217 10.2409783,17.5876087 10.2409783,14.97375 C10.2409783,12.3598913 12.3599457,10.2409783 14.97375,10.2409783 C17.5876087,10.2409783 19.7065217,12.3598913 19.7065217,14.97375 C19.7065217,17.5875543 17.5875543,19.7065217 14.97375,19.7065217 Z" id="Shape" fill="url(#linearGradient-2)"></path>
                        <circle id="Oval" fill="url(#linearGradient-3)" cx="22.7342391" cy="7.28641304" r="1.85597826"></circle>
                    </g>
                    <g id="174883" transform="translate(224.000000, 4.000000)" fill="#F61C0D">
                        <path d="M23.717987,0.0255194805 L6.21714286,0.0255194805 C2.78350649,0.0255194805 0,2.80902597 0,6.24266234 L0,14.9912338 C0,18.4248701 2.78350649,21.2083766 6.21714286,21.2083766 L23.717987,21.2083766 C27.1516234,21.2083766 29.9351299,18.4248701 29.9351299,14.9912338 L29.9351299,6.24266234 C29.9351299,2.80902597 27.1516234,0.0255194805 23.717987,0.0255194805 Z M19.5133766,11.0425974 L11.3276623,14.9466883 C11.1095455,15.0507143 10.8575974,14.8916883 10.8575974,14.6500649 L10.8575974,6.59785714 C10.8575974,6.35279221 11.1161688,6.19396104 11.3347403,6.30474026 L19.5204545,10.4528571 C19.7638312,10.5761688 19.7596104,10.9251948 19.5133766,11.0425974 Z" id="Shape"></path>
                    </g>
                    <g id="220236" transform="translate(168.000000, 0.000000)">
                        <path d="M0,30 L2.06894531,22.5 C0.724160156,20.1724219 0,17.5862109 0,14.8965234 C0,6.72416016 6.72416016,0 14.9482617,0 C23.1723633,0 30,6.72416016 30,14.8965234 C30,23.0688867 23.1724219,30 14.9482617,30 C12.3620508,30 9.87931641,29.1724219 7.65515625,27.9310547 L0,30 Z" id="Shape" fill="#EDEDED"></path>
                        <path d="M8.06894531,25.2413672 L8.53447266,25.5 C10.4482617,26.6896289 12.6724219,27.4137891 15,27.4137891 C21.7758398,27.4137891 27.4137891,21.7758398 27.4137891,14.8965234 C27.4137891,8.01720703 21.7758398,2.58621094 14.9482617,2.58621094 C8.12068359,2.58621094 2.58621094,8.06894531 2.58621094,14.8965234 C2.58621094,17.2758398 3.25863281,19.603418 4.5,21.5689453 L4.81037109,22.0344727 L3.62074219,26.3793164 L8.06894531,25.2413672 Z" id="Shape" fill="#55CD6C"></path>
                        <path d="M10.9655273,7.96552734 L9.98279297,7.91378906 C9.67242187,7.91378906 9.36210937,8.01726563 9.15521484,8.22416016 C8.6896875,8.63794922 7.91384766,9.41378906 7.70695312,10.4483203 C7.34490234,12.0000586 7.91384766,13.8621094 9.25869141,15.7241602 C10.6035352,17.5862109 13.1897461,20.5862109 17.7414258,21.8793164 C19.1896875,22.2931055 20.3276367,22.0344727 21.2586914,21.4655273 C21.9828516,21 22.4483203,20.2758984 22.6035352,19.5 L22.7586914,18.7758398 C22.8104297,18.5689453 22.7069531,18.3103125 22.5000586,18.2068945 L19.2414258,16.7068945 C19.0345313,16.603418 18.7758984,16.6551563 18.6207422,16.8620508 L17.3276367,18.517207 C17.2241602,18.6206836 17.0690039,18.6723633 16.9138477,18.6206836 C16.0345312,18.3103125 13.0862695,17.0689453 11.482793,13.9655273 C11.4310547,13.8103711 11.4310547,13.6551563 11.5345312,13.5517383 L12.7758984,12.1552148 C12.879375,12.0000586 12.9310547,11.7931641 12.879375,11.6379492 L11.379375,8.27589844 C11.3275781,8.12068359 11.1724219,7.96552734 10.9655273,7.96552734" id="Shape" fill="#FEFEFE"></path>
                    </g>
                    <g id="174858" transform="translate(280.000000, 2.000000)">
                        <path d="M29.2420051,25.4374873 L20.013198,21.0009137 L19.9436802,0.889340102 C19.9420812,0.419847716 20.4322081,0.110482234 20.8553299,0.31393401 L29.6046701,4.52124365 C29.8249492,4.62715736 29.9650508,4.85002538 29.9650508,5.09444162 L29.9650508,24.9828426 C29.9649746,25.3544924 29.5768782,25.5985279 29.2420051,25.4374873 Z" id="Shape" fill="#00FD8D"></path>
                        <path d="M20.013198,21.0009137 L10.0248731,16.1984772 L19.6407107,0.366852792 C19.8105838,0.0871827411 20.1650254,-0.0179695431 20.4599239,0.123807107 L29.3315482,4.38997462 C29.6706853,4.55307107 29.7948731,4.97329949 29.5988071,5.29446701 L20.013198,21.0009137 Z" id="Shape" fill="#00E470"></path>
                        <path d="M20.013198,21.0009137 L10.0248731,16.1984772 L0.869619289,1.29 C0.614543147,0.87464467 1.05837563,0.38284264 1.49763959,0.594060914 L10.0248731,4.69454315 L20.013198,21.0009137 Z" id="Shape" fill="#00C967"></path>
                        <path d="M9.30182741,25.4374112 L0.285837563,21.1018782 C0.111091371,21.0178173 0,20.8410914 0,20.6472335 L0,0.650862944 C0,0.291015228 0.375913706,0.0545939086 0.700279188,0.210609137 L10.0248731,4.69454315 L10.0248731,24.9827665 C10.0248731,25.3544162 9.63670051,25.5984518 9.30182741,25.4374112 Z" id="Shape" fill="#00AD6C"></path>
                    </g>
                </g>
                <g id="Group-2-Copy" transform="translate(0.000000, 32.000000)">
                    <g id="145802">
                        <circle id="Oval" fill="#5B5F8E" cx="14.8932743" cy="14.8932743" r="14.8932743"></circle>
                        <path d="M18.6374336,15.4762832 L15.9799115,15.4762832 L15.9799115,25.2122124 L11.9535398,25.2122124 L11.9535398,15.4762832 L10.0385841,15.4762832 L10.0385841,12.0546903 L11.9535398,12.0546903 L11.9535398,9.84053097 C11.9535398,8.25716814 12.7056637,5.77778761 16.0157522,5.77778761 L18.9982301,5.79026549 L18.9982301,9.11150442 L16.8342478,9.11150442 C16.479292,9.11150442 15.980177,9.28884956 15.980177,10.0441593 L15.980177,12.0578761 L18.9892035,12.0578761 L18.6374336,15.4762832 Z" id="Shape" fill="#151B5E"></path>
                    </g>
                    <g id="145812" transform="translate(56.000000, 0.000000)">
                        <circle id="Oval" fill="#5B5F8E" cx="14.8935398" cy="14.8932743" r="14.8932743"></circle>
                        <path d="M24.0161947,10.7033628 C23.3779646,10.9863717 22.6914159,11.1777876 21.9714159,11.2632743 C22.7065487,10.8228319 23.270708,10.1259292 23.5369912,9.29415929 C22.849115,9.70221239 22.0869027,9.99823009 21.2763717,10.1577876 C20.6269912,9.46619469 19.7017699,9.0339823 18.6772566,9.0339823 C16.7115929,9.0339823 15.1173451,10.6282301 15.1173451,12.5938938 C15.1173451,12.8729204 15.1489381,13.1445133 15.21,13.4052212 C12.2514159,13.2568142 9.62814159,11.839646 7.87221239,9.68522124 C7.56584071,10.210885 7.3900885,10.8228319 7.3900885,11.4751327 C7.3900885,12.7099115 8.01902655,13.8 8.97371681,14.4382301 C8.39044248,14.4199115 7.84115044,14.259823 7.36141593,13.9924779 C7.36115044,14.0076106 7.36115044,14.0227434 7.36115044,14.0376106 C7.36115044,15.7624779 8.58876106,17.2011504 10.2169912,17.5279646 C9.91858407,17.6097345 9.60345133,17.6530088 9.27929204,17.6530088 C9.04938053,17.6530088 8.82663717,17.6309735 8.60946903,17.5895575 C9.06238938,19.0035398 10.3768142,20.0328319 11.9349558,20.0617699 C10.7163717,21.0167257 9.18159292,21.5856637 7.51327434,21.5856637 C7.22654867,21.5856637 6.94247788,21.5689381 6.66451327,21.5357522 C8.23911504,22.5461947 10.1107965,23.1353097 12.1210619,23.1353097 C18.6690265,23.1353097 22.2499115,17.710885 22.2499115,13.0061947 C22.2499115,12.8519469 22.2464602,12.6982301 22.2395575,12.5458407 C22.9356637,12.0440708 23.539115,11.4172566 24.0161947,10.7033628 Z" id="Shape" fill="#151B5E"></path>
                    </g>
                    <g id="174855" transform="translate(112.000000, 0.000000)" fill="#5B5F8E">
                        <path d="M21.0259783,0 L8.92152174,0 C4.00217391,0 0,4.00217391 0,8.92152174 L0,21.0259783 C0,25.9453261 4.00217391,29.9475 8.92152174,29.9475 L21.0259783,29.9475 C25.9453261,29.9475 29.9475,25.9453261 29.9475,21.0259783 L29.9475,8.92152174 C29.9474457,4.00217391 25.9452717,0 21.0259783,0 Z M26.9347826,21.0259783 C26.9347826,24.2892935 24.2892935,26.9347826 21.0259783,26.9347826 L8.92152174,26.9347826 C5.65820652,26.9347826 3.01271739,24.2892935 3.01271739,21.0259783 L3.01271739,8.92152174 C3.01271739,5.65815217 5.65820652,3.01271739 8.92152174,3.01271739 L21.0259783,3.01271739 C24.2892935,3.01271739 26.9347826,5.65815217 26.9347826,8.92152174 L26.9347826,21.0259783 Z" id="Shape"></path>
                        <path d="M14.97375,7.22826087 C10.7028804,7.22826087 7.22826087,10.7028804 7.22826087,14.9736957 C7.22826087,19.2445109 10.7028804,22.7191848 14.97375,22.7191848 C19.2446196,22.7191848 22.7192391,19.2445652 22.7192391,14.9736957 C22.7192391,10.7028261 19.2446196,7.22826087 14.97375,7.22826087 Z M14.97375,19.7065217 C12.3598913,19.7065217 10.2409783,17.5876087 10.2409783,14.97375 C10.2409783,12.3598913 12.3599457,10.2409783 14.97375,10.2409783 C17.5876087,10.2409783 19.7065217,12.3598913 19.7065217,14.97375 C19.7065217,17.5875543 17.5875543,19.7065217 14.97375,19.7065217 Z" id="Shape"></path>
                        <circle id="Oval" cx="22.7342391" cy="7.28641304" r="1.85597826"></circle>
                    </g>
                    <g id="174883" transform="translate(224.000000, 4.000000)" fill="#5B5F8E">
                        <path d="M23.717987,0.0255194805 L6.21714286,0.0255194805 C2.78350649,0.0255194805 0,2.80902597 0,6.24266234 L0,14.9912338 C0,18.4248701 2.78350649,21.2083766 6.21714286,21.2083766 L23.717987,21.2083766 C27.1516234,21.2083766 29.9351299,18.4248701 29.9351299,14.9912338 L29.9351299,6.24266234 C29.9351299,2.80902597 27.1516234,0.0255194805 23.717987,0.0255194805 Z M19.5133766,11.0425974 L11.3276623,14.9466883 C11.1095455,15.0507143 10.8575974,14.8916883 10.8575974,14.6500649 L10.8575974,6.59785714 C10.8575974,6.35279221 11.1161688,6.19396104 11.3347403,6.30474026 L19.5204545,10.4528571 C19.7638312,10.5761688 19.7596104,10.9251948 19.5133766,11.0425974 Z" id="Shape"></path>
                    </g>
                    <g id="220236" transform="translate(168.000000, 0.000000)">
                        <path d="M0,30 L2.06894531,22.5 C0.724160156,20.1724219 0,17.5862109 0,14.8965234 C0,6.72416016 6.72416016,0 14.9482617,0 C23.1723633,0 30,6.72416016 30,14.8965234 C30,23.0688867 23.1724219,30 14.9482617,30 C12.3620508,30 9.87931641,29.1724219 7.65515625,27.9310547 L0,30 Z" id="Shape" fill="#5B5F8E"></path>
                        <path d="M8.06894531,25.2413672 L8.53447266,25.5 C10.4482617,26.6896289 12.6724219,27.4137891 15,27.4137891 C21.7758398,27.4137891 27.4137891,21.7758398 27.4137891,14.8965234 C27.4137891,8.01720703 21.7758398,2.58621094 14.9482617,2.58621094 C8.12068359,2.58621094 2.58621094,8.06894531 2.58621094,14.8965234 C2.58621094,17.2758398 3.25863281,19.603418 4.5,21.5689453 L4.81037109,22.0344727 L3.62074219,26.3793164 L8.06894531,25.2413672 Z" id="Shape" fill="#151B5E"></path>
                        <path d="M10.9655273,7.96552734 L9.98279297,7.91378906 C9.67242187,7.91378906 9.36210937,8.01726563 9.15521484,8.22416016 C8.6896875,8.63794922 7.91384766,9.41378906 7.70695312,10.4483203 C7.34490234,12.0000586 7.91384766,13.8621094 9.25869141,15.7241602 C10.6035352,17.5862109 13.1897461,20.5862109 17.7414258,21.8793164 C19.1896875,22.2931055 20.3276367,22.0344727 21.2586914,21.4655273 C21.9828516,21 22.4483203,20.2758984 22.6035352,19.5 L22.7586914,18.7758398 C22.8104297,18.5689453 22.7069531,18.3103125 22.5000586,18.2068945 L19.2414258,16.7068945 C19.0345313,16.603418 18.7758984,16.6551563 18.6207422,16.8620508 L17.3276367,18.517207 C17.2241602,18.6206836 17.0690039,18.6723633 16.9138477,18.6206836 C16.0345312,18.3103125 13.0862695,17.0689453 11.482793,13.9655273 C11.4310547,13.8103711 11.4310547,13.6551563 11.5345312,13.5517383 L12.7758984,12.1552148 C12.879375,12.0000586 12.9310547,11.7931641 12.879375,11.6379492 L11.379375,8.27589844 C11.3275781,8.12068359 11.1724219,7.96552734 10.9655273,7.96552734" id="Shape" fill="#5B5F8E"></path>
                    </g>
                    <g id="174858" transform="translate(280.000000, 2.000000)">
                        <path d="M29.2420051,25.4374873 L20.013198,21.0009137 L19.9436802,0.889340102 C19.9420812,0.419847716 20.4322081,0.110482234 20.8553299,0.31393401 L29.6046701,4.52124365 C29.8249492,4.62715736 29.9650508,4.85002538 29.9650508,5.09444162 L29.9650508,24.9828426 C29.9649746,25.3544924 29.5768782,25.5985279 29.2420051,25.4374873 Z" id="Shape" fill="#4C507D"></path>
                        <path d="M20.013198,21.0009137 L10.0248731,16.1984772 L19.6407107,0.366852792 C19.8105838,0.0871827411 20.1650254,-0.0179695431 20.4599239,0.123807107 L29.3315482,4.38997462 C29.6706853,4.55307107 29.7948731,4.97329949 29.5988071,5.29446701 L20.013198,21.0009137 Z" id="Shape" fill="#5B5F8E"></path>
                        <path d="M20.013198,21.0009137 L10.0248731,16.1984772 L0.869619289,1.29 C0.614543147,0.87464467 1.05837563,0.38284264 1.49763959,0.594060914 L10.0248731,4.69454315 L20.013198,21.0009137 Z" id="Shape" fill="#4D5184"></path>
                        <path d="M9.30182741,25.4374112 L0.285837563,21.1018782 C0.111091371,21.0178173 0,20.8410914 0,20.6472335 L0,0.650862944 C0,0.291015228 0.375913706,0.0545939086 0.700279188,0.210609137 L10.0248731,4.69454315 L10.0248731,24.9827665 C10.0248731,25.3544162 9.63670051,25.5984518 9.30182741,25.4374112 Z" id="Shape" fill="#5B5F8E"></path>
                    </g>
                </g>
            </g>
        </g>
    </g>
</svg>