<svg id="Layer_1" data-name="Layer 1" xmlns="http://www.w3.org/2000/svg" viewBox="0 0 50 50"><defs><style>.cls-1{fill:#151b5e;}.cls-2{fill:#fff;}</style></defs><title>Artboard 1</title><rect class="cls-1" width="50" height="50" rx="25"/><path class="cls-2" d="M21.22,20v1.74H18.55v7.75H16.34V21.72H13.67V20Z"/><path class="cls-2" d="M25.27,19.87a3.54,3.54,0,0,1,1.26.21,2.68,2.68,0,0,1,1,.57,2.42,2.42,0,0,1,.6.87,2.65,2.65,0,0,1,.22,1.11,2.93,2.93,0,0,1-.15,1,3.6,3.6,0,0,1-.4.84,6.15,6.15,0,0,1-.59.78c-.22.25-.46.5-.71.76l-1.86,1.9c.24-.07.47-.12.71-.17a3.83,3.83,0,0,1,.65-.06h1.77a.73.73,0,0,1,.52.18.65.65,0,0,1,.19.47v1.18H21.78v-.66a1.21,1.21,0,0,1,.07-.4,1.13,1.13,0,0,1,.28-.39l2.73-2.75a9.13,9.13,0,0,0,.62-.68,5.36,5.36,0,0,0,.43-.62,3.5,3.5,0,0,0,.25-.62,2.39,2.39,0,0,0,.08-.66,1.26,1.26,0,0,0-.27-.87,1,1,0,0,0-.82-.3,1.16,1.16,0,0,0-.42.07,1.54,1.54,0,0,0-.34.17,1,1,0,0,0-.25.26,1.74,1.74,0,0,0-.18.33.87.87,0,0,1-.26.42.65.65,0,0,1-.43.13H23l-1.07-.19a3.48,3.48,0,0,1,.4-1.24,2.85,2.85,0,0,1,1.74-1.4A4,4,0,0,1,25.27,19.87Z"/><path class="cls-2" d="M36.2,24.72a7.55,7.55,0,0,1-.27,2.15,4.44,4.44,0,0,1-.74,1.51,3,3,0,0,1-1.12.9,3.44,3.44,0,0,1-1.4.29,3.4,3.4,0,0,1-1.4-.29,3,3,0,0,1-1.11-.9,4.25,4.25,0,0,1-.73-1.51,7.55,7.55,0,0,1-.27-2.15,7.68,7.68,0,0,1,.27-2.16,4.34,4.34,0,0,1,.73-1.51,3,3,0,0,1,1.11-.89,3.4,3.4,0,0,1,1.4-.29,3.44,3.44,0,0,1,1.4.29,3,3,0,0,1,1.12.89,4.53,4.53,0,0,1,.74,1.51A7.68,7.68,0,0,1,36.2,24.72Zm-2.09,0A8.81,8.81,0,0,0,34,23.11a3.17,3.17,0,0,0-.33-1,1.17,1.17,0,0,0-.47-.49,1.05,1.05,0,0,0-1,0,1.14,1.14,0,0,0-.45.49,3.19,3.19,0,0,0-.32,1,8.81,8.81,0,0,0-.12,1.61,8.74,8.74,0,0,0,.12,1.61,3.19,3.19,0,0,0,.32,1,1.09,1.09,0,0,0,.45.49,1.05,1.05,0,0,0,1,0,1.12,1.12,0,0,0,.47-.49,3.17,3.17,0,0,0,.33-1A8.74,8.74,0,0,0,34.11,24.72Z"/></svg>