<?xml version="1.0" encoding="UTF-8"?>
<svg width="22px" height="22px" viewBox="0 0 22 22" version="1.1" xmlns="http://www.w3.org/2000/svg" xmlns:xlink="http://www.w3.org/1999/xlink">
    <!-- Generator: Sketch 51.2 (57519) - http://www.bohemiancoding.com/sketch -->
    <title>Group 6</title>
    <desc>Created with Sketch.</desc>
    <defs></defs>
    <g id="Page-1" stroke="none" stroke-width="1" fill="none" fill-rule="evenodd">
        <g id="Desktop-HD" transform="translate(-1218.000000, -1970.000000)">
            <g id="Group-6" transform="translate(1218.000000, 1970.000000)">
                <path d="M10.768,0 C4.822,0 0,4.82 0,10.767 C0,16.714 4.822,21.533 10.768,21.533 C16.714,21.533 21.535,16.714 21.535,10.767 C21.535,4.82 16.714,0 10.768,0" id="Fill-12" fill="#038CFF"></path>
                <path d="M16.999,8.057 C16.594,8.237 16.16,8.358 15.703,8.412 C16.169,8.133 16.526,7.691 16.695,7.165 C16.258,7.423 15.775,7.611 15.262,7.712 C14.85,7.274 14.264,7 13.614,7 C12.368,7 11.358,8.01 11.358,9.256 C11.358,9.432 11.378,9.605 11.416,9.77 C9.541,9.676 7.879,8.778 6.766,7.412 C6.571,7.745 6.461,8.133 6.461,8.546 C6.461,9.329 6.859,10.02 7.464,10.424 C7.095,10.411 6.747,10.31 6.442,10.141 L6.442,10.169 C6.442,11.262 7.221,12.174 8.252,12.382 C8.062,12.433 7.863,12.461 7.657,12.461 C7.512,12.461 7.371,12.447 7.232,12.419 C7.52,13.316 8.353,13.968 9.34,13.986 C8.568,14.591 7.595,14.951 6.538,14.951 C6.355,14.951 6.176,14.94 6,14.919 C6.998,15.561 8.184,15.935 9.458,15.935 C13.609,15.935 15.878,12.496 15.878,9.515 L15.87,9.223 C16.313,8.907 16.697,8.509 16.999,8.057" id="Fill-14" fill="#FFFFFF"></path>
            </g>
        </g>
    </g>
</svg>